<svg width="390" height="533" viewBox="0 0 390 533" fill="none" xmlns="http://www.w3.org/2000/svg">
<g clip-path="url(#clip0_140_1277)">
<rect width="390" height="1995" transform="translate(0 -376)" fill="white"/>
<rect y="109" width="390" height="1510" fill="#F9E3F0"/>
<path d="M379.734 51C375.855 51 372.285 52.9655 369.474 56.2412C366.663 59.517 363.093 61.4825 359.208 61.4825C355.323 61.4825 351.759 59.517 348.948 56.2412C346.137 52.9655 342.567 51 338.682 51C334.797 51 331.233 52.9655 328.422 56.2412C325.611 59.517 322.041 61.4825 318.156 61.4825C314.271 61.4825 310.707 59.517 307.896 56.2412C305.085 52.9655 301.515 51 297.63 51C293.745 51 290.181 52.9655 287.37 56.2412C284.56 59.517 280.989 61.4825 277.104 61.4825C273.219 61.4825 269.655 59.517 266.844 56.2412C264.034 52.9655 260.463 51 256.578 51C252.693 51 249.129 52.9655 246.318 56.2412C243.508 59.517 239.937 61.4825 236.052 61.4825C232.167 61.4825 228.603 59.517 225.792 56.2412C222.982 52.9655 219.411 51 215.526 51C211.641 51 208.077 52.9655 205.26 56.2412C202.443 59.517 198.885 61.4825 195 61.4825C191.115 61.4825 187.551 59.517 184.734 56.2412C181.917 52.9655 178.359 51 174.474 51C170.589 51 167.025 52.9655 164.208 56.2412C161.391 59.517 157.833 61.4825 153.948 61.4825C150.063 61.4825 146.499 59.517 143.682 56.2412C140.865 52.9655 137.307 51 133.422 51C129.537 51 125.973 52.9655 123.156 56.2412C120.339 59.517 116.781 61.4825 112.896 61.4825C109.011 61.4825 105.447 59.517 102.63 56.2412C99.8127 52.9655 96.2552 51 92.3701 51C88.4851 51 84.921 52.9655 82.1039 56.2412C79.2867 59.517 75.7292 61.4825 71.8442 61.4825C67.9591 61.4825 64.3951 59.517 61.5779 56.2412C58.7607 52.9655 55.2033 51 51.3182 51C47.4331 51 43.8691 52.9655 41.0519 56.2412C38.2348 59.517 34.6707 61.4825 30.7922 61.4825C26.9137 61.4825 23.3431 59.517 20.526 56.2412C17.7088 52.9655 14.1448 51 10.2663 51C6.38775 51 2.81716 52.9655 0 56.2412V825H390V56.215C387.196 52.9524 383.619 51 379.734 51Z" fill="#F9E3F0"/>
<path d="M153.949 279.645C153.949 279.645 153.818 282.265 146.872 285.737C141.945 288.201 141.019 295.084 141.019 295.084" stroke="#231916" stroke-width="2" stroke-miterlimit="10"/>
<path d="M158.909 257.508C158.909 257.508 157.58 268.339 147.313 277.822C137.046 287.305 141.176 294.22 141.176 294.22" stroke="#231916" stroke-width="2" stroke-miterlimit="10"/>
<path d="M181.55 258.732C181.55 258.732 177.647 258.554 175.37 264.139C173.092 269.725 165.38 270.751 165.38 270.751" stroke="#231916" stroke-width="2" stroke-miterlimit="10"/>
<path d="M174.329 253.4C169.506 262.269 158.808 260.49 158.808 260.49C158.808 260.49 151.585 252.345 156.341 243.604C157.64 241.219 159.833 239.447 162.439 238.679C165.044 237.911 167.847 238.209 170.233 239.508C172.618 240.807 174.39 243 175.158 245.605C175.926 248.211 175.628 251.014 174.329 253.4Z" fill="#FFEB00" stroke="#231916" stroke-width="2" stroke-miterlimit="10"/>
<path d="M196.141 255.644C190.403 262.244 181.69 258.752 181.69 258.752C181.69 258.752 177.097 250.517 182.753 244.009C184.296 242.234 186.481 241.144 188.827 240.979C189.989 240.898 191.155 241.046 192.26 241.416C193.364 241.785 194.385 242.368 195.264 243.132C196.143 243.896 196.863 244.826 197.383 245.868C197.903 246.91 198.212 248.045 198.294 249.207C198.375 250.368 198.227 251.535 197.858 252.639C197.488 253.744 196.905 254.765 196.141 255.644Z" fill="#9FD9F6" stroke="#231916" stroke-width="2" stroke-miterlimit="10"/>
<path d="M173.965 277.056C165.41 285.386 153.949 279.645 153.949 279.645C153.949 279.645 148.634 267.921 157.067 259.708C159.376 257.51 162.458 256.312 165.645 256.372C168.831 256.433 171.866 257.747 174.09 260.03C176.314 262.314 177.548 265.381 177.524 268.569C177.501 271.756 176.222 274.805 173.965 277.056Z" fill="#E8374A" stroke="#231916" stroke-width="2" stroke-miterlimit="10"/>
<path d="M277.439 346.995C277.439 346.995 274.17 358.986 280.906 373.411C287.643 387.835 280.303 393.343 280.303 393.343" stroke="#231916" stroke-width="2" stroke-miterlimit="10"/>
<path d="M274.084 372.421C274.084 372.421 278.275 373.917 278.264 380.786C278.253 387.656 285.943 392.064 285.943 392.064" stroke="#231916" stroke-width="2" stroke-miterlimit="10"/>
<path d="M262.818 327.026C269.416 339.207 259.384 350.188 259.384 350.188C259.384 350.188 244.612 352.417 238.115 340.407C236.399 337.134 236.04 333.318 237.117 329.784C238.194 326.249 240.62 323.281 243.869 321.522C247.118 319.763 250.93 319.354 254.478 320.385C258.026 321.415 261.026 323.802 262.828 327.028L262.818 327.026Z" fill="#8AA3D4" stroke="#231916" stroke-width="2" stroke-miterlimit="10"/>
<path d="M253.381 360.648C259.003 373.568 274.085 372.421 274.085 372.421C274.085 372.421 285.13 361.989 279.588 349.252C278.056 345.808 275.226 343.109 271.713 341.743C268.201 340.376 264.291 340.453 260.834 341.956C257.378 343.459 254.655 346.266 253.259 349.767C251.863 353.268 251.907 357.179 253.381 360.648Z" fill="#FFF67F" stroke="#231916" stroke-width="2" stroke-miterlimit="10"/>
<path d="M399.711 425.786H389.156V467.388H399.711V425.786Z" fill="#6581C0" stroke="#231916" stroke-width="2" stroke-miterlimit="10"/>
<path d="M389.156 467.388L394.436 459.359" stroke="#231916" stroke-width="2" stroke-miterlimit="10"/>
<path d="M383.732 425.786V421.047C383.732 418.991 382.916 417.019 381.462 415.565C380.008 414.111 378.036 413.294 375.979 413.294C373.923 413.294 371.951 414.111 370.497 415.565C369.043 417.019 368.227 418.991 368.227 421.047V425.786" stroke="#231916" stroke-width="2" stroke-miterlimit="10"/>
<path d="M394.435 425.786V421.047C394.435 418.991 393.619 417.019 392.165 415.565C390.711 414.111 388.739 413.294 386.683 413.294C384.626 413.294 382.654 414.111 381.2 415.565C379.747 417.019 378.93 418.991 378.93 421.047V425.786" stroke="#231916" stroke-width="2" stroke-miterlimit="10"/>
<path d="M389.156 425.786H359.115V467.388H389.156V425.786Z" fill="#8AA3D4" stroke="#231916" stroke-width="2" stroke-miterlimit="10"/>
<path d="M349.109 406.399H264.216V467.388H349.109V406.399Z" fill="#FFF67F" stroke="#231916" stroke-width="2" stroke-miterlimit="10"/>
<path d="M314.221 406.399H299.108V467.388H314.221V406.399Z" fill="#EC6D82" stroke="#231916" stroke-width="2" stroke-miterlimit="10"/>
<path d="M267.768 439.443H223.395V467.388H267.768V439.443Z" fill="#9FD9F6" stroke="#231916" stroke-width="2" stroke-miterlimit="10"/>
<path d="M269.247 429.241H220.97V441.147H269.247V429.241Z" fill="#C9BC9C" stroke="#231916" stroke-width="2" stroke-miterlimit="10"/>
<path d="M249.271 429.241H242.645V467.388H249.271V429.241Z" fill="#E83929" stroke="#231916" stroke-width="2" stroke-miterlimit="10"/>
<path d="M244.373 424.695C240.143 418.021 225.267 415.852 225.796 419.528L226.822 423.489L237.245 425.024L244.373 424.695Z" fill="#C30F23" stroke="#231916" stroke-width="2" stroke-miterlimit="10"/>
<path d="M244.348 424.767C244.348 424.767 241.743 421.496 236.267 421.448C231.893 421.412 227.448 422.43 225.772 419.6C225.772 419.6 225.704 428.419 225.852 435.322C225.98 441.259 243.138 433.366 244.401 428.812L244.348 424.767Z" fill="#E83929" stroke="#231916" stroke-width="2" stroke-miterlimit="10"/>
<path d="M247.151 424.695C251.38 418.021 266.257 415.852 265.727 419.528L264.697 423.489L254.274 425.024L247.151 424.695Z" fill="#C30F23" stroke="#231916" stroke-width="2" stroke-miterlimit="10"/>
<path d="M247.171 424.767C247.171 424.767 249.78 421.496 255.252 421.448C259.63 421.412 264.072 422.43 265.747 419.6C265.747 419.6 265.815 428.419 265.667 435.322C265.543 441.259 248.385 433.366 247.123 428.812L247.171 424.767Z" fill="#E83929" stroke="#231916" stroke-width="2" stroke-miterlimit="10"/>
<path d="M242.889 423.176C242.889 423.176 240.484 426.852 242.861 430.728H248.417C248.417 430.728 246.597 426.647 248.417 423.176C248.417 423.176 245.479 422.166 242.889 423.176Z" fill="#E83929" stroke="#231916" stroke-width="2" stroke-miterlimit="10"/>
<path d="M304.668 398.059C299.31 389.603 280.461 386.855 281.132 391.512L282.432 396.53L295.637 398.476L304.668 398.059Z" fill="#A71C33" stroke="#231916" stroke-width="2" stroke-miterlimit="10"/>
<path d="M304.638 398.151C304.638 398.151 301.336 394.006 294.398 393.945C288.857 393.9 283.224 395.19 281.101 391.604C281.101 391.604 281.015 402.778 281.203 411.524C281.365 419.046 303.104 409.045 304.704 403.275L304.638 398.151Z" fill="#EC6D82" stroke="#231916" stroke-width="2" stroke-miterlimit="10"/>
<path d="M308.188 398.059C313.546 389.603 332.395 386.855 331.724 391.512L330.419 396.53L317.213 398.476L308.188 398.059Z" fill="#A71C33" stroke="#231916" stroke-width="2" stroke-miterlimit="10"/>
<path d="M308.213 398.151C308.213 398.151 311.52 394.006 318.453 393.945C323.999 393.9 329.627 395.19 331.75 391.604C331.75 391.604 331.836 402.778 331.648 411.524C331.491 419.046 309.752 409.045 308.152 403.275L308.213 398.151Z" fill="#EC6D82" stroke="#231916" stroke-width="2" stroke-miterlimit="10"/>
<path d="M302.788 396.134C302.788 396.134 299.741 400.792 302.753 405.703H309.792C309.792 405.703 307.486 400.533 309.792 396.134C309.792 396.134 306.069 394.854 302.788 396.134Z" fill="#EC6D82" stroke="#231916" stroke-width="2" stroke-miterlimit="10"/>
<path d="M334.706 462.313V467.497C334.706 469.769 338.626 471.613 343.461 471.613C348.295 471.613 352.22 469.769 352.22 467.497V462.313H334.706Z" fill="#FDD10A" stroke="#231916" stroke-width="2" stroke-miterlimit="10"/>
<path d="M334.706 457.042V462.229C334.706 464.502 338.626 466.342 343.461 466.342C348.295 466.342 352.22 464.502 352.22 462.229V457.042H334.706Z" fill="#FDD10A" stroke="#231916" stroke-width="2" stroke-miterlimit="10"/>
<path d="M334.706 451.77V456.941C334.706 459.214 338.626 461.054 343.461 461.054C348.295 461.054 352.22 459.214 352.22 456.941V451.77H334.706Z" fill="#FDD10A" stroke="#231916" stroke-width="2" stroke-miterlimit="10"/>
<path d="M334.706 446.519V451.702C334.706 453.975 338.626 455.815 343.461 455.815C348.295 455.815 352.22 453.975 352.22 451.702V446.519H334.706Z" fill="#FDD10A" stroke="#231916" stroke-width="2" stroke-miterlimit="10"/>
<path d="M334.706 441.231V446.415C334.706 448.687 338.626 450.528 343.461 450.528C348.295 450.528 352.22 448.687 352.22 446.415V441.231H334.706Z" fill="#FDD10A" stroke="#231916" stroke-width="2" stroke-miterlimit="10"/>
<path d="M334.706 435.96V441.147C334.706 443.416 338.626 445.26 343.461 445.26C348.295 445.26 352.22 443.416 352.22 441.147V435.96H334.706Z" fill="#FDD10A" stroke="#231916" stroke-width="2" stroke-miterlimit="10"/>
<path d="M352.22 435.94C352.22 438.213 348.295 440.057 343.461 440.057C338.626 440.057 334.706 438.213 334.706 435.94C334.706 433.667 338.626 431.827 343.461 431.827C348.295 431.827 352.22 433.691 352.22 435.94Z" fill="#FFEB00" stroke="#231916" stroke-width="2" stroke-miterlimit="10"/>
<path d="M350.736 435.94C350.736 437.619 347.481 438.982 343.46 438.982C339.44 438.982 336.185 437.619 336.185 435.94C336.185 434.26 339.444 432.897 343.46 432.897C347.477 432.897 350.736 434.26 350.736 435.94Z" fill="#FFEB00" stroke="#231916" stroke-width="2" stroke-miterlimit="10"/>
<path d="M345.288 435.202H344.198V434.869C344.205 434.811 344.196 434.753 344.173 434.699C344.149 434.646 344.112 434.599 344.066 434.565C343.86 434.476 343.635 434.44 343.412 434.46C343.169 434.44 342.924 434.478 342.699 434.573C342.653 434.612 342.617 434.661 342.595 434.717C342.572 434.773 342.564 434.833 342.57 434.893C342.562 434.95 342.562 435.009 342.57 435.066C342.595 435.12 342.634 435.165 342.683 435.198C342.777 435.254 342.878 435.298 342.983 435.33C343.096 435.374 343.276 435.435 343.533 435.515L343.877 435.623C344.23 435.735 344.479 435.819 344.615 435.871C344.782 435.932 344.942 436.01 345.092 436.104C345.201 436.179 345.287 436.283 345.34 436.405C345.397 436.547 345.423 436.7 345.417 436.854C345.426 437.013 345.388 437.173 345.307 437.311C345.225 437.448 345.104 437.559 344.96 437.627C344.462 437.83 343.925 437.917 343.388 437.884C342.872 437.918 342.355 437.838 341.873 437.651C341.762 437.6 341.668 437.516 341.605 437.411C341.541 437.306 341.51 437.185 341.516 437.062V436.565H342.623V436.966C342.616 437.027 342.624 437.088 342.647 437.145C342.67 437.202 342.707 437.252 342.755 437.291C342.967 437.395 343.205 437.438 343.44 437.415C343.695 437.437 343.952 437.39 344.182 437.279C344.236 437.244 344.281 437.196 344.31 437.139C344.34 437.082 344.354 437.018 344.35 436.954C344.351 436.867 344.33 436.781 344.289 436.705C344.248 436.628 344.187 436.563 344.114 436.517C343.746 436.305 343.352 436.141 342.943 436.028C342.561 435.915 342.191 435.766 341.837 435.583C341.729 435.515 341.64 435.42 341.58 435.308C341.521 435.195 341.492 435.069 341.496 434.941C341.494 434.792 341.536 434.645 341.617 434.519C341.698 434.393 341.815 434.295 341.953 434.236C342.403 434.054 342.888 433.974 343.372 433.999C343.869 433.981 344.366 434.034 344.847 434.156C345.148 434.248 345.296 434.38 345.296 434.557L345.288 435.202Z" fill="#231916"/>
<path d="M356.296 462.313V467.501C356.296 469.769 360.221 471.613 365.055 471.613C369.89 471.613 373.811 469.769 373.811 467.501V462.313H356.296Z" fill="#FDD10A" stroke="#231916" stroke-width="2" stroke-miterlimit="10"/>
<path d="M356.296 457.042V462.229C356.296 464.498 360.221 466.342 365.055 466.342C369.89 466.342 373.811 464.498 373.811 462.229V457.042H356.296Z" fill="#FDD10A" stroke="#231916" stroke-width="2" stroke-miterlimit="10"/>
<path d="M356.296 451.77V456.941C356.296 459.214 360.221 461.054 365.055 461.054C369.89 461.054 373.811 459.23 373.811 456.941V451.77H356.296Z" fill="#FDD10A" stroke="#231916" stroke-width="2" stroke-miterlimit="10"/>
<path d="M356.296 446.519V451.702C356.296 453.975 360.221 455.815 365.055 455.815C369.89 455.815 373.811 453.975 373.811 451.702V446.519H356.296Z" fill="#FDD10A" stroke="#231916" stroke-width="2" stroke-miterlimit="10"/>
<path d="M356.296 441.231V446.415C356.296 448.687 360.221 450.528 365.055 450.528C369.89 450.528 373.811 448.687 373.811 446.415V441.231H356.296Z" fill="#FDD10A" stroke="#231916" stroke-width="2" stroke-miterlimit="10"/>
<path d="M373.811 441.211C373.811 443.484 369.882 445.316 365.072 445.316C360.261 445.316 356.312 443.476 356.312 441.203C356.312 438.93 360.221 437.098 365.072 437.098C369.922 437.098 373.811 438.938 373.811 441.211Z" fill="#FFEB00" stroke="#231916" stroke-width="2" stroke-miterlimit="10"/>
<path d="M372.332 441.211C372.332 442.891 369.076 444.254 365.056 444.254C361.035 444.254 357.78 442.891 357.78 441.211C357.78 439.532 361.039 438.169 365.056 438.169C369.072 438.169 372.332 439.532 372.332 441.211Z" fill="#FFEB00" stroke="#231916" stroke-width="2" stroke-miterlimit="10"/>
<path d="M366.884 440.474H365.793V440.141C365.8 440.083 365.792 440.024 365.768 439.971C365.745 439.917 365.708 439.871 365.661 439.836C365.454 439.745 365.228 439.708 365.004 439.728C364.761 439.708 364.518 439.748 364.294 439.844C364.248 439.883 364.212 439.932 364.189 439.988C364.167 440.044 364.159 440.105 364.166 440.165C364.157 440.222 364.157 440.28 364.166 440.337C364.19 440.391 364.229 440.437 364.278 440.47C364.373 440.525 364.474 440.57 364.579 440.602C364.691 440.646 364.871 440.706 365.128 440.786L365.473 440.895C365.825 441.007 366.074 441.091 366.21 441.143C366.377 441.201 366.536 441.279 366.683 441.376C366.795 441.447 366.883 441.55 366.936 441.672C366.992 441.816 367.018 441.971 367.012 442.125C367.021 442.284 366.982 442.443 366.901 442.58C366.819 442.717 366.699 442.827 366.555 442.895C366.057 443.099 365.52 443.187 364.983 443.151C364.467 443.182 363.95 443.1 363.468 442.911C363.357 442.859 363.264 442.775 363.201 442.67C363.137 442.565 363.106 442.444 363.111 442.322V441.821H364.194V442.221C364.186 442.283 364.195 442.345 364.218 442.403C364.241 442.46 364.278 442.511 364.326 442.55C364.539 442.654 364.776 442.697 365.012 442.674C365.266 442.695 365.522 442.648 365.753 442.538C365.808 442.504 365.853 442.455 365.883 442.397C365.912 442.339 365.926 442.274 365.922 442.209C365.922 442.123 365.9 442.037 365.859 441.961C365.817 441.885 365.758 441.82 365.685 441.772C365.316 441.563 364.923 441.4 364.514 441.287C364.131 441.176 363.761 441.025 363.408 440.838C363.3 440.772 363.212 440.677 363.152 440.565C363.092 440.454 363.063 440.328 363.067 440.201C363.066 440.051 363.108 439.904 363.189 439.778C363.27 439.651 363.387 439.552 363.524 439.491C363.975 439.311 364.459 439.232 364.943 439.259C365.44 439.24 365.937 439.291 366.419 439.411C366.719 439.508 366.868 439.636 366.868 439.812L366.884 440.474Z" fill="#231916"/>
<path d="M345.649 466.017V471.201C345.649 473.473 349.57 475.314 354.405 475.314C359.239 475.314 363.164 473.473 363.164 471.201V466.017H345.649Z" fill="#FDD10A" stroke="#231916" stroke-width="2" stroke-miterlimit="10"/>
<path d="M345.649 460.746V465.929C345.649 468.202 349.57 470.042 354.405 470.042C359.239 470.042 363.164 468.202 363.164 465.929V460.746H345.649Z" fill="#FDD10A" stroke="#231916" stroke-width="2" stroke-miterlimit="10"/>
<path d="M345.649 455.474V460.658C345.649 462.931 349.57 464.775 354.405 464.775C359.239 464.775 363.164 462.931 363.164 460.658V455.474H345.649Z" fill="#FDD10A" stroke="#231916" stroke-width="2" stroke-miterlimit="10"/>
<path d="M345.649 450.203V455.39C345.649 457.659 349.57 459.503 354.405 459.503C359.239 459.503 363.164 457.659 363.164 455.39V450.203H345.649Z" fill="#FDD10A" stroke="#231916" stroke-width="2" stroke-miterlimit="10"/>
<path d="M363.164 450.183C363.164 452.456 359.243 454.3 354.405 454.3C349.566 454.3 345.649 452.456 345.649 450.183C345.649 447.91 349.57 446.07 354.405 446.07C359.239 446.07 363.164 447.914 363.164 450.183Z" fill="#FFEB00" stroke="#231916" stroke-width="2" stroke-miterlimit="10"/>
<path d="M361.685 450.183C361.685 451.862 358.426 453.225 354.405 453.225C350.384 453.225 347.129 451.862 347.129 450.183C347.129 448.503 350.388 447.14 354.405 447.14C358.422 447.14 361.685 448.523 361.685 450.183Z" fill="#FFEB00" stroke="#231916" stroke-width="2" stroke-miterlimit="10"/>
<path d="M356.252 449.445H355.162V449.112C355.169 449.055 355.16 448.997 355.138 448.943C355.115 448.89 355.079 448.843 355.034 448.808C354.827 448.719 354.601 448.683 354.376 448.704C354.134 448.682 353.89 448.721 353.667 448.816C353.619 448.854 353.583 448.903 353.559 448.959C353.536 449.015 353.528 449.076 353.534 449.136C353.528 449.194 353.528 449.252 353.534 449.309C353.559 449.364 353.6 449.41 353.651 449.441C353.743 449.498 353.843 449.542 353.947 449.573C354.06 449.617 354.244 449.682 354.496 449.762L354.841 449.87C355.198 449.982 355.447 450.066 355.583 450.115C355.748 450.175 355.907 450.253 356.056 450.347C356.165 450.423 356.252 450.527 356.308 450.648C356.363 450.791 356.389 450.944 356.385 451.097C356.394 451.257 356.356 451.416 356.275 451.554C356.193 451.692 356.072 451.802 355.928 451.87C355.428 452.072 354.89 452.16 354.352 452.127C353.837 452.161 353.321 452.082 352.841 451.894C352.729 451.843 352.635 451.76 352.57 451.655C352.506 451.55 352.475 451.428 352.48 451.305V450.808H353.566V451.209C353.559 451.27 353.567 451.331 353.589 451.388C353.612 451.444 353.648 451.495 353.695 451.534C353.909 451.638 354.147 451.681 354.384 451.658C354.638 451.68 354.893 451.633 355.122 451.522C355.176 451.487 355.221 451.439 355.25 451.382C355.28 451.325 355.294 451.261 355.29 451.197C355.292 451.11 355.271 451.024 355.23 450.947C355.188 450.87 355.128 450.806 355.054 450.76C354.687 450.549 354.295 450.385 353.887 450.271C353.505 450.16 353.134 450.011 352.781 449.826C352.672 449.759 352.582 449.665 352.522 449.552C352.461 449.439 352.431 449.312 352.436 449.185C352.433 449.035 352.476 448.888 352.557 448.762C352.638 448.636 352.755 448.538 352.893 448.479C353.343 448.298 353.827 448.217 354.312 448.242C354.809 448.224 355.305 448.277 355.787 448.399C356.088 448.491 356.236 448.623 356.236 448.8L356.252 449.445Z" fill="#231916"/>
<path d="M382.57 425.786V432.897" stroke="#231916" stroke-width="2" stroke-miterlimit="10"/>
<path d="M387.389 441.564H382.177V432.592L384.783 430.356L387.389 432.592V441.564Z" fill="white" stroke="#231916" stroke-width="2" stroke-miterlimit="10"/>
<mask id="mask0_140_1277" style="mask-type:luminance" maskUnits="userSpaceOnUse" x="-2" y="346" width="214" height="187">
<path d="M-2 346H212V533H-2V346Z" fill="white"/>
</mask>
<g mask="url(#mask0_140_1277)">
<path d="M-30.9636 423.133C-37.3753 392.723 -17.9229 362.871 12.4871 356.459C34.7035 351.775 56.609 360.901 69.3091 378.014C72.2805 376.711 75.4247 375.684 78.7268 374.988C104.586 369.534 129.971 386.079 135.425 411.939C136.714 418.049 136.763 424.125 135.761 429.925C136.363 429.767 136.97 429.619 137.587 429.491C156.882 425.423 175.821 437.763 179.888 457.058C183.955 476.352 171.615 495.291 152.321 499.358L-4.22585 497.423C-4.22585 497.423 -30.7365 424.214 -30.9636 423.138V423.133Z" fill="#FFFFFC" stroke="#353535" stroke-width="1.5" stroke-miterlimit="10"/>
<circle cx="3.5" cy="488.5" r="28.75" fill="white" stroke="#353535" stroke-width="1.5"/>
<ellipse cx="3.5" cy="475.5" rx="29.5" ry="16.5" fill="white"/>
</g>
<path d="M344.31 273.142H340.678C340.038 270.267 338.422 267.694 336.099 265.85C333.775 264.006 330.882 263 327.9 263C324.918 263 322.025 264.006 319.701 265.85C317.377 267.694 315.761 270.267 315.121 273.142H311.489C309.869 273.089 308.254 273.358 306.741 273.934C305.228 274.509 303.848 275.379 302.683 276.492C301.518 277.604 300.591 278.937 299.958 280.41C299.326 281.884 299 283.468 299 285.068C299 286.668 299.326 288.252 299.958 289.725C300.591 291.198 301.518 292.531 302.683 293.644C303.848 294.756 305.228 295.626 306.741 296.202C308.254 296.777 309.869 297.046 311.489 296.993H344.31C347.446 296.891 350.418 295.59 352.599 293.364C354.78 291.139 356 288.164 356 285.068C356 281.972 354.78 278.997 352.599 276.771C350.418 274.546 347.446 273.245 344.31 273.142Z" fill="white" stroke="#231916" stroke-width="2" stroke-miterlimit="10"/>
<path d="M73.4903 444.58C105.662 452.599 133.41 452.413 135.466 444.163C137.522 435.914 113.109 422.726 80.9366 414.707C48.7646 406.687 21.0172 406.874 18.9609 415.123C16.9047 423.372 41.3183 436.56 73.4903 444.58Z" fill="#FFB5E0" fill-opacity="0.8"/>
<path d="M128.502 428.781C126.445 437.031 123.832 439.728 114.64 441.614L50.254 422.107C47.0514 421.307 44.2975 419.268 42.5978 416.439C40.8981 413.609 40.3918 410.22 41.1902 407.017L69.3212 280.042C76.293 272.625 80.6959 271.561 87.3652 273.223L150.522 288.966C153.725 289.765 156.48 291.802 158.181 294.631C159.882 297.46 160.389 300.849 159.592 304.052L128.502 428.781Z" fill="#B5B6B6" stroke="#383838" stroke-width="2" stroke-miterlimit="10"/>
<path d="M145.949 292.854L80.1078 276.442C74.1789 274.964 68.1745 278.572 66.6966 284.501L34.9372 411.914C33.4594 417.843 37.0677 423.847 42.9966 425.325L108.838 441.737C114.767 443.215 120.771 439.606 122.249 433.677L154.008 306.265C155.486 300.336 151.878 294.331 145.949 292.854Z" fill="white" stroke="#383838" stroke-width="2" stroke-miterlimit="10"/>
<path d="M144.515 318.755L69.2168 299.985L43.5478 402.965L118.846 421.734L144.515 318.755Z" fill="#F9E3EE" stroke="#383838" stroke-width="2" stroke-miterlimit="10"/>
<path d="M123.734 300.936C123.65 301.269 123.437 301.555 123.142 301.732C122.848 301.909 122.495 301.963 122.161 301.881L96.8849 295.58C96.5506 295.497 96.2629 295.285 96.0848 294.99C95.9068 294.695 95.8529 294.341 95.935 294.006C96.0197 293.672 96.2332 293.384 96.5289 293.207C96.8247 293.029 97.1787 292.975 97.5138 293.057L122.79 299.358C123.124 299.443 123.411 299.656 123.588 299.952C123.765 300.247 123.817 300.601 123.734 300.936Z" fill="#1A1A1A" stroke="#383838" stroke-width="2" stroke-miterlimit="10"/>
<path d="M119.159 372.94C117.853 378.182 115.021 382.92 111.021 386.553C107.022 390.186 102.036 392.551 96.692 393.35C91.3485 394.149 85.888 393.346 81.0011 391.041C76.1142 388.737 72.0204 385.035 69.2374 380.404C66.4544 375.773 65.1072 370.42 65.3661 365.024C65.625 359.627 67.4784 354.428 70.6919 350.085C73.9055 345.741 78.3348 342.448 83.4199 340.622C88.5049 338.796 94.0172 338.519 99.2598 339.826C106.29 341.578 112.336 346.051 116.068 352.261C119.8 358.472 120.912 365.91 119.159 372.94Z" fill="white" stroke="#383838" stroke-width="2" stroke-miterlimit="10"/>
<path d="M110.999 370.906C110.096 374.532 108.137 377.809 105.372 380.323C102.606 382.836 99.1572 384.473 95.4612 385.026C91.7652 385.579 87.9882 385.024 84.6079 383.43C81.2277 381.836 78.396 379.276 76.471 376.072C74.546 372.869 73.6143 369.167 73.7936 365.434C73.9729 361.701 75.2552 358.106 77.4784 355.102C79.7015 352.098 82.7656 349.82 86.2831 348.558C89.8006 347.296 93.6134 347.105 97.2394 348.01C102.099 349.222 106.279 352.316 108.859 356.609C111.439 360.903 112.209 366.045 110.999 370.906Z" fill="white" stroke="#383838" stroke-width="2" stroke-miterlimit="10"/>
<path d="M79.5792 359.831L80.9861 360.182L79.9047 364.519C79.7709 365.056 79.7623 365.504 79.8789 365.863C80.0036 366.217 80.2956 366.451 80.7549 366.566C81.0266 366.634 81.2643 366.659 81.468 366.641C81.6733 366.616 81.8528 366.544 82.0063 366.424C82.1679 366.3 82.3044 366.124 82.4159 365.898C82.5289 365.665 82.629 365.374 82.716 365.025L83.7515 360.872L85.1584 361.222L84.1012 365.463C83.9738 365.974 83.7994 366.397 83.5781 366.734C83.3649 367.065 83.1056 367.32 82.8001 367.498C82.4962 367.67 82.1486 367.769 81.7574 367.795C81.3742 367.816 80.9529 367.77 80.4937 367.655C79.588 367.429 78.9701 367.028 78.6399 366.451C78.3097 365.874 78.2769 365.055 78.5414 363.994L79.5792 359.831Z" fill="#383838"/>
<path d="M79.5792 359.831L80.9861 360.182L79.9047 364.519C79.7709 365.056 79.7623 365.504 79.8789 365.863C80.0036 366.217 80.2956 366.451 80.7549 366.566C81.0266 366.634 81.2643 366.659 81.468 366.641C81.6733 366.616 81.8528 366.544 82.0063 366.424C82.1679 366.3 82.3044 366.124 82.4159 365.898C82.5289 365.665 82.629 365.374 82.716 365.025L83.7515 360.872L85.1584 361.222L84.1012 365.463C83.9738 365.974 83.7994 366.397 83.5781 366.734C83.3649 367.065 83.1056 367.32 82.8001 367.498C82.4962 367.67 82.1486 367.769 81.7574 367.795C81.3742 367.816 80.9529 367.77 80.4937 367.655C79.588 367.429 78.9701 367.028 78.6399 366.451C78.3097 365.874 78.2769 365.055 78.5414 363.994L79.5792 359.831Z" fill="#FF0097"/>
<path d="M87.1611 361.924L88.3351 362.216L87.8997 363.963L89.6365 364.396L89.3607 365.502L87.6239 365.069L87.1932 366.796L86.0192 366.503L86.4498 364.776L84.713 364.343L84.9888 363.237L86.7256 363.67L87.1611 361.924Z" fill="#FF0097"/>
<path d="M97.4609 363.988L97.0448 365.657C96.9786 365.922 96.8996 366.171 96.8076 366.402C96.7171 366.627 96.6081 366.802 96.4805 366.929L92.3955 365.91L92.2213 366.609C92.2036 366.68 92.1988 366.727 92.2069 366.749C92.2214 366.774 92.2611 366.794 92.3258 366.81L96.7891 367.923L96.5157 369.019L94.1191 368.422L93.8457 369.518L97.1641 370.345L96.8859 371.461L88.881 369.465L89.1592 368.35L92.4679 369.175L92.7413 368.078L91.2761 367.713C90.8039 367.595 90.6307 367.284 90.7565 366.779L91.3178 364.528L95.6356 365.605L95.8485 364.751L91.5307 363.674L91.804 362.578L97.4609 363.988ZM99.9819 364.72L105.716 366.15L105.448 367.227L101.052 366.131L100.585 368.004C100.569 368.068 100.565 368.112 100.573 368.135C100.59 368.152 100.63 368.169 100.695 368.185L104.945 369.245L104.676 370.322L99.6208 369.062C99.3944 369.005 99.2375 368.904 99.1501 368.759C99.0692 368.615 99.0513 368.452 99.0965 368.271L99.9819 364.72ZM97.3661 370.375L105.371 372.371L105.098 373.467L97.0927 371.472L97.3661 370.375Z" fill="#383838"/>
<path d="M98.7687 341.855L99.0077 343.579L100.663 344.117L99.1009 344.879L99.1045 346.619L97.8944 345.363L96.2408 345.906L97.0608 344.371L96.0341 342.963L97.7486 343.265L98.7687 341.855Z" fill="#383838"/>
<path d="M87.6984 386.268L87.9374 387.992L89.593 388.53L88.0318 389.287L88.0342 391.033L86.8241 389.776L85.1705 390.319L85.9917 388.779L84.9638 387.376L86.6783 387.678L87.6984 386.268Z" fill="#383838"/>
<path d="M89.5898 341.91L89.7611 343.119L90.9196 343.493L89.8209 344.029L89.8229 345.251L88.9763 344.371L87.8159 344.751L88.3914 343.673L87.6725 342.684L88.8712 342.897L89.5898 341.91Z" fill="#383838"/>
<path d="M82.8397 345.139L82.9926 346.229L84.0305 346.564L83.0498 347.042L83.0491 348.137L82.2896 347.346L81.2536 347.69L81.7673 346.722L81.1196 345.838L82.1992 346.031L82.8397 345.139Z" fill="#383838"/>
<path d="M111.898 352.382L112.051 353.472L113.089 353.807L112.108 354.285L112.108 355.381L111.348 354.589L110.312 354.933L110.826 353.965L110.178 353.081L111.258 353.274L111.898 352.382Z" fill="#383838"/>
<path d="M74.641 378.031L74.7938 379.121L75.8318 379.456L74.8511 379.934L74.8503 381.03L74.0909 380.238L73.0549 380.582L73.5686 379.614L72.9209 378.73L74.0005 378.923L74.641 378.031Z" fill="#383838"/>
<path d="M103.7 385.275L103.852 386.364L104.89 386.699L103.91 387.177L103.909 388.273L103.149 387.482L102.113 387.825L102.627 386.857L101.979 385.974L103.059 386.167L103.7 385.275Z" fill="#383838"/>
<path d="M106.852 346.213L107.019 347.421L108.182 347.796L107.083 348.332L107.085 349.554L106.239 348.674L105.074 349.053L105.649 347.974L104.93 346.986L106.134 347.2L106.852 346.213Z" fill="#383838"/>
<path d="M79.3369 383.043L79.5069 384.257L80.6655 384.631L79.5667 385.166L79.5688 386.389L78.7222 385.509L77.5618 385.888L78.1373 384.81L77.4184 383.822L78.6171 384.035L79.3369 383.043Z" fill="#383838"/>
<path d="M96.5995 387.346L96.7648 388.558L97.928 388.934L96.8293 389.469L96.8313 390.692L95.9848 389.812L94.8196 390.19L95.3951 389.112L94.6762 388.123L95.8796 388.338L96.5995 387.346Z" fill="#383838"/>
<path d="M40.3455 343.567L47.5649 353.652C51.2563 358.81 62.1841 357.527 71.9356 350.777C81.687 344.028 86.6259 334.38 82.9392 329.223L75.7151 319.137L40.3455 343.567Z" fill="#FF0097" stroke="#383838" stroke-width="2" stroke-miterlimit="10"/>
<path d="M34.775 339.051L43.7802 351.632C47.7961 357.243 59.6739 355.84 70.3064 348.501C80.9389 341.162 86.3172 330.658 82.2824 325.042L73.2771 312.461L34.775 339.051Z" fill="#FC72C3" stroke="#383838" stroke-width="2" stroke-miterlimit="10"/>
<path d="M73.2765 312.461C77.2924 318.072 71.9341 328.576 61.3004 335.92C50.6668 343.264 38.7855 344.661 34.7743 339.051C30.7632 333.441 36.1167 322.936 46.7456 315.591C57.3745 308.245 69.2558 306.848 73.2765 312.461Z" fill="#FC72C3" stroke="#383838" stroke-width="2" stroke-miterlimit="10"/>
<path d="M48.4033 291.414C48.9822 286.373 47.6585 281.298 44.6914 277.182C41.4679 272.7 36.6195 269.657 31.1822 268.703C25.7449 267.749 20.1501 268.959 15.5933 272.075C13.3628 273.608 11.4613 275.571 10.0007 277.849C8.5402 280.127 7.5501 282.675 7.08871 285.341C6.62732 288.008 6.70396 290.74 7.31412 293.377C7.92428 296.013 9.05563 298.501 10.6416 300.694C13.6264 304.86 18.0303 307.792 23.0253 308.939L23.2572 308.997C24.8287 309.388 34.2636 311.977 41.1514 321.597L44.876 326.823C46.2593 328.757 50.3407 328.276 54.002 325.75C57.6632 323.224 59.504 319.61 58.1208 317.677L54.3962 312.45C47.5238 302.849 48.201 293.275 48.3727 291.658C48.3904 291.587 48.4081 291.516 48.4246 291.45L48.4033 291.414Z" fill="#FF0097" stroke="#383838" stroke-width="2" stroke-miterlimit="10"/>
<path d="M181.399 394.587L148.445 386.373" stroke="#383838" stroke-width="2.2" stroke-miterlimit="10" stroke-linecap="round"/>
<path d="M168.694 372.763L148.211 379.547" stroke="#383838" stroke-width="2.2" stroke-miterlimit="10" stroke-linecap="round"/>
<path d="M163.192 411.134L148.285 395.528" stroke="#383838" stroke-width="2.2" stroke-miterlimit="10" stroke-linecap="round"/>
<path d="M175.338 382.393L168.135 383.277" stroke="#383838" stroke-width="2.2" stroke-miterlimit="10" stroke-linecap="round"/>
<path d="M299.747 253.253C300.389 250.416 300.555 247.492 300.238 244.6C300.165 243.85 300.059 243.117 299.906 242.394C299.736 241.504 299.495 240.629 299.187 239.777C298.812 238.742 298.332 237.749 297.754 236.812C296.784 235.211 295.52 233.808 294.029 232.676C292.592 231.599 290.955 230.819 289.213 230.381C287.458 229.931 285.625 229.879 283.847 230.229C281.11 230.697 278.635 232.141 276.882 234.295C275.326 235.864 272.341 241.011 272.341 241.011C270.294 239.265 268.071 237.735 265.708 236.447C263.275 235.099 260.436 234.682 257.718 235.273C255.93 235.606 254.24 236.336 252.773 237.409C251.319 238.462 250.09 239.795 249.158 241.33C248.196 242.935 247.544 244.707 247.237 246.553C247.025 247.767 246.955 249.002 247.028 250.232C247.028 250.232 246.674 271.429 280.102 281.11C280.102 281.11 294.567 270.301 299.064 255.777C299.259 255.282 299.414 254.771 299.528 254.251C299.615 253.916 299.684 253.585 299.747 253.253Z" fill="#FF4087" stroke="#282828" stroke-width="2" stroke-linecap="round" stroke-linejoin="round"/>
<path d="M272.006 257.306C272.976 257.115 273.495 255.594 273.163 253.908C272.832 252.222 271.776 251.01 270.806 251.201C269.835 251.392 269.317 252.913 269.648 254.599C269.98 256.285 271.035 257.497 272.006 257.306Z" fill="#020202"/>
<path d="M278.462 256.032C279.432 255.841 279.951 254.32 279.619 252.634C279.288 250.948 278.232 249.736 277.262 249.927C276.291 250.118 275.773 251.639 276.104 253.325C276.436 255.011 277.491 256.223 278.462 256.032Z" fill="#020202"/>
<path d="M262.143 256.079C262.143 256.079 263.801 270.361 277.068 267.956C289.489 265.707 287.25 251.144 287.25 251.144" stroke="#020202" stroke-width="2" stroke-linecap="round" stroke-linejoin="round"/>
<path d="M261.141 256.275L263.443 255.82" stroke="#020202" stroke-width="2" stroke-linecap="round" stroke-linejoin="round"/>
<path d="M286.109 251.366L288.411 250.915" stroke="#020202" stroke-width="2" stroke-linecap="round" stroke-linejoin="round"/>
<path d="M263.718 251.3C263.783 251.013 263.799 250.719 263.768 250.427C263.768 250.351 263.748 250.278 263.734 250.205C263.717 250.115 263.693 250.026 263.661 249.94C263.561 249.655 263.38 249.406 263.141 249.223C262.996 249.115 262.832 249.036 262.657 248.991C262.478 248.951 262.294 248.951 262.116 248.991C261.839 249.037 261.588 249.182 261.409 249.399C261.24 249.608 261.087 249.83 260.952 250.062C260.747 249.886 260.525 249.731 260.288 249.601C260.043 249.465 259.757 249.422 259.482 249.482C259.303 249.518 259.134 249.591 258.985 249.698C258.839 249.805 258.715 249.94 258.62 250.096C258.523 250.256 258.458 250.434 258.428 250.62C258.405 250.742 258.398 250.867 258.408 250.991C258.408 250.991 258.371 253.13 261.744 254.109C261.744 254.109 263.204 253.018 263.658 251.552C263.677 251.502 263.692 251.451 263.705 251.399L263.718 251.3Z" fill="white"/>
<path d="M288.955 246.819C289.019 246.533 289.036 246.238 289.004 245.946C289.004 245.87 288.985 245.797 288.971 245.724C288.954 245.634 288.93 245.545 288.898 245.459C288.798 245.174 288.617 244.925 288.378 244.742C288.233 244.634 288.069 244.555 287.893 244.51C287.715 244.471 287.531 244.471 287.353 244.51C287.075 244.557 286.824 244.704 286.646 244.922C286.477 245.131 286.324 245.353 286.189 245.585C285.984 245.41 285.761 245.257 285.525 245.127C285.28 244.991 284.993 244.948 284.719 245.008C284.54 245.042 284.37 245.116 284.222 245.223C284.075 245.33 283.951 245.464 283.857 245.618C283.761 245.78 283.695 245.959 283.665 246.145C283.641 246.268 283.635 246.393 283.645 246.517C283.645 246.517 283.611 248.656 286.985 249.631C286.985 249.631 288.444 248.543 288.898 247.077C288.917 247.026 288.933 246.974 288.945 246.922L288.955 246.819Z" fill="white"/>
</g>
<defs>
<clipPath id="clip0_140_1277">
<rect width="390" height="1995" fill="white" transform="translate(0 -376)"/>
</clipPath>
</defs>
</svg>
