<svg width="390" height="612" viewBox="0 0 390 612" fill="none" xmlns="http://www.w3.org/2000/svg">
<g clip-path="url(#clip0_75_252)">
<rect width="390" height="1880" transform="translate(0 -1025)" fill="white"/>
<mask id="mask0_75_252" style="mask-type:alpha" maskUnits="userSpaceOnUse" x="0" y="-609" width="390" height="1221">
<rect y="-609" width="390" height="1221" fill="#D9D9D9"/>
</mask>
<g mask="url(#mask0_75_252)">
<rect width="390" height="1221" transform="matrix(1 0 0 -1 0 612)" fill="#FFAADC"/>
<path d="M135 581H257L347 0H45L135 581Z" fill="#FFFBEC"/>
<path d="M386.413 201.099C354.696 170.888 322.837 152.89 315.255 160.907L299.727 177.323C302.61 174.278 308.998 174.989 317.55 178.7C324.299 192.372 339.288 211.398 358.951 230.131C378.614 248.863 398.329 262.894 412.285 268.946C416.42 277.325 417.463 283.691 414.583 286.74C415.316 285.966 430.108 270.323 430.108 270.323C437.69 262.307 418.126 231.315 386.409 201.099H386.413Z" fill="#FFBCC7" stroke="#69563B" stroke-width="1.5" stroke-miterlimit="10"/>
<path d="M414.794 286.52C422.493 278.38 403.024 247.288 371.309 217.073C339.594 186.858 307.642 168.962 299.943 177.101C292.244 185.241 311.713 216.333 343.428 246.548C375.143 276.763 407.095 294.659 414.794 286.52Z" fill="#FFB3C7" stroke="#69563B" stroke-width="1.5" stroke-miterlimit="10"/>
<path d="M411.813 284.103C418.775 276.743 399.951 247.464 369.766 218.707C339.582 189.95 309.469 172.605 302.506 179.966C295.543 187.327 314.368 216.606 344.552 245.363C374.737 274.12 404.85 291.464 411.813 284.103Z" fill="#FF7B7E" stroke="#69563B" stroke-width="1.5" stroke-miterlimit="10"/>
<path d="M387.514 203.53L370.406 187.411C367.262 184.448 367.52 179.284 370.95 176.446C375.05 173.884 382.594 172.838 388.346 174.088C392.973 175.096 395.811 179.719 394.806 184.452L390.768 203.478L387.51 203.53H387.514Z" fill="#FD8F64" stroke="#353535" stroke-width="1.5" stroke-miterlimit="10"/>
<path d="M386.014 200.678L371.655 186.744C369.096 184.331 369.302 180.123 372.099 177.81C375.504 174.996 380.541 176.66 381.466 180.906L386.014 200.678Z" fill="#FD553F" stroke="#353535" stroke-width="1.5" stroke-miterlimit="10"/>
<path d="M385.253 201.855L412.595 199.128C421.941 198.869 426.107 205.163 425.529 211.905C424.824 220.119 415.233 227.068 406.915 221.669L385.253 201.859V201.855Z" fill="#FD8F64" stroke="#353535" stroke-width="1.5" stroke-miterlimit="10"/>
<path d="M388.886 203.247L407.462 204.921C411.367 205.239 413.988 208.974 413.028 212.848C411.855 217.571 407.008 219.256 403.348 216.259L388.886 203.243V203.247Z" fill="#FD553F" stroke="#353535" stroke-width="1.5" stroke-miterlimit="10"/>
<path d="M392.395 197.436C392.395 197.436 384.748 199.315 383.22 200.26L390.881 207.942L396.076 200.992L392.395 197.44V197.436Z" fill="#FD8F64" stroke="#353535" stroke-width="1.5" stroke-miterlimit="10"/>
<path d="M337.361 304.421C335.923 300.841 335.55 297.637 336.519 297.268C337.489 296.899 339.44 299.497 340.875 303.081C342.31 306.665 342.686 309.865 341.713 310.232C340.743 310.601 338.792 308.003 337.357 304.419L337.361 304.421Z" fill="white" stroke="#3F3F3F" stroke-width="1.5" stroke-miterlimit="10"/>
<path d="M277.361 570.421C275.923 566.841 275.55 563.637 276.519 563.268C277.489 562.899 279.44 565.497 280.875 569.081C282.31 572.665 282.686 575.865 281.713 576.232C280.743 576.601 278.792 574.003 277.357 570.419L277.361 570.421Z" fill="white" stroke="#3F3F3F" stroke-width="1.5" stroke-miterlimit="10"/>
<path d="M39.361 552.421C37.9235 548.841 37.5502 545.637 38.5195 545.268C39.4887 544.899 41.4398 547.497 42.875 551.081C44.3103 554.665 44.6859 557.865 43.7125 558.232C42.7432 558.601 40.7922 556.003 39.3569 552.419L39.361 552.421Z" fill="white" stroke="#3F3F3F" stroke-width="1.5" stroke-miterlimit="10"/>
<path d="M394.48 487.405C397.643 504.645 388.51 525.653 369.6 528.867C369.41 528.897 369.227 528.926 369.036 528.952C362.49 529.901 356.152 527.998 352.683 522.706L352.917 522.549C361.888 522.918 366.183 516.118 368.663 509.809C371.144 503.491 370.809 496.411 369.151 489.86L382.282 497.907L394.476 487.401L394.48 487.405Z" fill="#FD8F64" stroke="#353535" stroke-width="1.5" stroke-miterlimit="10"/>
<path d="M359.997 460.321C361.697 468.25 360.255 476.526 358.012 484.344C355.765 492.162 352.717 499.773 351.11 507.735C350.19 512.302 349.8 517.254 351.924 521.392C352.161 521.85 352.416 522.291 352.687 522.706C356.155 528.002 362.494 529.906 369.04 528.952L369.053 529.028C359.068 532.208 346.323 533.611 336.724 528.604C335.952 528.201 335.198 527.752 334.481 527.264C325.874 521.417 322.126 509.635 324.17 499.692C326.54 488.194 335.804 480.134 337.801 468.402C338.674 463.293 337.627 456.73 334.736 452.418C331.844 448.102 326.489 444.655 318.959 446.546L318.815 446.266C323.407 443.972 328.333 442.382 333.459 441.695C337.347 441.174 341.367 441.178 345.094 442.369C345.25 442.416 345.403 442.471 345.556 442.522C353.145 445.163 358.33 452.554 359.992 460.321H359.997Z" fill="#FD8F64" stroke="#353535" stroke-width="1.5" stroke-miterlimit="10"/>
<path d="M269.743 464.2C276.404 451.65 289.06 441.025 302.653 436.858C316.399 432.639 333.642 434.602 345.632 442.331L345.56 442.526C345.408 442.471 345.255 442.416 345.098 442.374C341.371 441.182 337.352 441.182 333.464 441.7C328.334 442.382 323.411 443.972 318.82 446.27C309.683 450.815 301.839 458.133 296.221 466.626C287.775 479.4 283.892 494.596 282.285 509.707L269.747 464.2H269.743Z" fill="#FD8F64" stroke="#353535" stroke-width="1.5" stroke-miterlimit="10"/>
<path d="M95.8535 400.429C101.76 402.926 105.813 408.612 108.107 414.607C110.409 420.615 111.24 427.055 112.622 433.334C115.149 444.85 119.559 455.946 125.634 466.045C129.272 472.095 134.258 478.277 141.254 479.294L120.186 481.041C112.359 476.009 108.76 469.085 105.287 460.452C101.815 451.816 100.352 442.514 99.5295 433.245C99.0716 428.064 98.8045 422.845 97.63 417.783C96.4556 412.72 94.3145 407.743 90.6131 404.084C88.3744 401.875 83.0831 399.797 78.7075 401.268C84.2193 398.869 90.3926 398.114 95.8408 400.42C95.8493 400.412 95.8493 400.42 95.8578 400.429H95.8535Z" fill="#FD8F64" stroke="#353535" stroke-width="1.5" stroke-miterlimit="10"/>
<path d="M78.7034 401.264C76.7191 402.12 74.8282 403.189 73.0814 404.41C66.4968 409.014 61.4684 415.468 55.9014 421.263C47.4556 430.061 37.6064 437.498 26.8287 443.205C16.4198 448.712 5.0019 452.638 -6.7722 453.185C-18.5378 453.741 -30.6808 450.705 -40 443.497L-21.599 433.813L-33.9412 415.4C-23.4264 420.034 -11.7795 422.633 -1.31126 421.904C10.4798 421.081 16.5301 416.523 24.7893 410.668C31.0558 406.216 36.7245 400.823 43.6016 397.393C51.0722 393.662 61.4726 391.309 69.787 392.182C77.9233 393.034 88.6544 395.663 95.8367 400.42C90.3927 398.114 84.2152 398.868 78.7034 401.268V401.264Z" fill="#FD8F64" stroke="#353535" stroke-width="1.5" stroke-miterlimit="10"/>
<path d="M193.409 512.993C127.589 512.993 74.2302 499.849 74.2302 483.636V557.893C74.2302 574.106 127.589 587.25 193.409 587.25C259.228 587.25 312.587 574.106 312.587 557.893V483.636C312.587 499.849 259.228 512.993 193.409 512.993Z" fill="#FFBCC7" stroke="#69563B" stroke-width="1.5" stroke-miterlimit="10"/>
<path d="M193.409 523.503C259.229 523.503 312.587 507.251 312.587 487.202C312.587 467.153 259.229 450.9 193.409 450.9C127.588 450.9 74.2302 467.153 74.2302 487.202C74.2302 507.251 127.588 523.503 193.409 523.503Z" fill="#FFBCC7" stroke="#69563B" stroke-width="1.5" stroke-miterlimit="10"/>
<path d="M193.409 518.937C256.049 518.937 306.829 504.696 306.829 487.13C306.829 469.563 256.049 455.322 193.409 455.322C130.768 455.322 79.9883 469.563 79.9883 487.13C79.9883 504.696 130.768 518.937 193.409 518.937Z" fill="#FF7B7E" stroke="#69563B" stroke-width="1.5" stroke-miterlimit="10"/>
<mask id="mask1_75_252" style="mask-type:luminance" maskUnits="userSpaceOnUse" x="220" y="489" width="215" height="124">
<path d="M434.43 489.532H220V612.86H434.43V489.532Z" fill="white"/>
</mask>
<g mask="url(#mask1_75_252)">
<path d="M463.394 566.665C469.805 536.255 450.353 506.403 419.943 499.991C397.727 495.307 375.821 504.433 363.121 521.546C360.15 520.243 357.006 519.216 353.703 518.52C327.844 513.066 302.459 529.611 297.005 555.47C295.717 561.581 295.667 567.657 296.669 573.457C296.067 573.299 295.46 573.151 294.843 573.022C275.548 568.955 256.609 581.295 252.542 600.589C248.475 619.884 260.815 638.823 280.109 642.89L436.656 640.955C436.656 640.955 463.167 567.746 463.394 566.67V566.665Z" fill="#FFFFFC" stroke="#353535" stroke-width="1.5" stroke-miterlimit="10"/>
<path d="M375.5 559.908C361.843 557.03 348.442 565.702 345.446 579.301C343.2 578.013 340.717 577.045 338.042 576.477C324.31 573.58 310.83 582.366 307.933 596.098" fill="#FFFFFC"/>
<path d="M375.5 559.908C361.843 557.03 348.442 565.702 345.446 579.301C343.2 578.013 340.717 577.045 338.042 576.477C324.31 573.58 310.83 582.366 307.933 596.098" stroke="#353535" stroke-width="1.5" stroke-miterlimit="10"/>
</g>
<path d="M43.8167 455.907V464.657C43.8167 469.52 39.9706 473.46 35.224 473.46H28.9201C28.5462 473.46 28.2439 473.77 28.2439 474.153C28.2439 474.535 28.5462 474.845 28.9201 474.845H35.2273C39.9706 474.845 43.8199 478.785 43.8199 483.648V494.093C43.8199 494.459 44.1093 494.753 44.4636 494.753C44.8213 494.753 45.1073 494.456 45.1073 494.093V483.648C45.1073 478.785 48.9534 474.845 53.7 474.845H61.1125C61.4701 474.845 61.7562 474.548 61.7562 474.186V474.123C61.7562 473.757 61.4669 473.464 61.1125 473.464H53.7C48.9567 473.464 45.1073 469.524 45.1073 464.66V455.907C45.1073 455.541 44.818 455.247 44.4636 455.247C44.106 455.247 43.8199 455.544 43.8199 455.907H43.8167Z" fill="#FFF5FF" stroke="#353535" stroke-width="1.5" stroke-miterlimit="10"/>
<path d="M96.6298 234.657V241.001C96.6298 244.527 93.8018 247.384 90.3116 247.384H85.6764C85.4015 247.384 85.1792 247.608 85.1792 247.886C85.1792 248.163 85.4015 248.388 85.6764 248.388H90.314C93.8018 248.388 96.6322 251.244 96.6322 254.77V262.343C96.6322 262.608 96.8449 262.821 97.1055 262.821C97.3684 262.821 97.5788 262.606 97.5788 262.343V254.77C97.5788 251.244 100.407 248.388 103.897 248.388H109.347C109.61 248.388 109.821 248.173 109.821 247.91V247.864C109.821 247.599 109.608 247.386 109.347 247.386H103.897C100.409 247.386 97.5788 244.53 97.5788 241.004V234.657C97.5788 234.392 97.366 234.179 97.1055 234.179C96.8425 234.179 96.6322 234.394 96.6322 234.657H96.6298Z" fill="#FFF5FF" stroke="#353535" stroke-width="1.5" stroke-miterlimit="10"/>
<path d="M367.63 481.657V488.001C367.63 491.527 364.802 494.384 361.312 494.384H356.676C356.402 494.384 356.179 494.608 356.179 494.886C356.179 495.163 356.402 495.388 356.676 495.388H361.314C364.802 495.388 367.632 498.244 367.632 501.77V509.343C367.632 509.608 367.845 509.821 368.105 509.821C368.368 509.821 368.579 509.606 368.579 509.343V501.77C368.579 498.244 371.407 495.388 374.897 495.388H380.347C380.61 495.388 380.821 495.172 380.821 494.909V494.864C380.821 494.599 380.608 494.386 380.347 494.386H374.897C371.409 494.386 368.579 491.53 368.579 488.004V481.657C368.579 481.392 368.366 481.179 368.105 481.179C367.843 481.179 367.632 481.394 367.632 481.657H367.63Z" fill="#FFF5FF" stroke="#353535" stroke-width="1.5" stroke-miterlimit="10"/>
<path d="M344.842 399.608C343.082 399.48 341.488 400.373 340.648 401.782C340.022 400.262 338.578 399.145 336.823 399.012C334.341 398.831 332.191 400.676 332.009 403.133C331.693 407.37 339.808 413 339.808 413C339.808 413 348.672 408.625 348.988 404.387C349.17 401.931 347.313 399.788 344.842 399.608Z" fill="#FF646B" stroke="#69563B" stroke-width="1.5" stroke-miterlimit="10"/>
<path d="M60.5692 441.64C59.6439 442.57 59.3747 443.902 59.7621 445.059C58.6011 444.675 57.2712 444.948 56.3455 445.873C55.0401 447.186 55.0379 449.293 56.335 450.586C58.5717 452.819 65.6815 450.972 65.6815 450.972C65.6815 450.972 67.5115 443.851 65.2748 441.619C63.9777 440.325 61.8694 440.334 60.5692 441.64Z" fill="#FF646B" stroke="#69563B" stroke-width="1.5" stroke-miterlimit="10"/>
<path d="M58.5692 555.64C57.6439 556.57 57.3747 557.902 57.7621 559.059C56.6011 558.675 55.2712 558.948 54.3455 559.873C53.0401 561.186 53.0379 563.293 54.335 564.586C56.5717 566.819 63.6815 564.972 63.6815 564.972C63.6815 564.972 65.5115 557.851 63.2748 555.619C61.9777 554.325 59.8694 554.334 58.5692 555.64Z" fill="#FF646B" stroke="#69563B" stroke-width="1.5" stroke-miterlimit="10"/>
<path d="M18.5692 214.64C17.6439 215.57 17.3747 216.902 17.7621 218.059C16.6011 217.675 15.2712 217.948 14.3455 218.873C13.0401 220.186 13.0379 222.293 14.335 223.586C16.5717 225.819 23.6815 223.972 23.6815 223.972C23.6815 223.972 25.5115 216.851 23.2748 214.619C21.9777 213.325 19.8694 213.334 18.5692 214.64Z" fill="#FF646B" stroke="#69563B" stroke-width="1.5" stroke-miterlimit="10"/>
<path d="M372.109 290.057C369.117 291.198 366.195 290.897 365.588 289.379C364.98 287.864 366.915 285.708 369.913 284.565C372.905 283.424 375.827 283.725 376.433 285.244C377.04 286.763 375.107 288.915 372.109 290.057Z" fill="#AAECC7" stroke="#3F3F3F" stroke-width="1.5" stroke-miterlimit="10"/>
<path d="M89.2758 588.099C86.284 589.24 83.3616 588.939 82.7553 587.42C82.1467 585.906 84.0817 583.75 87.0799 582.607C90.0717 581.466 92.9941 581.767 93.6004 583.286C94.2067 584.805 92.2739 586.956 89.2758 588.099Z" fill="#AAECC7" stroke="#3F3F3F" stroke-width="1.5" stroke-miterlimit="10"/>
<path d="M41.276 279.099C38.2842 280.24 35.3618 279.939 34.7555 278.42C34.1469 276.906 36.082 274.75 39.0802 273.607C42.072 272.466 44.9944 272.767 45.6006 274.286C46.2069 275.805 44.2742 277.956 41.276 279.099Z" fill="#AAECC7" stroke="#3F3F3F" stroke-width="1.5" stroke-miterlimit="10"/>
<path d="M389.888 306.855C394.984 304.947 398.327 301.296 397.355 298.7C396.383 296.104 391.464 295.547 386.368 297.456C381.272 299.364 377.928 303.015 378.9 305.611C379.872 308.207 384.792 308.764 389.888 306.855Z" fill="#999AE6" stroke="#3F3F3F" stroke-width="1.5" stroke-miterlimit="10"/>
<path d="M119.959 627.132L70.9741 622.762L72.165 557.973L121.15 562.342L119.959 627.132Z" fill="#FF695A" stroke="#543737" stroke-width="1.5" stroke-miterlimit="10"/>
<path d="M107.949 626.06L58.9595 621.691L71.5322 557.915L120.521 562.285L107.949 626.06Z" fill="#FF9681" stroke="#543737" stroke-width="1.5" stroke-miterlimit="10"/>
<path d="M83.7993 564.95L84.8662 550.806C85.3045 544.966 90.3955 540.588 96.2348 541.031C102.074 541.469 106.452 546.56 106.01 552.399L104.943 566.544" stroke="black" stroke-miterlimit="10"/>
<path d="M84.5253 565.326C84.273 565.773 83.7019 565.933 83.2548 565.68C82.8076 565.428 82.6483 564.857 82.9006 564.41C83.1529 563.963 83.724 563.803 84.1711 564.056C84.6183 564.308 84.7776 564.879 84.5253 565.326Z" fill="black"/>
<path d="M105.775 567.035C105.523 567.482 104.952 567.642 104.505 567.389C104.057 567.137 103.898 566.566 104.15 566.119C104.403 565.672 104.974 565.512 105.421 565.764C105.868 566.017 106.027 566.588 105.775 567.035Z" fill="black"/>
<path d="M84.5253 565.326C84.273 565.773 83.7019 565.933 83.2548 565.68C82.8076 565.428 82.6483 564.857 82.9006 564.41C83.1529 563.963 83.724 563.803 84.1711 564.056C84.6183 564.308 84.7776 564.879 84.5253 565.326Z" fill="black"/>
<path d="M105.775 567.035C105.523 567.482 104.952 567.642 104.505 567.389C104.057 567.137 103.898 566.566 104.15 566.119C104.403 565.672 104.974 565.512 105.421 565.764C105.868 566.017 106.027 566.588 105.775 567.035Z" fill="black"/>
<path opacity="0.59" d="M73.5199 595.067C76.7497 595.067 79.368 593.58 79.368 591.747C79.368 589.913 76.7497 588.426 73.5199 588.426C70.2901 588.426 67.6719 589.913 67.6719 591.747C67.6719 593.58 70.2901 595.067 73.5199 595.067Z" fill="#FFD5D9"/>
<path opacity="0.59" d="M105.35 595.067C108.58 595.067 111.198 593.58 111.198 591.747C111.198 589.913 108.58 588.426 105.35 588.426C102.12 588.426 99.502 589.913 99.502 591.747C99.502 593.58 102.12 595.067 105.35 595.067Z" fill="#FFD5D9"/>
<path d="M80.7802 588.674C82.1968 588.302 83.7419 588.953 84.2997 590.215C85.1142 592.074 87.0311 593.455 89.3464 593.619C91.6618 593.783 93.7513 592.689 94.8226 590.963C95.5487 589.79 97.1734 589.365 98.5236 589.931C99.8252 590.48 100.507 591.826 100.091 593.07C98.6387 597.417 94.0656 600.401 88.886 600.034C83.7064 599.666 79.6026 596.063 78.7792 591.556C78.5446 590.263 79.4122 589.028 80.7758 588.67L80.7802 588.674Z" fill="#FF7957" stroke="#3F3F3F" stroke-width="1.5" stroke-miterlimit="10"/>
<path d="M80.7802 588.674C82.1968 588.302 83.7419 588.953 84.2997 590.215C85.1142 592.074 87.0311 593.455 89.3464 593.619C91.6618 593.783 93.7513 592.689 94.8226 590.963C95.5487 589.79 97.1734 589.365 98.5236 589.931C99.8252 590.48 100.507 591.826 100.091 593.07C98.6387 597.417 94.0656 600.401 88.886 600.034C83.7064 599.666 79.6026 596.063 78.7792 591.556C78.5446 590.263 79.4122 589.028 80.7758 588.67L80.7802 588.674Z" fill="#FF7957" stroke="#3F3F3F" stroke-width="1.5" stroke-miterlimit="10"/>
<path d="M91.5468 593.508V593.393C90.8518 593.592 90.1125 593.677 89.3422 593.623C88.4036 593.557 87.5359 593.287 86.7745 592.871L86.7435 593.167L86.562 595.735L91.3609 596.076L91.5424 593.508H91.5468Z" fill="white" stroke="#3F3F3F" stroke-width="1.5" stroke-miterlimit="10"/>
<path d="M89.0722 593.73L88.9172 595.895" stroke="#3F3F3F" stroke-width="1.5" stroke-miterlimit="10"/>
<path d="M81.9978 578.607C79.9481 579.537 79.0892 581.865 80.0765 583.809C81.0681 585.752 83.5339 586.576 85.5836 585.646C87.6333 584.716 88.4922 582.388 87.505 580.444C86.5133 578.501 84.0475 577.678 81.9978 578.607Z" fill="white" stroke="#3F3F3F" stroke-width="1.5" stroke-linecap="round" stroke-linejoin="round"/>
<path d="M86.6594 579.338C86.8232 580.922 85.9555 582.498 84.3529 583.225C82.7503 583.951 80.8999 583.601 79.6913 582.49C79.5275 580.905 80.3952 579.329 81.9978 578.603C83.6003 577.877 85.4508 578.226 86.6594 579.338Z" fill="#080606" stroke="#3F3F3F" stroke-width="1.5" stroke-linecap="round" stroke-linejoin="round"/>
<path d="M85.3489 576.146C84.645 576.739 84.5874 577.775 85.2293 578.465" stroke="#3F3F3F" stroke-width="1.5" stroke-linecap="round" stroke-linejoin="round"/>
<path d="M82.9096 575.964C82.2058 576.557 82.1482 577.593 82.7901 578.284" stroke="#3F3F3F" stroke-width="1.5" stroke-linecap="round" stroke-linejoin="round"/>
<path d="M93.5478 581.6C91.4981 582.529 90.6393 584.858 91.6265 586.802C92.6182 588.745 95.084 589.568 97.1337 588.639C99.1834 587.709 100.042 585.38 99.055 583.437C98.0634 581.494 95.5975 580.67 93.5478 581.6Z" fill="white" stroke="#3F3F3F" stroke-width="1.5" stroke-linecap="round" stroke-linejoin="round"/>
<path d="M98.205 582.335C98.3688 583.92 97.5012 585.496 95.8986 586.222C94.296 586.948 92.4455 586.598 91.2369 585.487C91.0731 583.902 91.9408 582.326 93.5434 581.6C95.146 580.874 96.9965 581.224 98.205 582.335Z" fill="#080606" stroke="#3F3F3F" stroke-width="1.5" stroke-linecap="round" stroke-linejoin="round"/>
<path d="M96.8989 579.138C96.195 579.732 96.1375 580.768 96.7794 581.458" stroke="#3F3F3F" stroke-width="1.5" stroke-linecap="round" stroke-linejoin="round"/>
<path d="M94.4553 578.961C93.7514 579.555 93.6938 580.59 94.3358 581.281" stroke="#3F3F3F" stroke-width="1.5" stroke-linecap="round" stroke-linejoin="round"/>
<path d="M86.4556 586.629C86.3715 587.674 87.1949 588.59 88.2928 588.674C89.3907 588.763 90.3514 587.988 90.4355 586.943C90.5196 585.898 89.6962 584.982 88.5983 584.898C87.5004 584.809 86.5397 585.584 86.4556 586.629Z" fill="#EDB9DE" stroke="#3F3F3F" stroke-width="1.5" stroke-miterlimit="10"/>
<path d="M66.7944 613.071L18.3148 626L14.6128 590.219L64.8408 576.102L66.7944 613.071Z" fill="#FFB1E0" stroke="#543737" stroke-width="1.5" stroke-miterlimit="10"/>
<path d="M-11.721 608.97L18.3468 625.998L14.6491 590.217L-15.4187 573.19L-11.721 608.97Z" fill="#FFB1E0" stroke="#543737" stroke-width="1.5" stroke-miterlimit="10"/>
<path d="M-15.8262 573.021L29.2572 558.341L64.7081 576.214L14.6801 590.305L-15.8262 573.021Z" fill="#FFB1E0" stroke="#543737" stroke-width="1.5" stroke-miterlimit="10"/>
<path d="M21.9982 572.844L16.1411 575.098C14.8277 575.65 13.3089 575.343 12.3148 574.319C10.9747 572.946 11.0013 570.751 12.375 569.411C13.3941 568.416 14.919 568.145 16.2204 568.727L21.9991 572.84L21.9982 572.844Z" stroke="#ED4C34" stroke-width="2" stroke-miterlimit="10"/>
<path d="M21.9586 572.945L27.8348 568.974C29.1482 568.423 30.667 568.73 31.6611 569.753C33.0012 571.127 32.9746 573.322 31.6009 574.662C30.5818 575.657 29.0569 575.928 27.7555 575.346L21.9534 572.948L21.9586 572.945Z" stroke="#ED4C34" stroke-width="2" stroke-miterlimit="10"/>
<path d="M21.777 573.01L14.2976 584.759" stroke="#ED4C34" stroke-width="2" stroke-miterlimit="10"/>
<path d="M21.7507 573.027L26.8214 581.416" stroke="#ED4C34" stroke-width="2" stroke-miterlimit="10"/>
<path d="M8.69092 565.199L40.5864 583.564L43.0136 619.548" stroke="#ED4C34" stroke-width="2" stroke-miterlimit="10"/>
<path d="M2.00995 616.793L-0.906059 581.569L44.2972 565.928" stroke="#ED4C34" stroke-width="2" stroke-miterlimit="10"/>
<path d="M21.9982 572.844L16.1411 575.098C14.8277 575.65 13.3089 575.343 12.3148 574.319C10.9747 572.946 11.0013 570.751 12.375 569.411C13.3941 568.416 14.919 568.145 16.2204 568.727L21.9991 572.84L21.9982 572.844Z" stroke="#ED4C34" stroke-width="2" stroke-miterlimit="10"/>
<path d="M21.9586 572.945L27.8348 568.974C29.1482 568.423 30.667 568.73 31.6611 569.753C33.0012 571.127 32.9746 573.322 31.6009 574.662C30.5818 575.657 29.0569 575.928 27.7555 575.346L21.9534 572.948L21.9586 572.945Z" stroke="#ED4C34" stroke-width="2" stroke-miterlimit="10"/>
<path d="M8.69092 565.199L40.5864 583.564L43.0136 619.548" stroke="#ED4C34" stroke-width="2" stroke-miterlimit="10"/>
<path d="M2.00995 616.793L-0.906059 581.569L44.2972 565.928" stroke="#ED4C34" stroke-width="2" stroke-miterlimit="10"/>
<path opacity="0.5" d="M21.4032 607.062C21.6692 609.012 24.6727 610.208 28.102 609.734C31.5313 609.26 34.0979 607.297 33.831 605.352C33.565 603.402 30.5615 602.206 27.1322 602.68C23.6986 603.153 21.1363 605.117 21.4032 607.062Z" fill="#FF88A2"/>
<path opacity="0.5" d="M48.7961 601.984C49.0621 603.934 52.0656 605.129 55.4949 604.655C58.9285 604.182 61.4907 602.218 61.2239 600.273C60.9579 598.324 57.9543 597.128 54.5251 597.602C51.0958 598.076 48.5292 600.039 48.7961 601.984Z" fill="#FF88A2"/>
<path d="M30.8477 594.277C28.2378 595.279 26.9943 598.083 28.0722 600.532C29.1501 602.981 32.141 604.152 34.7552 603.15C37.3651 602.147 38.6086 599.344 37.5307 596.895C36.4528 594.445 33.4619 593.275 30.8477 594.277Z" fill="white" stroke="#69563B" stroke-width="1.5" stroke-linecap="round" stroke-linejoin="round"/>
<path d="M35.1865 591.48C34.2664 592.161 34.1214 593.43 34.8586 594.321" stroke="#69563B" stroke-width="1.5" stroke-linecap="round" stroke-linejoin="round"/>
<path d="M32.1763 591.098C31.2561 591.779 31.1112 593.047 31.8483 593.939" stroke="#69563B" stroke-width="1.5" stroke-linecap="round" stroke-linejoin="round"/>
<path d="M32.0675 593.972C31.4061 594.65 30.946 595.529 30.8125 596.533C30.4808 599.011 32.2377 601.27 34.7385 601.58C35.594 601.686 36.4261 601.543 37.165 601.222C37.9872 599.962 38.1791 598.369 37.5307 596.895C36.617 594.82 34.3326 593.669 32.0718 593.973L32.0675 593.972Z" fill="#010101" stroke="#69563B" stroke-width="1.5" stroke-miterlimit="10"/>
<path d="M32.5758 599.333C32.3975 599.933 31.7614 600.281 31.156 600.106C30.5506 599.931 30.2049 599.305 30.3877 598.706C30.5704 598.106 31.202 597.757 31.8075 597.932C32.4129 598.107 32.7586 598.734 32.5758 599.333Z" fill="white"/>
<path d="M46.0772 591.07C43.4673 592.073 42.2238 594.876 43.3017 597.325C44.3796 599.775 47.3705 600.945 49.9847 599.943C52.5946 598.941 53.8381 596.137 52.7602 593.688C51.6823 591.238 48.6914 590.068 46.0772 591.07Z" fill="white" stroke="#69563B" stroke-width="1.5" stroke-linecap="round" stroke-linejoin="round"/>
<path d="M50.4173 588.269C49.4971 588.95 49.3521 590.219 50.0893 591.11" stroke="#69563B" stroke-width="1.5" stroke-linecap="round" stroke-linejoin="round"/>
<path d="M47.4058 587.891C46.4856 588.572 46.3407 589.841 47.0778 590.732" stroke="#69563B" stroke-width="1.5" stroke-linecap="round" stroke-linejoin="round"/>
<path d="M47.2972 590.765C46.6358 591.443 46.1758 592.322 46.0422 593.326C45.7105 595.804 47.4674 598.064 49.9682 598.373C50.8238 598.48 51.6558 598.336 52.3948 598.015C53.2169 596.756 53.4089 595.162 52.7604 593.688C51.8467 591.613 49.5623 590.463 47.3015 590.766L47.2972 590.765Z" fill="#010101" stroke="#69563B" stroke-width="1.5" stroke-miterlimit="10"/>
<path d="M47.8056 596.126C47.6272 596.726 46.9912 597.074 46.3858 596.899C45.7804 596.724 45.4347 596.098 45.6174 595.499C45.7958 594.899 46.4318 594.55 47.0372 594.725C47.6426 594.9 47.9883 595.527 47.8056 596.126Z" fill="white"/>
<path d="M40.5688 598.754C40.4228 599.774 41.1801 600.719 42.2678 600.862C43.3547 601.008 44.3534 600.299 44.5002 599.275C44.6461 598.256 43.8889 597.311 42.8011 597.168C41.7134 597.026 40.7156 597.731 40.5688 598.754Z" fill="#F5B4D2" stroke="#69563B" stroke-width="1.5" stroke-miterlimit="10"/>
<path d="M37.1702 607.538L37.211 607.411C38.2122 606.711 39.8527 606.366 41.2302 606.72C42.3421 607.003 43.4073 608.54 43.3492 608.6L43.3634 608.702C42.451 608.883 41.5221 608.928 40.6737 608.81C39.4682 608.647 38.2824 608.18 37.1711 607.534L37.1702 607.538Z" fill="#FF5E6A" stroke="#69563B" stroke-width="1.5" stroke-miterlimit="10"/>
<path d="M46.7337 607.192C45.1671 608.482 42.6824 609.091 40.6726 608.814C37.7866 608.422 34.9902 606.302 33.1285 604.087L33.121 604.059C35.5625 605.406 38.4547 605.917 41.213 605.489C43.967 605.06 46.7627 603.55 48.1364 601.449" stroke="#69563B" stroke-width="1.5" stroke-miterlimit="10"/>
</g>
<g clip-path="url(#clip1_75_252)">
<path d="M67.4135 290.482C61.6498 294.595 59.1652 301.699 60.3724 308.623C54.2543 305.204 46.7537 305.223 40.99 309.337C32.7962 315.185 31.219 327.077 37.4656 335.9C49.3046 352.622 88.1356 347.842 88.1356 347.842C88.1356 347.842 105.399 312.596 93.5566 295.874C87.3139 287.051 75.6073 284.637 67.4135 290.482Z" fill="#FD5931" stroke="#3F3F3F" stroke-width="1.5" stroke-miterlimit="10"/>
<path d="M63.9357 290.747C58.1875 294.88 55.7302 301.995 56.9608 308.916C50.831 305.52 43.3304 305.566 37.5823 309.703C29.4119 315.575 27.8775 327.474 34.1591 336.274C46.0604 352.953 84.8758 348.025 84.8758 348.025C84.8758 348.025 102.003 312.713 90.1021 296.038C83.8204 287.238 72.1061 284.867 63.9357 290.747Z" fill="#FD5931" stroke="#3F3F3F" stroke-width="1.5" stroke-miterlimit="10"/>
<path d="M64.7069 323.677L62.5533 328.695C62.0977 329.849 60.9839 330.605 59.7494 330.605C58.0826 330.605 56.7351 329.252 56.7351 327.583C56.7351 326.344 57.4906 325.232 58.6434 324.776L64.7108 323.681L64.7069 323.677Z" stroke="#FFFFDD" stroke-width="2" stroke-miterlimit="10"/>
<path d="M64.7458 323.763L65.8441 317.688C66.2997 316.534 67.4135 315.778 68.648 315.778C70.3148 315.778 71.6623 317.131 71.6623 318.799C71.6623 320.039 70.9068 321.15 69.754 321.606L64.7419 323.759L64.7458 323.763Z" stroke="#FFFFDD" stroke-width="2" stroke-miterlimit="10"/>
<path d="M64.5082 323.279L59.3559 321.486C58.1759 321.115 57.3425 320.059 57.2529 318.819C57.1322 317.154 58.3862 315.711 60.0452 315.59C61.2797 315.501 62.4441 316.179 62.9777 317.294L64.5043 323.275L64.5082 323.279Z" stroke="#FFFFDD" stroke-width="2" stroke-miterlimit="10"/>
<path d="M64.4263 323.326L70.556 323.989C71.736 324.359 72.5694 325.416 72.659 326.656C72.7797 328.32 71.5257 329.763 69.8667 329.884C68.6322 329.973 67.4678 329.295 66.9343 328.18L64.4302 323.33L64.4263 323.326Z" stroke="#FFFFDD" stroke-width="2" stroke-miterlimit="10"/>
<path d="M61.7122 348.064L69.7891 288.22" stroke="#FFFFDD" stroke-width="2" stroke-miterlimit="10"/>
<path d="M30.1597 322.956L92.688 323.954L96.5318 322.406" stroke="#FFFFDD" stroke-width="2" stroke-miterlimit="10"/>
<path d="M65.0574 323.681L80.4324 318.133" stroke="#FFFFDD" stroke-width="2" stroke-miterlimit="10"/>
<path d="M68.2391 336.352L64.9951 323.657" stroke="#FFFFDD" stroke-width="2" stroke-miterlimit="10"/>
</g>
</g>
<defs>
<clipPath id="clip0_75_252">
<rect width="390" height="1880" fill="white" transform="translate(0 -1025)"/>
</clipPath>
<clipPath id="clip1_75_252">
<rect width="68" height="62" fill="white" transform="translate(30 287)"/>
</clipPath>
</defs>
</svg>
