<svg width="23" height="20" viewBox="0 0 23 20" fill="none" xmlns="http://www.w3.org/2000/svg">
<path d="M20.2671 9.04719L20.4837 8.75603C20.6331 8.55557 20.7314 8.32174 20.77 8.07477C20.8087 7.82779 20.7867 7.57512 20.7058 7.33859C20.6249 7.10206 20.4876 6.88878 20.3058 6.71723C20.124 6.54567 19.9031 6.42098 19.6623 6.35395L14.5947 4.94321L11.5548 0.650309C11.4106 0.446148 11.2188 0.280236 10.9959 0.166947C10.7731 0.0536575 10.526 -0.00358223 10.2761 0.000173595C10.0262 0.00392942 9.78093 0.0685715 9.56162 0.188505C9.34231 0.308438 9.15556 0.480041 9.01754 0.688443L6.10939 5.07319L1.0834 6.63298C0.844337 6.70685 0.626924 6.83797 0.450033 7.01493C0.273141 7.1919 0.142117 7.40936 0.0683407 7.64845C-0.00543554 7.88754 -0.0197327 8.14102 0.0266845 8.38689C0.0731017 8.63276 0.178829 8.86359 0.334695 9.05932L3.61026 13.1754L3.54613 18.4371C3.54315 18.6409 3.5807 18.8432 3.65662 19.0323C3.73254 19.2215 3.8453 19.3936 3.98835 19.5387C4.13139 19.6839 4.30187 19.7991 4.48986 19.8778C4.67785 19.9565 4.87961 19.997 5.0834 19.9969C5.26728 19.9972 5.44975 19.9649 5.62239 19.9016L10.5513 18.0628L15.534 19.7612C15.7059 19.8125 15.8909 19.7951 16.0503 19.7128C16.2096 19.6305 16.3308 19.4896 16.3885 19.3197C16.4462 19.1499 16.4358 18.9643 16.3595 18.802C16.2832 18.6397 16.147 18.5133 15.9794 18.4493L10.7628 16.6832C10.6126 16.6298 10.4485 16.6298 10.2983 16.6832L5.13713 18.607C5.11405 18.6154 5.0893 18.618 5.06497 18.6148C5.04065 18.6115 5.01746 18.6025 4.99738 18.5884C4.97731 18.5742 4.96094 18.5555 4.94967 18.5337C4.93839 18.5119 4.93254 18.4877 4.93261 18.4631L5.00021 12.9553C5.00146 12.7957 4.94828 12.6405 4.84943 12.5151L1.42482 8.20144C1.40932 8.182 1.39881 8.15907 1.39419 8.13464C1.38958 8.11021 1.39101 8.08503 1.39836 8.06128C1.4057 8.03753 1.41875 8.01593 1.43635 7.99837C1.45395 7.98081 1.47557 7.96782 1.49934 7.96053L6.75757 6.32448C6.90895 6.27561 7.03955 6.17736 7.12846 6.04546L10.1718 1.45621C10.1852 1.43524 10.2037 1.41794 10.2255 1.40584C10.2472 1.39375 10.2717 1.38723 10.2966 1.38688C10.3214 1.38589 10.346 1.39127 10.3682 1.40249C10.3903 1.41371 10.4092 1.43041 10.4231 1.451L13.6051 5.94667C13.6972 6.07659 13.8312 6.17085 13.9846 6.21357L19.2914 7.69017C19.3155 7.69589 19.3376 7.70788 19.3556 7.72493C19.3735 7.74197 19.3866 7.76347 19.3936 7.78722C19.4024 7.81045 19.4051 7.83555 19.4015 7.86013C19.3978 7.8847 19.388 7.90792 19.3728 7.9276L18.9742 8.4614C17.7787 8.11662 16.4969 8.23726 15.3867 8.79907C14.2765 9.36088 13.4201 10.3222 12.9899 11.4897C12.5596 12.6572 12.5873 13.9443 13.0674 15.0922C13.5475 16.2402 14.4445 17.1637 15.5778 17.6772C16.7112 18.1907 17.997 18.2561 19.1766 17.8602C20.3562 17.4643 21.3421 16.6364 21.9362 15.5431C22.5302 14.4498 22.6883 13.1722 22.3787 11.967C22.0691 10.7619 21.3146 9.7187 20.2671 9.04719ZM17.6224 16.7058C16.9254 16.7058 16.2441 16.4992 15.6645 16.112C15.0849 15.7249 14.6331 15.1747 14.3661 14.5308C14.0991 13.887 14.029 13.1785 14.1646 12.4948C14.3002 11.8112 14.6354 11.183 15.1279 10.6898C15.6204 10.1966 16.248 9.86048 16.9315 9.72388C17.615 9.58727 18.3236 9.65634 18.9678 9.92235C19.612 10.1884 20.1629 10.6394 20.5509 11.2184C20.9389 11.7974 21.1465 12.4785 21.1475 13.1754C21.148 13.6387 21.0571 14.0976 20.8802 14.5258C20.7033 14.954 20.4437 15.3431 20.1164 15.6709C19.789 15.9988 19.4003 16.2589 18.9723 16.4365C18.5444 16.614 18.0857 16.7055 17.6224 16.7058Z" fill="#222222"/>
<path d="M18.2115 11.0663H17.0347V12.5931H15.5078V13.7699H17.0347V15.2968H18.2115V13.7699H19.7383V12.5931H18.2115V11.0663Z" fill="#FF0097"/>
</svg>
