<svg width="36" height="36" viewBox="0 0 36 36" fill="none" xmlns="http://www.w3.org/2000/svg">
<rect width="36" height="36" rx="18" fill="url(#paint0_linear_21_482)"/>
<path d="M9 21.5031C9 19.2677 9 17.0359 9 14.8005C9.01087 14.7534 9.03261 14.7027 9.03623 14.6556C9.05072 14.4346 9.06521 14.2136 9.07246 13.9926C9.09782 13.373 9.2355 12.7752 9.44926 12.1955C9.75722 11.3622 10.2753 10.6847 10.9673 10.1449C11.7753 9.51447 12.7245 9.22101 13.7281 9.11956C14.3585 9.05797 14.9961 9.06159 15.6338 9.03985C15.8584 9.03261 16.0794 9.03985 16.3041 9.03623C16.3584 9.03623 16.4128 9.01449 16.4671 9C17.5794 9 18.688 9 19.8003 9C19.8365 9.01087 19.8728 9.03623 19.909 9.03623C20.514 9.05072 21.1227 9.05072 21.7278 9.07608C22.1372 9.0942 22.5466 9.13768 22.956 9.18478C23.532 9.24999 24.0755 9.43477 24.5863 9.69925C25.1334 9.97822 25.6117 10.3586 26.0102 10.8405C26.3689 11.2716 26.637 11.7426 26.829 12.2644C27.1261 13.0578 27.2203 13.8875 27.2275 14.728C27.2275 14.8005 27.2493 14.873 27.2638 14.9454C27.2638 17.0939 27.2638 19.246 27.2638 21.3944C27.2529 21.4198 27.2312 21.4415 27.2275 21.4669C27.213 21.735 27.2094 22.0067 27.1877 22.2748C27.1587 22.6009 27.1442 22.9306 27.0717 23.2458C26.8363 24.282 26.3942 25.2059 25.5791 25.9269C25.0899 26.358 24.5501 26.6841 23.9414 26.8978C23.1407 27.1768 22.3111 27.2638 21.4669 27.2638C21.3944 27.2638 21.322 27.2855 21.2495 27.3C19.1735 27.3 17.0939 27.3 15.0179 27.3C14.9816 27.2891 14.9454 27.2674 14.9092 27.2638C14.3983 27.2239 13.8839 27.2022 13.373 27.1515C12.8368 27.0935 12.3223 26.9304 11.8332 26.7022C11.2354 26.4232 10.7209 26.0283 10.2826 25.5283C9.95648 25.1552 9.70287 24.7421 9.5181 24.2929C9.16666 23.4559 9.03261 22.5719 9.03623 21.6662C9.03623 21.6118 9.01087 21.5575 9 21.5031ZM21.1952 25.6334C21.1952 25.6262 21.1952 25.6225 21.1952 25.6153C21.5756 25.5863 21.956 25.5537 22.3401 25.5247C22.898 25.4812 23.4233 25.3327 23.9088 25.0573C24.445 24.7566 24.8436 24.3219 25.1189 23.7784C25.3617 23.2929 25.4704 22.7603 25.5175 22.2241C25.5646 21.6915 25.5935 21.1589 25.5899 20.6264C25.5863 18.8366 25.5682 17.0432 25.5573 15.2534C25.5537 14.6483 25.532 14.0469 25.416 13.4527C25.2856 12.797 25.0175 12.2136 24.5465 11.739C24.1298 11.3187 23.619 11.0688 23.0538 10.9166C22.3618 10.7282 21.6481 10.7173 20.9416 10.7101C18.9561 10.6956 16.9743 10.7282 14.9889 10.7354C14.4382 10.7354 13.8911 10.7644 13.3513 10.884C12.5433 11.0651 11.8622 11.4492 11.3767 12.1448C10.9746 12.7209 10.797 13.3766 10.7463 14.0614C10.692 14.7679 10.6811 15.4744 10.6702 16.1845C10.6594 16.8439 10.6594 17.4997 10.6702 18.1591C10.6883 19.4597 10.7137 20.7568 10.7427 22.0575C10.7536 22.619 10.8731 23.1589 11.0977 23.677C11.3876 24.34 11.8695 24.8218 12.4962 25.1479C12.989 25.4051 13.5324 25.5138 14.0831 25.5573C14.6628 25.6008 15.2461 25.6298 15.8258 25.6298C17.612 25.6406 19.4018 25.6334 21.1952 25.6334Z" fill="white"/>
<path fill-rule="evenodd" clip-rule="evenodd" d="M14 17.942C13.9909 15.7848 15.7482 13.9095 18.1144 14.0034C20.117 14.0822 21.9227 15.7243 21.8712 18.0389C21.8227 20.1325 20.1564 21.8958 17.875 21.8715C15.7512 21.8473 14.0122 20.1506 14 17.942ZM20.4533 17.9359C20.4745 16.5302 19.3111 15.391 17.9326 15.4031C16.4965 15.4152 15.4088 16.5211 15.4058 17.9359C15.4028 19.3023 16.4662 20.3779 17.7932 20.4536C19.3111 20.5445 20.4987 19.266 20.4533 17.9359Z" fill="white"/>
<path fill-rule="evenodd" clip-rule="evenodd" d="M21.5857 13.487C21.5281 13.0174 22.0189 12.5296 22.5461 12.5538C22.9884 12.5751 23.452 12.975 23.4398 13.5143C23.4277 13.9687 23.0187 14.4292 22.4885 14.4171C22.031 14.408 21.5432 14.0051 21.5857 13.487Z" fill="white"/>
<defs>
<linearGradient id="paint0_linear_21_482" x1="9.6" y1="3" x2="21" y2="34.8" gradientUnits="userSpaceOnUse">
<stop stop-color="#6F41E5"/>
<stop offset="0.494792" stop-color="#EC3187"/>
<stop offset="1" stop-color="#EEBA45"/>
</linearGradient>
</defs>
</svg>
