<svg width="22" height="22" viewBox="0 0 22 22" fill="none" xmlns="http://www.w3.org/2000/svg">
<mask id="mask0_116_229" style="mask-type:alpha" maskUnits="userSpaceOnUse" x="0" y="0" width="22" height="22">
<path fill-rule="evenodd" clip-rule="evenodd" d="M3.25 7.51464C3.25 3.45264 6.77146 0.25 11 0.25C15.2285 0.25 18.75 3.45264 18.75 7.51464C18.75 11.3258 16.3871 15.8 12.5748 17.4292C11.574 17.8569 10.426 17.8569 9.42521 17.4292C5.61289 15.8 3.25 11.3258 3.25 7.51464ZM11 1.75C7.49655 1.75 4.75 4.38076 4.75 7.51464C4.75 10.843 6.85543 14.6998 10.0147 16.0499C10.639 16.3167 11.361 16.3167 11.9853 16.0499C15.1446 14.6998 17.25 10.843 17.25 7.51464C17.25 4.38076 14.5034 1.75 11 1.75ZM11 6.75C10.3096 6.75 9.75 7.30964 9.75 8C9.75 8.69036 10.3096 9.25 11 9.25C11.6904 9.25 12.25 8.69036 12.25 8C12.25 7.30964 11.6904 6.75 11 6.75ZM8.25 8C8.25 6.48122 9.48122 5.25 11 5.25C12.5188 5.25 13.75 6.48122 13.75 8C13.75 9.51878 12.5188 10.75 11 10.75C9.48122 10.75 8.25 9.51878 8.25 8ZM2.59541 13.9966C2.87344 14.3036 2.84992 14.7779 2.54288 15.0559C1.97519 15.57 1.75 16.0621 1.75 16.5C1.75 17.2637 2.47401 18.2048 4.23671 18.998C5.929 19.7596 8.31952 20.25 11 20.25C13.6805 20.25 16.071 19.7596 17.7633 18.998C19.526 18.2048 20.25 17.2637 20.25 16.5C20.25 16.0621 20.0248 15.57 19.4571 15.0559C19.1501 14.7779 19.1266 14.3036 19.4046 13.9966C19.6826 13.6895 20.1569 13.666 20.4639 13.9441C21.227 14.635 21.75 15.5011 21.75 16.5C21.75 18.2216 20.2354 19.5305 18.3788 20.3659C16.4518 21.2331 13.8424 21.75 11 21.75C8.15764 21.75 5.54815 21.2331 3.62116 20.3659C1.76457 19.5305 0.25 18.2216 0.25 16.5C0.25 15.5011 0.773048 14.635 1.53605 13.9441C1.84309 13.666 2.31738 13.6895 2.59541 13.9966Z" fill="#1C274C"/>
</mask>
<g mask="url(#mask0_116_229)">
<rect x="-2" y="-1" width="28" height="25" fill="#383838"/>
<rect x="8" y="4" width="6" height="8" fill="#685DFF"/>
</g>
</svg>
