<svg width="30" height="30" viewBox="0 0 30 30" fill="none" xmlns="http://www.w3.org/2000/svg">
<path d="M20 17C20.5523 17 21 16.5523 21 16C21 15.4477 20.5523 15 20 15C19.4477 15 19 15.4477 19 16C19 16.5523 19.4477 17 20 17Z" fill="white"/>
<path d="M20 21C20.5523 21 21 20.5523 21 20C21 19.4477 20.5523 19 20 19C19.4477 19 19 19.4477 19 20C19 20.5523 19.4477 21 20 21Z" fill="white"/>
<path d="M16 16C16 16.5523 15.5523 17 15 17C14.4477 17 14 16.5523 14 16C14 15.4477 14.4477 15 15 15C15.5523 15 16 15.4477 16 16Z" fill="white"/>
<path d="M16 20C16 20.5523 15.5523 21 15 21C14.4477 21 14 20.5523 14 20C14 19.4477 14.4477 19 15 19C15.5523 19 16 19.4477 16 20Z" fill="white"/>
<path d="M10 17C10.5523 17 11 16.5523 11 16C11 15.4477 10.5523 15 10 15C9.44772 15 9 15.4477 9 16C9 16.5523 9.44772 17 10 17Z" fill="white"/>
<path d="M10 21C10.5523 21 11 20.5523 11 20C11 19.4477 10.5523 19 10 19C9.44772 19 9 19.4477 9 20C9 20.5523 9.44772 21 10 21Z" fill="white"/>
<path fill-rule="evenodd" clip-rule="evenodd" d="M10 4.75C10.4142 4.75 10.75 5.08579 10.75 5.5V6.26272C11.412 6.24999 12.1413 6.24999 12.9435 6.25H17.0564C17.8586 6.24999 18.588 6.24999 19.25 6.26272V5.5C19.25 5.08579 19.5858 4.75 20 4.75C20.4142 4.75 20.75 5.08579 20.75 5.5V6.32709C21.0099 6.34691 21.2561 6.37182 21.489 6.40313C22.6614 6.56076 23.6104 6.89288 24.3588 7.64124C25.1071 8.38961 25.4392 9.33855 25.5969 10.511C25.75 11.6502 25.75 13.1058 25.75 14.9435V17.0564C25.75 18.8941 25.75 20.3498 25.5969 21.489C25.4392 22.6614 25.1071 23.6104 24.3588 24.3588C23.6104 25.1071 22.6614 25.4392 21.489 25.5969C20.3498 25.75 18.8942 25.75 17.0565 25.75H12.9436C11.1058 25.75 9.65018 25.75 8.51098 25.5969C7.33856 25.4392 6.38961 25.1071 5.64124 24.3588C4.89288 23.6104 4.56076 22.6614 4.40314 21.489C4.24997 20.3498 4.24998 18.8942 4.25 17.0564V14.9436C4.24998 13.1058 4.24997 11.6502 4.40314 10.511C4.56076 9.33855 4.89288 8.38961 5.64124 7.64124C6.38961 6.89288 7.33856 6.56076 8.51098 6.40313C8.7439 6.37182 8.99006 6.34691 9.25 6.32709V5.5C9.25 5.08579 9.58579 4.75 10 4.75ZM8.71085 7.88976C7.70476 8.02502 7.12511 8.27869 6.7019 8.7019C6.27869 9.12511 6.02502 9.70476 5.88976 10.7108C5.86685 10.8812 5.8477 11.0606 5.83168 11.25H24.1683C24.1523 11.0606 24.1331 10.8812 24.1102 10.7108C23.975 9.70476 23.7213 9.12511 23.2981 8.7019C22.8749 8.27869 22.2952 8.02502 21.2892 7.88976C20.2615 7.75159 18.9068 7.75 17 7.75H13C11.0932 7.75 9.73851 7.75159 8.71085 7.88976ZM5.75 15C5.75 14.146 5.75032 13.4027 5.76309 12.75H24.2369C24.2497 13.4027 24.25 14.146 24.25 15V17C24.25 18.9068 24.2484 20.2615 24.1102 21.2892C23.975 22.2952 23.7213 22.8749 23.2981 23.2981C22.8749 23.7213 22.2952 23.975 21.2892 24.1102C20.2615 24.2484 18.9068 24.25 17 24.25H13C11.0932 24.25 9.73851 24.2484 8.71085 24.1102C7.70476 23.975 7.12511 23.7213 6.7019 23.2981C6.27869 22.8749 6.02502 22.2952 5.88976 21.2892C5.75159 20.2615 5.75 18.9068 5.75 17V15Z" fill="white"/>
</svg>
