<svg width="24" height="24" viewBox="0 0 24 24" fill="none" xmlns="http://www.w3.org/2000/svg">
<path fill-rule="evenodd" clip-rule="evenodd" d="M12 0.175003C12.4556 0.175003 12.825 0.544368 12.825 1V2.40987C17.4826 2.80525 21.1947 6.5174 21.5901 11.175H23C23.4556 11.175 23.825 11.5444 23.825 12C23.825 12.4556 23.4556 12.825 23 12.825H21.5901C21.1947 17.4826 17.4826 21.1948 12.825 21.5901V23C12.825 23.4556 12.4556 23.825 12 23.825C11.5444 23.825 11.175 23.4556 11.175 23V21.5901C6.51738 21.1948 2.80523 17.4826 2.40985 12.825H0.999988C0.544353 12.825 0.174988 12.4556 0.174988 12C0.174988 11.5444 0.544353 11.175 0.999988 11.175H2.40985C2.80523 6.5174 6.51738 2.80525 11.175 2.40987V1C11.175 0.544368 11.5444 0.175003 12 0.175003ZM12 4.025C7.59552 4.025 4.02499 7.59553 4.02499 12C4.02499 16.4045 7.59552 19.975 12 19.975C16.4045 19.975 19.975 16.4045 19.975 12C19.975 7.59553 16.4045 4.025 12 4.025ZM12 9.525C10.6331 9.525 9.52499 10.6331 9.52499 12C9.52499 13.3669 10.6331 14.475 12 14.475C13.3669 14.475 14.475 13.3669 14.475 12C14.475 10.6331 13.3669 9.525 12 9.525ZM7.87499 12C7.87499 9.72183 9.72181 7.875 12 7.875C14.2782 7.875 16.125 9.72183 16.125 12C16.125 14.2782 14.2782 16.125 12 16.125C9.72181 16.125 7.87499 14.2782 7.87499 12Z" fill="#999999"/>
</svg>
