<svg width="18" height="21" viewBox="0 0 18 21" fill="none" xmlns="http://www.w3.org/2000/svg">
<path fill-rule="evenodd" clip-rule="evenodd" d="M17.6508 0.240762C18.0701 0.600184 18.1187 1.23148 17.7593 1.65081L10.3171 10.3334L17.7593 19.0159C18.1187 19.4352 18.0701 20.0665 17.6508 20.4259C17.2315 20.7854 16.6002 20.7368 16.2407 20.3175L8.24074 10.9841C7.91975 10.6097 7.91975 10.0571 8.24074 9.68256L16.2407 0.349227C16.6002 -0.0700991 17.2315 -0.118661 17.6508 0.240762Z" fill="white"/>
<path fill-rule="evenodd" clip-rule="evenodd" d="M0.34921 20.4259C-0.0701169 20.0665 -0.118678 19.4352 0.240745 19.0159L7.68292 10.3333L0.240746 1.65079C-0.118676 1.23147 -0.0701152 0.600165 0.349212 0.240745C0.768536 -0.118678 1.39984 -0.0701149 1.75926 0.34921L9.75926 9.68254C10.0802 10.057 10.0802 10.6096 9.75926 10.9841L1.75926 20.3175C1.39983 20.7368 0.768535 20.7853 0.34921 20.4259Z" fill="white"/>
</svg>
