<svg width="15" height="14" viewBox="0 0 15 14" fill="none" xmlns="http://www.w3.org/2000/svg">
<path d="M1.41034 4.6275L5.64015 0.397694C5.89483 0.143054 6.24022 0 6.60037 0C6.96051 0 7.30591 0.143054 7.56059 0.397694L7.61379 0.450899C7.74 0.57691 7.84012 0.726565 7.90843 0.891306C7.97675 1.05605 8.0119 1.23264 8.0119 1.41099C8.0119 1.58933 7.97675 1.76592 7.90843 1.93066C7.84012 2.0954 7.74 2.24506 7.61379 2.37107L4.78035 5.20478H13.5672C13.7553 5.20474 13.9416 5.24177 14.1155 5.31375C14.2893 5.38572 14.4473 5.49124 14.5803 5.62427C14.7134 5.7573 14.8189 5.91523 14.8909 6.08905C14.9629 6.26288 15 6.44918 15 6.63732C15 6.99715 14.8571 7.34224 14.6026 7.59668C14.3482 7.85112 14.0031 7.99406 13.6433 7.99406H4.78142L7.61459 10.8275C7.74079 10.9535 7.84091 11.1032 7.90923 11.2679C7.97754 11.4326 8.0127 11.6092 8.0127 11.7876C8.0127 11.9659 7.97754 12.1425 7.90923 12.3073C7.84091 12.472 7.74079 12.6217 7.61459 12.7477L7.56139 12.8009C7.30671 13.0555 6.96131 13.1986 6.60117 13.1986C6.24102 13.1986 5.89563 13.0555 5.64095 12.8009L1.41113 8.57107L0.398116 7.55804C0.271913 7.43203 0.171786 7.28237 0.103475 7.11763C0.0351629 6.95289 0 6.7763 0 6.59795C0 6.41961 0.0351629 6.24302 0.103475 6.07827C0.171786 5.91353 0.271913 5.76388 0.398116 5.63787L1.41034 4.6275Z" fill="#685DFF"/>
</svg>
