<svg width="15" height="14" viewBox="0 0 15 14" fill="none" xmlns="http://www.w3.org/2000/svg">
<path d="M1.41034 8.57111L5.64015 12.8009C5.89483 13.0556 6.24022 13.1986 6.60037 13.1986C6.96051 13.1986 7.30591 13.0556 7.56059 12.8009L7.61379 12.7477C7.74 12.6217 7.84012 12.472 7.90843 12.3073C7.97675 12.1426 8.0119 11.966 8.0119 11.7876C8.0119 11.6093 7.97674 11.4327 7.90843 11.2679C7.84012 11.1032 7.74 10.9535 7.61379 10.8275L4.78035 7.99383L13.5672 7.99383C13.7553 7.99387 13.9416 7.95684 14.1155 7.88486C14.2893 7.81289 14.4473 7.70737 14.5803 7.57434C14.7134 7.44131 14.8189 7.28338 14.8909 7.10956C14.9629 6.93573 15 6.74943 15 6.56128C15 6.20146 14.8571 5.85636 14.6026 5.60193C14.3482 5.34749 14.0031 5.20455 13.6433 5.20455L4.78142 5.20455L7.61459 2.37111C7.74079 2.2451 7.84091 2.09544 7.90922 1.9307C7.97754 1.76596 8.0127 1.58937 8.0127 1.41102C8.0127 1.23268 7.97754 1.05609 7.90922 0.891351C7.84091 0.72661 7.74079 0.576953 7.61459 0.450942L7.56138 0.397736C7.3067 0.143096 6.96131 4.17108e-05 6.60116 4.17422e-05C6.24102 4.17737e-05 5.89563 0.143096 5.64095 0.397736L1.41113 4.62754L0.398115 5.64057C0.271912 5.76658 0.171786 5.91624 0.103474 6.08098C0.0351623 6.24572 -5.92403e-07 6.42231 -5.76811e-07 6.60066C-5.6122e-07 6.779 0.0351624 6.95559 0.103474 7.12033C0.171786 7.28508 0.271912 7.43473 0.398116 7.56074L1.41034 8.57111Z" fill="white"/>
</svg>
