<svg width="30" height="30" viewBox="0 0 30 30" fill="none" xmlns="http://www.w3.org/2000/svg">
<mask id="mask0_82_941" style="mask-type:alpha" maskUnits="userSpaceOnUse" x="4" y="4" width="22" height="22">
<path fill-rule="evenodd" clip-rule="evenodd" d="M7.25 11.5146C7.25 7.45264 10.7715 4.25 15 4.25C19.2285 4.25 22.75 7.45264 22.75 11.5146C22.75 15.3258 20.3871 19.8 16.5748 21.4292C15.574 21.8569 14.426 21.8569 13.4252 21.4292C9.61289 19.8 7.25 15.3258 7.25 11.5146ZM15 5.75C11.4966 5.75 8.75 8.38076 8.75 11.5146C8.75 14.843 10.8554 18.6998 14.0147 20.0499C14.639 20.3167 15.361 20.3167 15.9853 20.0499C19.1446 18.6998 21.25 14.843 21.25 11.5146C21.25 8.38076 18.5034 5.75 15 5.75ZM15 10.75C14.3096 10.75 13.75 11.3096 13.75 12C13.75 12.6904 14.3096 13.25 15 13.25C15.6904 13.25 16.25 12.6904 16.25 12C16.25 11.3096 15.6904 10.75 15 10.75ZM12.25 12C12.25 10.4812 13.4812 9.25 15 9.25C16.5188 9.25 17.75 10.4812 17.75 12C17.75 13.5188 16.5188 14.75 15 14.75C13.4812 14.75 12.25 13.5188 12.25 12ZM6.59541 17.9966C6.87344 18.3036 6.84992 18.7779 6.54288 19.0559C5.97519 19.57 5.75 20.0621 5.75 20.5C5.75 21.2637 6.47401 22.2048 8.23671 22.998C9.929 23.7596 12.3195 24.25 15 24.25C17.6805 24.25 20.071 23.7596 21.7633 22.998C23.526 22.2048 24.25 21.2637 24.25 20.5C24.25 20.0621 24.0248 19.57 23.4571 19.0559C23.1501 18.7779 23.1266 18.3036 23.4046 17.9966C23.6826 17.6895 24.1569 17.666 24.4639 17.9441C25.227 18.635 25.75 19.5011 25.75 20.5C25.75 22.2216 24.2354 23.5305 22.3788 24.3659C20.4518 25.2331 17.8424 25.75 15 25.75C12.1576 25.75 9.54815 25.2331 7.62116 24.3659C5.76457 23.5305 4.25 22.2216 4.25 20.5C4.25 19.5011 4.77305 18.635 5.53605 17.9441C5.84309 17.666 6.31738 17.6895 6.59541 17.9966Z" fill="#1C274C"/>
</mask>
<g mask="url(#mask0_82_941)">
<rect x="2" y="3" width="28" height="25" fill="#222222"/>
<rect x="12" y="8" width="6" height="8" fill="#FF0097"/>
</g>
</svg>
