<svg width="36" height="41" viewBox="0 0 36 41" fill="none" xmlns="http://www.w3.org/2000/svg">
<g filter="url(#filter0_f_1_1097)">
<ellipse cx="17.923" cy="34.4615" rx="4.30769" ry="1.53846" fill="black" fill-opacity="0.2"/>
</g>
<g filter="url(#filter1_d_1_1097)">
<path fill-rule="evenodd" clip-rule="evenodd" d="M17.9231 4C25.0603 4 30.8462 9.78586 30.8462 16.9231C30.8462 22.3954 27.4448 27.0733 22.6408 28.958L18.6591 34.4004C18.5761 34.5143 18.4659 34.6073 18.3378 34.6715C18.2097 34.7357 18.0674 34.7692 17.9231 34.7692C17.7787 34.7692 17.6365 34.7357 17.5083 34.6715C17.3802 34.6073 17.27 34.5143 17.187 34.4004L13.2053 28.958C8.40139 27.0733 5 22.3954 5 16.9231C5 9.78586 10.7859 4 17.9231 4Z" fill="#FF0097"/>
</g>
<path d="M26.3815 16.9215C26.3815 12.2492 22.5939 8.46155 17.9215 8.46155C13.2492 8.46155 9.46155 12.2492 9.46155 16.9215C9.46155 21.5939 13.2492 25.3815 17.9215 25.3815C22.5939 25.3815 26.3815 21.5939 26.3815 16.9215Z" fill="white"/>
<defs>
<filter id="filter0_f_1_1097" x="11.6154" y="30.9231" width="12.6154" height="7.07692" filterUnits="userSpaceOnUse" color-interpolation-filters="sRGB">
<feFlood flood-opacity="0" result="BackgroundImageFix"/>
<feBlend mode="normal" in="SourceGraphic" in2="BackgroundImageFix" result="shape"/>
<feGaussianBlur stdDeviation="1" result="effect1_foregroundBlur_1_1097"/>
</filter>
<filter id="filter1_d_1_1097" x="0" y="0" width="35.8461" height="40.7692" filterUnits="userSpaceOnUse" color-interpolation-filters="sRGB">
<feFlood flood-opacity="0" result="BackgroundImageFix"/>
<feColorMatrix in="SourceAlpha" type="matrix" values="0 0 0 0 0 0 0 0 0 0 0 0 0 0 0 0 0 0 127 0" result="hardAlpha"/>
<feOffset dy="1"/>
<feGaussianBlur stdDeviation="2.5"/>
<feComposite in2="hardAlpha" operator="out"/>
<feColorMatrix type="matrix" values="0 0 0 0 0 0 0 0 0 0 0 0 0 0 0 0 0 0 0.1 0"/>
<feBlend mode="normal" in2="BackgroundImageFix" result="effect1_dropShadow_1_1097"/>
<feBlend mode="normal" in="SourceGraphic" in2="effect1_dropShadow_1_1097" result="shape"/>
</filter>
</defs>
</svg>
