<svg width="30" height="30" viewBox="0 0 30 30" fill="none" xmlns="http://www.w3.org/2000/svg">
<path fill-rule="evenodd" clip-rule="evenodd" d="M13.5936 5.31883C14.483 4.89372 15.517 4.89372 16.4064 5.31883C16.7928 5.50351 17.1468 5.80551 17.6371 6.22367C17.6625 6.24538 17.6883 6.2674 17.7146 6.28973C17.9526 6.49262 18.0276 6.555 18.1035 6.60585C18.2965 6.73519 18.5132 6.82495 18.7411 6.86995C18.8307 6.88764 18.9278 6.89654 19.2396 6.92143C19.2739 6.92417 19.3078 6.92685 19.3411 6.92949C19.9834 6.98046 20.4473 7.01727 20.8511 7.15991C21.7807 7.48822 22.5118 8.21935 22.8401 9.14885C22.9827 9.55267 23.0195 10.0166 23.0705 10.6589C23.0732 10.6922 23.0758 10.7261 23.0786 10.7604C23.1035 11.0722 23.1124 11.1693 23.1301 11.2589C23.175 11.4868 23.2648 11.7036 23.3941 11.8965C23.445 11.9724 23.5074 12.0474 23.7103 12.2854C23.7326 12.3117 23.7546 12.3375 23.7763 12.3629C24.1945 12.8532 24.4965 13.2072 24.6812 13.5936C25.1063 14.483 25.1063 15.517 24.6812 16.4064C24.4965 16.7928 24.1945 17.1468 23.7764 17.6371C23.7546 17.6625 23.7326 17.6883 23.7103 17.7146C23.5074 17.9526 23.445 18.0276 23.3941 18.1035C23.2648 18.2965 23.175 18.5132 23.1301 18.7411C23.1124 18.8307 23.1035 18.9278 23.0786 19.2396C23.0758 19.2739 23.0732 19.3078 23.0705 19.3411C23.0195 19.9834 22.9827 20.4473 22.8401 20.8511C22.5118 21.7807 21.7807 22.5118 20.8511 22.8401C20.4473 22.9827 19.9834 23.0195 19.3411 23.0705C19.3078 23.0732 19.2739 23.0758 19.2396 23.0786C18.9278 23.1035 18.8307 23.1124 18.7411 23.1301C18.5132 23.175 18.2965 23.2648 18.1035 23.3941C18.0276 23.445 17.9526 23.5074 17.7146 23.7103C17.6883 23.7326 17.6625 23.7546 17.6371 23.7763C17.1468 24.1945 16.7928 24.4965 16.4064 24.6812C15.517 25.1063 14.483 25.1063 13.5936 24.6812C13.2072 24.4965 12.8531 24.1945 12.3629 23.7763C12.3375 23.7546 12.3116 23.7326 12.2854 23.7103C12.0474 23.5074 11.9724 23.445 11.8965 23.3941C11.7036 23.2648 11.4868 23.175 11.2589 23.1301C11.1693 23.1124 11.0722 23.1035 10.7604 23.0786C10.7261 23.0758 10.6922 23.0732 10.6589 23.0705C10.0166 23.0195 9.55267 22.9827 9.14885 22.8401C8.21935 22.5118 7.48822 21.7807 7.15991 20.8511C7.01727 20.4473 6.98046 19.9834 6.92949 19.3411C6.92685 19.3078 6.92417 19.2739 6.92143 19.2396C6.89654 18.9278 6.88764 18.8307 6.86995 18.7411C6.82495 18.5132 6.73519 18.2965 6.60585 18.1035C6.555 18.0276 6.49262 17.9526 6.28973 17.7146C6.2674 17.6884 6.24538 17.6625 6.22368 17.6371C5.80551 17.1468 5.50351 16.7928 5.31883 16.4064C4.89372 15.517 4.89372 14.483 5.31883 13.5936C5.50351 13.2072 5.80551 12.8532 6.22367 12.3629C6.24537 12.3375 6.26739 12.3117 6.28973 12.2854C6.49262 12.0474 6.555 11.9724 6.60585 11.8965C6.73519 11.7036 6.82495 11.4868 6.86995 11.2589C6.88764 11.1693 6.89654 11.0722 6.92143 10.7604C6.92417 10.7261 6.92685 10.6922 6.92949 10.6589C6.98046 10.0166 7.01727 9.55267 7.15991 9.14885C7.48822 8.21935 8.21935 7.48822 9.14885 7.15991C9.55267 7.01727 10.0166 6.98046 10.6589 6.92949C10.6922 6.92685 10.7261 6.92417 10.7604 6.92143C11.0722 6.89654 11.1693 6.88764 11.2589 6.86995C11.4868 6.82495 11.7036 6.73519 11.8965 6.60585C11.9724 6.555 12.0474 6.49262 12.2854 6.28973C12.3117 6.26739 12.3375 6.24538 12.3629 6.22367C12.8532 5.80551 13.2072 5.50351 13.5936 5.31883ZM15.7573 6.6769C15.2784 6.44799 14.7216 6.44799 14.2427 6.6769C14.0576 6.76539 13.8624 6.92352 13.2618 7.43537C13.2519 7.44378 13.2422 7.45207 13.2326 7.46026C13.0354 7.6283 12.8916 7.75097 12.7346 7.8562C12.3762 8.09639 11.9737 8.2631 11.5505 8.34666C11.3651 8.38327 11.1766 8.39827 10.9184 8.41883C10.9058 8.41983 10.893 8.42084 10.8801 8.42187C10.0935 8.48465 9.84367 8.51084 9.65016 8.57919C9.14966 8.75597 8.75597 9.14966 8.57919 9.65016C8.51084 9.84367 8.48465 10.0935 8.42187 10.8801C8.42084 10.893 8.41983 10.9058 8.41883 10.9184C8.39827 11.1766 8.38327 11.3651 8.34666 11.5505C8.2631 11.9737 8.09639 12.3762 7.8562 12.7346C7.75097 12.8916 7.6283 13.0354 7.46025 13.2326C7.45207 13.2422 7.44377 13.2519 7.43537 13.2618C6.92352 13.8624 6.76539 14.0576 6.6769 14.2427C6.44799 14.7216 6.44799 15.2784 6.6769 15.7573C6.76539 15.9424 6.92352 16.1376 7.43537 16.7382C7.44378 16.7481 7.45207 16.7578 7.46026 16.7674C7.6283 16.9646 7.75097 17.1084 7.8562 17.2654C8.09639 17.6238 8.2631 18.0263 8.34666 18.4495C8.38327 18.6349 8.39827 18.8234 8.41883 19.0816C8.41983 19.0942 8.42084 19.107 8.42187 19.1199C8.48465 19.9065 8.51084 20.1563 8.57919 20.3498C8.75597 20.8503 9.14966 21.244 9.65016 21.4208C9.84367 21.4892 10.0935 21.5154 10.8801 21.5781L10.9184 21.5812C11.1766 21.6017 11.3651 21.6167 11.5505 21.6533C11.9737 21.7369 12.3762 21.9036 12.7346 22.1438C12.8916 22.249 13.0354 22.3717 13.2326 22.5397L13.2618 22.5646C13.8624 23.0765 14.0576 23.2346 14.2427 23.3231C14.7216 23.552 15.2784 23.552 15.7573 23.3231C15.9424 23.2346 16.1376 23.0765 16.7382 22.5646L16.7675 22.5397C16.9646 22.3717 17.1084 22.249 17.2654 22.1438C17.6238 21.9036 18.0263 21.7369 18.4495 21.6533C18.6349 21.6167 18.8234 21.6017 19.0816 21.5812L19.1199 21.5781C19.9065 21.5154 20.1563 21.4892 20.3498 21.4208C20.8503 21.244 21.244 20.8503 21.4208 20.3498C21.4892 20.1563 21.5154 19.9065 21.5781 19.1199L21.5812 19.0816C21.6017 18.8234 21.6167 18.6349 21.6533 18.4495C21.7369 18.0263 21.9036 17.6238 22.1438 17.2654C22.249 17.1084 22.3717 16.9646 22.5397 16.7675L22.5646 16.7382C23.0765 16.1376 23.2346 15.9424 23.3231 15.7573C23.552 15.2784 23.552 14.7216 23.3231 14.2427C23.2346 14.0576 23.0765 13.8624 22.5646 13.2618L22.5397 13.2325C22.3717 13.0354 22.249 12.8916 22.1438 12.7346C21.9036 12.3762 21.7369 11.9737 21.6533 11.5505C21.6167 11.3651 21.6017 11.1766 21.5812 10.9184L21.5781 10.8801C21.5154 10.0935 21.4892 9.84367 21.4208 9.65016C21.244 9.14966 20.8503 8.75597 20.3498 8.57919C20.1563 8.51084 19.9065 8.48465 19.1199 8.42187C19.107 8.42084 19.0942 8.41983 19.0816 8.41883C18.8234 8.39827 18.6349 8.38327 18.4495 8.34666C18.0263 8.2631 17.6238 8.09639 17.2654 7.8562C17.1084 7.75097 16.9646 7.6283 16.7674 7.46025C16.7578 7.45207 16.7481 7.44377 16.7382 7.43537C16.1376 6.92352 15.9424 6.76539 15.7573 6.6769ZM19.0443 11.9591C19.3383 12.253 19.3383 12.7296 19.0443 13.0235L14.027 18.0409C13.733 18.3348 13.2565 18.3348 12.9626 18.0409L10.9557 16.0339C10.6617 15.74 10.6617 15.2635 10.9557 14.9696C11.2496 14.6757 11.7261 14.6757 12.02 14.9696L13.4948 16.4443L17.98 11.9591C18.2739 11.6652 18.7504 11.6652 19.0443 11.9591Z" fill="white"/>
</svg>
