<svg width="26" height="18" viewBox="0 0 26 18" fill="none" xmlns="http://www.w3.org/2000/svg">
<path fill-rule="evenodd" clip-rule="evenodd" d="M25.25 2.00001C25.25 1.42011 24.7799 0.950012 24.2 0.950012H1.8C1.2201 0.950012 0.749998 1.42011 0.749998 2.00001C0.749998 2.57991 1.2201 3.05001 1.8 3.05001H24.2C24.7799 3.05001 25.25 2.57991 25.25 2.00001ZM25.25 9.00001C25.25 8.42011 24.7799 7.95001 24.2 7.95001H8.8C8.2201 7.95001 7.75 8.42011 7.75 9.00001C7.75 9.57991 8.2201 10.05 8.8 10.05H24.2C24.7799 10.05 25.25 9.57991 25.25 9.00001ZM25.25 16C25.25 15.4201 24.7799 14.95 24.2 14.95H17.2C16.6201 14.95 16.15 15.4201 16.15 16C16.15 16.5799 16.6201 17.05 17.2 17.05H24.2C24.7799 17.05 25.25 16.5799 25.25 16Z" fill="white"/>
</svg>
