<svg width="23" height="20" viewBox="0 0 23 20" fill="none" xmlns="http://www.w3.org/2000/svg">
<path d="M20.0807 0.588379H2.86074C1.60575 0.588379 0.588379 1.60575 0.588379 2.86074V17.1397C0.588379 18.3947 1.60575 19.4121 2.86074 19.4121H20.0807C21.3357 19.4121 22.3531 18.3947 22.3531 17.1397V2.86074C22.3531 1.60575 21.3357 0.588379 20.0807 0.588379Z" fill="white"/>
<path d="M11.4709 7.79437C10.5402 7.79446 9.63043 8.07052 8.85665 8.58765C8.08286 9.10477 7.47979 9.83974 7.1237 10.6996C6.7676 11.5595 6.67448 12.5056 6.8561 13.4184C7.03772 14.3312 7.48593 15.1696 8.14405 15.8277C8.80217 16.4857 9.64065 16.9338 10.5535 17.1154C11.4663 17.2969 12.4124 17.2037 13.2722 16.8475C14.132 16.4913 14.8669 15.8882 15.384 15.1144C15.901 14.3405 16.177 13.4307 16.177 12.5001C16.1754 11.2524 15.6791 10.0564 14.7968 9.17422C13.9146 8.29206 12.7185 7.79583 11.4709 7.79437ZM11.4709 16.0295C10.7725 16.0295 10.0897 15.8223 9.50902 15.4343C8.92831 15.0463 8.47571 14.4948 8.20844 13.8496C7.94117 13.2043 7.87124 12.4943 8.00749 11.8093C8.14374 11.1243 8.48006 10.4951 8.97391 10.0013C9.46776 9.50743 10.097 9.17112 10.782 9.03487C11.4669 8.89861 12.177 8.96854 12.8222 9.23581C13.4674 9.50308 14.0189 9.95569 14.407 10.5364C14.795 11.1171 15.0021 11.7998 15.0021 12.4982C15.0007 13.4344 14.6283 14.3318 13.9663 14.9937C13.3044 15.6557 12.407 16.0281 11.4709 16.0295Z" fill="black"/>
<path d="M13.966 14.9957C15.3443 13.6174 15.3443 11.3827 13.966 10.0044C12.5876 8.6261 10.353 8.6261 8.97465 10.0044C7.59634 11.3827 7.59634 13.6174 8.97465 14.9957C10.353 16.374 12.5876 16.374 13.966 14.9957Z" fill="white"/>
<path d="M13.6067 11.2912C13.5473 11.2317 13.4768 11.1845 13.3991 11.1523C13.3214 11.1201 13.2381 11.1036 13.154 11.1036C13.0699 11.1035 12.9866 11.1201 12.9089 11.1524C12.8312 11.1846 12.7607 11.232 12.7014 11.2917L11.0523 12.9394L10.2442 12.1318C10.1222 12.0152 9.95992 11.9501 9.79113 11.9501C9.62235 11.9501 9.46006 12.0152 9.33804 12.1318C9.21818 12.2522 9.15088 12.4151 9.15088 12.5849C9.15088 12.7548 9.21818 12.9177 9.33804 13.038L10.5983 14.2982C10.7186 14.4184 10.8818 14.4859 11.0518 14.4859C11.2219 14.4859 11.385 14.4184 11.5054 14.2982L13.6053 12.1979C13.6651 12.1384 13.7125 12.0678 13.7448 11.99C13.7772 11.9122 13.7938 11.8288 13.7938 11.7445C13.7938 11.6603 13.7772 11.5768 13.7448 11.499C13.7125 11.4212 13.6651 11.3506 13.6053 11.2912H13.6067Z" fill="#FF0097"/>
<path d="M20.0803 3.05176e-05H2.86075C2.10229 0.000880193 1.37514 0.302552 0.838831 0.838862C0.302521 1.37517 0.000849676 2.10232 0 2.86078V17.1393C0.000849676 17.8977 0.302521 18.6249 0.838831 19.1612C1.37514 19.6975 2.10229 19.9992 2.86075 20H20.0803C20.8387 19.9992 21.5659 19.6975 22.1022 19.1612C22.6385 18.6249 22.9402 17.8977 22.941 17.1393V2.86078C22.9402 2.10232 22.6385 1.37517 22.1022 0.838862C21.5659 0.302552 20.8387 0.000880193 20.0803 3.05176e-05ZM21.7647 17.1393C21.7648 17.3605 21.7212 17.5796 21.6366 17.784C21.552 17.9884 21.4279 18.1741 21.2715 18.3305C21.115 18.4869 20.9293 18.611 20.7249 18.6956C20.5205 18.7803 20.3015 18.8238 20.0803 18.8237H2.86075C2.63953 18.8238 2.42046 18.7803 2.21607 18.6956C2.01168 18.611 1.82596 18.4869 1.66953 18.3305C1.51311 18.1741 1.38904 17.9884 1.30441 17.784C1.21978 17.5796 1.17625 17.3605 1.17631 17.1393V5.88249H21.7647V17.1393ZM21.7647 4.70618H1.17631V2.86078C1.17631 2.6396 1.21988 2.42058 1.30454 2.21624C1.38919 2.0119 1.51328 1.82624 1.6697 1.66986C1.82612 1.51348 2.01181 1.38945 2.21617 1.30485C2.42054 1.22025 2.63956 1.17674 2.86075 1.1768H20.0803C20.3014 1.17674 20.5205 1.22025 20.7248 1.30485C20.9292 1.38945 21.1149 1.51348 21.2713 1.66986C21.4277 1.82624 21.5518 2.0119 21.6365 2.21624C21.7211 2.42058 21.7647 2.6396 21.7647 2.86078V4.70618Z" fill="black"/>
<path d="M4.11768 3.52937C4.44264 3.52937 4.70606 3.26594 4.70606 2.94098C4.70606 2.61603 4.44264 2.3526 4.11768 2.3526C3.79273 2.3526 3.5293 2.61603 3.5293 2.94098C3.5293 3.26594 3.79273 3.52937 4.11768 3.52937Z" fill="black"/>
<path d="M6.17627 3.52937C6.50123 3.52937 6.76466 3.26594 6.76466 2.94098C6.76466 2.61603 6.50123 2.3526 6.17627 2.3526C5.85132 2.3526 5.58789 2.61603 5.58789 2.94098C5.58789 3.26594 5.85132 3.52937 6.17627 3.52937Z" fill="black"/>
<path d="M8.23487 3.52937C8.55982 3.52937 8.82325 3.26594 8.82325 2.94098C8.82325 2.61603 8.55982 2.3526 8.23487 2.3526C7.90991 2.3526 7.64648 2.61603 7.64648 2.94098C7.64648 3.26594 7.90991 3.52937 8.23487 3.52937Z" fill="black"/>
</svg>
