<svg width="30" height="30" viewBox="0 0 30 30" fill="none" xmlns="http://www.w3.org/2000/svg">
<path fill-rule="evenodd" clip-rule="evenodd" d="M14.25 5C14.25 4.58579 14.5858 4.25 15 4.25C20.9371 4.25 25.75 9.06294 25.75 15C25.75 20.9371 20.9371 25.75 15 25.75C9.06294 25.75 4.25 20.9371 4.25 15C4.25 14.5858 4.58579 14.25 5 14.25C5.41421 14.25 5.75 14.5858 5.75 15C5.75 20.1086 9.89137 24.25 15 24.25C20.1086 24.25 24.25 20.1086 24.25 15C24.25 9.89137 20.1086 5.75 15 5.75C14.5858 5.75 14.25 5.41421 14.25 5ZM15 11.25C15.4142 11.25 15.75 11.5858 15.75 12V15.25H19C19.4142 15.25 19.75 15.5858 19.75 16C19.75 16.4142 19.4142 16.75 19 16.75H15C14.5858 16.75 14.25 16.4142 14.25 16V12C14.25 11.5858 14.5858 11.25 15 11.25Z" fill="white"/>
<path fill-rule="evenodd" clip-rule="evenodd" d="M12.0996 5.39754C12.2487 5.78396 12.0564 6.21814 11.67 6.36731C11.5286 6.42191 11.3888 6.47988 11.2508 6.54114C10.8722 6.70921 10.4291 6.53856 10.261 6.15997C10.0929 5.78139 10.2636 5.33824 10.6422 5.17017C10.8027 5.09892 10.9653 5.03147 11.1298 4.96795C11.5162 4.81878 11.9504 5.01112 12.0996 5.39754ZM8.6477 7.24026C8.93337 7.54021 8.92178 8.01495 8.62183 8.30061C8.51216 8.40506 8.40505 8.51216 8.30061 8.62183C8.01495 8.92178 7.54021 8.93337 7.24026 8.6477C6.94031 8.36204 6.92873 7.88731 7.21439 7.58736C7.33566 7.46003 7.46002 7.33566 7.58736 7.21439C7.88731 6.92873 8.36204 6.94031 8.6477 7.24026ZM6.15997 10.261C6.53856 10.4291 6.70921 10.8722 6.54114 11.2508C6.47988 11.3888 6.42191 11.5286 6.36731 11.67C6.21814 12.0564 5.78396 12.2487 5.39754 12.0996C5.01112 11.9504 4.81878 11.5162 4.96795 11.1298C5.03147 10.9653 5.09892 10.8027 5.17017 10.6422C5.33824 10.2636 5.78139 10.0929 6.15997 10.261Z" fill="white"/>
</svg>
