<svg width="290" height="105" viewBox="0 0 290 105" fill="none" xmlns="http://www.w3.org/2000/svg">
<path d="M145 104.368C225.081 104.368 290 95.414 290 84.3683C290 73.3226 225.081 64.3683 145 64.3683C64.9187 64.3683 0 73.3226 0 84.3683C0 95.414 64.9187 104.368 145 104.368Z" fill="#E6E6E6"/>
<path d="M207.957 61.3738H209.19L208.935 60.167L196.6 1.81947L196.432 1.02631H195.622H88.055H87.2444L87.0767 1.81942L74.7384 60.1669L74.4832 61.3738H75.7168H207.957Z" fill="#E9E9E9" stroke="#383838" stroke-width="2"/>
<path d="M80.1938 40.203L75.7168 61.3738H207.957L203.48 40.203H80.1938Z" fill="#CBCBCB"/>
<path d="M49.7983 49.8251H48.7983V50.8251V81.444V82.444H49.7983H235.798H236.798V81.444V50.8251V49.8251H235.798H49.7983Z" fill="#BFBFBF" stroke="#383838" stroke-width="2"/>
<path d="M18.917 53.984V59.3787C18.917 62.1794 25.6603 64.4473 33.9776 64.4473C42.295 64.4473 49.0412 62.1794 49.0412 59.3787V53.984H18.917Z" fill="white"/>
<path d="M33.9777 65.3585C29.857 65.3585 25.9728 64.8141 23.0348 63.8272C18.8791 62.4268 18.0029 60.6305 18.0029 59.3787V53.984C18.0037 53.7421 18.1007 53.5103 18.2725 53.3395C18.4444 53.1687 18.6772 53.0728 18.9199 53.0728H49.0412C49.2837 53.0728 49.5162 53.1688 49.6876 53.3397C49.859 53.5106 49.9553 53.7423 49.9553 53.984V59.3787C49.9553 60.6364 49.0792 62.4268 44.9205 63.8272C41.9855 64.8141 38.0984 65.3585 33.9777 65.3585ZM19.8311 54.8953V59.3787C19.8311 61.1255 25.2135 63.536 33.9777 63.536C42.7419 63.536 48.1272 61.1138 48.1272 59.3787V54.8953H19.8311Z" fill="#353535"/>
<path d="M33.9776 59.0497C42.297 59.0497 49.0412 56.7817 49.0412 53.984C49.0412 51.1863 42.297 48.9184 33.9776 48.9184C25.6583 48.9184 18.9141 51.1863 18.9141 53.984C18.9141 56.7817 25.6583 59.0497 33.9776 59.0497Z" fill="white"/>
<path d="M33.9777 59.9639C29.8569 59.9639 25.9728 59.4194 23.0348 58.4296C18.8732 57.0322 18 55.2271 18 53.984C18 52.7409 18.8761 50.9359 23.0348 49.5355C25.9728 48.5486 29.8569 48.0042 33.9777 48.0042C38.0984 48.0042 41.9855 48.5486 44.9205 49.5355C49.0821 50.9359 49.9553 52.738 49.9553 53.984C49.9553 55.2301 49.0792 57.0322 44.9205 58.4296C41.9855 59.4194 38.0984 59.9639 33.9777 59.9639ZM33.9777 49.8296C25.2164 49.8296 19.8311 52.2489 19.8311 53.984C19.8311 55.7192 25.2135 58.1385 33.9777 58.1385C42.7419 58.1385 48.1271 55.7192 48.1271 53.984C48.1271 52.2489 42.7448 49.8296 33.9777 49.8296Z" fill="#353535"/>
<path d="M18.917 48.6505V54.048C18.917 56.8458 25.6603 59.1138 33.9776 59.1138C42.295 59.1138 49.0412 56.8458 49.0412 54.048V48.6505H18.917Z" fill="white"/>
<path d="M33.9777 60.0279C29.8569 60.0279 25.9728 59.4835 23.0348 58.4936C18.8732 57.0962 18 55.2912 18 54.0481V48.6506C18.0008 48.4086 18.0977 48.1768 18.2696 48.006C18.4415 47.8352 18.6743 47.7393 18.917 47.7393H49.0412C49.2837 47.7393 49.5162 47.8353 49.6876 48.0062C49.859 48.1771 49.9553 48.4089 49.9553 48.6506V54.0481C49.9553 55.3028 49.0792 57.0962 44.9205 58.4936C41.9855 59.4835 38.0984 60.0279 33.9777 60.0279ZM19.8311 49.5676V54.051C19.8311 55.7978 25.2135 58.2054 33.9777 58.2054C42.7419 58.2054 48.1271 55.7861 48.1271 54.051V49.5676H19.8311Z" fill="#353535"/>
<path d="M33.9776 53.7191C42.297 53.7191 49.0412 51.4511 49.0412 48.6534C49.0412 45.8557 42.297 43.5878 33.9776 43.5878C25.6583 43.5878 18.9141 45.8557 18.9141 48.6534C18.9141 51.4511 25.6583 53.7191 33.9776 53.7191Z" fill="white"/>
<path d="M33.9777 54.6303C29.8569 54.6303 25.9728 54.0859 23.0348 53.099C18.8732 51.6986 18 49.8966 18 48.6505C18 47.4045 18.8761 45.6053 23.0348 44.205C25.9728 43.218 29.8569 42.6736 33.9777 42.6736C38.0984 42.6736 41.9855 43.218 44.9205 44.205C49.0821 45.6053 49.9553 47.4074 49.9553 48.6505C49.9553 49.8937 49.0792 51.6986 44.9205 53.099C41.9855 54.0859 38.0984 54.6303 33.9777 54.6303ZM33.9777 44.4961C25.2164 44.4961 19.8311 46.9154 19.8311 48.6505C19.8311 50.3857 25.2135 52.8078 33.9777 52.8078C42.7419 52.8078 48.1271 50.3857 48.1271 48.6505C48.1271 46.9154 42.7448 44.4961 33.9777 44.4961Z" fill="#353535"/>
<path d="M18.917 43.1277V48.5253C18.917 51.3231 25.6603 53.591 33.9776 53.591C42.295 53.591 49.0412 51.3231 49.0412 48.5253V43.1277H18.917Z" fill="white"/>
<path d="M33.9777 54.5168C29.8569 54.5168 25.9728 53.9724 23.0348 52.9826C18.8732 51.5851 18 49.7801 18 48.537V43.1394C18.0008 42.8975 18.0977 42.6657 18.2696 42.4949C18.4415 42.3241 18.6743 42.2282 18.917 42.2282H49.0412C49.1613 42.2282 49.2801 42.2518 49.391 42.2976C49.502 42.3434 49.6027 42.4105 49.6876 42.4951C49.7725 42.5797 49.8398 42.6802 49.8858 42.7907C49.9317 42.9013 49.9553 43.0197 49.9553 43.1394V48.537C49.9553 49.7918 49.0792 51.5851 44.9205 52.9826C41.9855 53.9608 38.0984 54.5168 33.9777 54.5168ZM19.8311 44.0361V48.5195C19.8311 50.2663 25.2135 52.6739 33.9777 52.6739C42.7419 52.6739 48.1271 50.2546 48.1271 48.5195V44.0361H19.8311Z" fill="#353535"/>
<path d="M33.9776 48.1963C42.297 48.1963 49.0412 45.9284 49.0412 43.1307C49.0412 40.333 42.297 38.065 33.9776 38.065C25.6583 38.065 18.9141 40.333 18.9141 43.1307C18.9141 45.9284 25.6583 48.1963 33.9776 48.1963Z" fill="white"/>
<path d="M33.9777 49.1076C29.8569 49.1076 25.9728 48.5632 23.0348 47.5762C18.8732 46.1759 18 44.3738 18 43.1278C18 41.8817 18.8761 40.0826 23.0348 38.6823C25.9728 37.6953 29.8569 37.1509 33.9777 37.1509C38.0984 37.1509 41.9855 37.6953 44.9205 38.6823C49.0821 40.0826 49.9553 41.8846 49.9553 43.1278C49.9553 44.3709 49.0792 46.1759 44.9205 47.5762C41.9855 48.5632 38.0984 49.1076 33.9777 49.1076ZM33.9777 38.9734C25.2164 38.9734 19.8311 41.3926 19.8311 43.1278C19.8311 44.8629 25.2135 47.2851 33.9777 47.2851C42.7419 47.2851 48.1271 44.8629 48.1271 43.1278C48.1271 41.3926 42.7448 38.9734 33.9777 38.9734Z" fill="#353535"/>
<path d="M18.917 37.605V43.0026C18.917 45.8003 25.6603 48.0683 33.9776 48.0683C42.295 48.0683 49.0412 45.8003 49.0412 43.0026V37.605H18.917Z" fill="white"/>
<path d="M33.9777 48.9853C29.8569 48.9853 25.9728 48.4409 23.0348 47.4511C18.8732 46.0536 18 44.2486 18 43.0055V37.6079C18.0008 37.366 18.0977 37.1342 18.2696 36.9634C18.4415 36.7926 18.6743 36.6967 18.917 36.6967H49.0412C49.2837 36.6967 49.5162 36.7927 49.6876 36.9636C49.859 37.1345 49.9553 37.3662 49.9553 37.6079V43.0055C49.9553 44.2603 49.0792 46.0536 44.9205 47.4511C41.9855 48.438 38.0984 48.9853 33.9777 48.9853ZM19.8311 38.5221V43.0055C19.8311 44.7523 25.2135 47.1599 33.9777 47.1599C42.7419 47.1599 48.1271 44.7406 48.1271 43.0055V38.5221H19.8311Z" fill="#353535"/>
<path d="M33.9776 42.6736C42.297 42.6736 49.0412 40.4056 49.0412 37.6079C49.0412 34.8102 42.297 32.5423 33.9776 32.5423C25.6583 32.5423 18.9141 34.8102 18.9141 37.6079C18.9141 40.4056 25.6583 42.6736 33.9776 42.6736Z" fill="white"/>
<path d="M33.9777 43.5847C29.8569 43.5847 25.9728 43.0403 23.0348 42.0534C18.8732 40.6531 18 38.851 18 37.6049C18 36.3589 18.8761 34.5597 23.0348 33.1593C25.9728 32.1724 29.8569 31.628 33.9777 31.628C38.0984 31.628 41.9855 32.1724 44.9205 33.1593C49.0821 34.5597 49.9553 36.3618 49.9553 37.6049C49.9553 38.848 49.0792 40.6531 44.9205 42.0534C41.9855 43.0403 38.0984 43.5847 33.9777 43.5847ZM33.9777 33.4505C25.2164 33.4505 19.8311 35.8698 19.8311 37.6049C19.8311 39.3401 25.2135 41.7594 33.9777 41.7594C42.7419 41.7594 48.1271 39.3401 48.1271 37.6049C48.1271 35.8698 42.7448 33.4505 33.9777 33.4505Z" fill="#353535"/>
<path d="M31.7988 35.8844C31.7988 35.5438 32.1756 35.4157 32.8969 35.4157H35.2128C37.4323 35.4157 38.5713 35.8961 38.5713 36.7171C38.5713 37.5381 37.3126 38.0621 35.2508 38.0621H32.9758V39.6138C32.9758 39.7565 32.7217 39.8351 32.3917 39.8351C32.0617 39.8351 31.8076 39.7565 31.8076 39.6138L31.7988 35.8844ZM35.0376 37.6079C36.5912 37.6079 37.3535 37.2731 37.3535 36.7345C37.3535 36.1959 36.6701 35.8786 35.0171 35.8786H33.2649C33.0225 35.8786 32.9553 35.9135 32.9553 36.0096V37.6079H35.0376Z" fill="#353535"/>
<path d="M44.9938 86.4247C56.1132 86.4247 65.1272 77.4388 65.1272 66.3542C65.1272 55.2695 56.1132 46.2836 44.9938 46.2836C33.8744 46.2836 24.8604 55.2695 24.8604 66.3542C24.8604 77.4388 33.8744 86.4247 44.9938 86.4247Z" fill="white"/>
<path d="M56.4957 77.8223C62.8494 71.4885 62.8494 61.2192 56.4957 54.8853C50.142 48.5515 39.8406 48.5515 33.4868 54.8853C27.1331 61.2192 27.1331 71.4884 33.4868 77.8223C39.8405 84.1562 50.142 84.1562 56.4957 77.8223Z" fill="white"/>
<path d="M44.9938 87.336C40.831 87.336 36.7617 86.1054 33.3004 83.7999C29.8392 81.4944 27.1415 78.2175 25.5484 74.3836C23.9554 70.5497 23.5386 66.331 24.3507 62.2609C25.1628 58.1908 27.1674 54.4522 30.111 51.5178C33.0545 48.5835 36.8048 46.5852 40.8877 45.7756C44.9705 44.966 49.2024 45.3815 53.0484 46.9696C56.8943 48.5576 60.1815 51.247 62.4942 54.6974C64.8069 58.1478 66.0414 62.2044 66.0414 66.3542C66.0352 71.917 63.8157 77.2503 59.8698 81.1838C55.924 85.1173 50.5741 87.3298 44.9938 87.336ZM44.9938 47.1949C41.1926 47.1949 37.4767 48.3186 34.3161 50.4238C31.1555 52.5291 28.6921 55.5214 27.2375 59.0223C25.7828 62.5232 25.4022 66.3754 26.1438 70.092C26.8854 73.8085 28.7158 77.2224 31.4037 79.9019C34.0916 82.5813 37.5161 84.4062 41.2443 85.1454C44.9725 85.8847 48.8369 85.5052 52.3488 84.0551C55.8606 82.605 58.8623 80.1493 60.9741 76.9986C63.086 73.8479 64.2132 70.1436 64.2132 66.3542C64.207 61.2747 62.1801 56.4051 58.5771 52.8134C54.9741 49.2216 50.0892 47.2011 44.9938 47.1949Z" fill="#353535"/>
<path d="M44.9939 83.4872C41.5947 83.4872 38.2718 82.4824 35.4454 80.5998C32.6191 78.7171 30.4162 76.0413 29.1154 72.9107C27.8146 69.78 27.4742 66.3351 28.1374 63.0116C28.8005 59.6882 30.4374 56.6354 32.841 54.2393C35.2446 51.8432 38.307 50.2113 41.6409 49.5503C44.9748 48.8892 48.4305 49.2285 51.5709 50.5253C54.7114 51.8221 57.3956 54.018 59.2841 56.8355C61.1726 59.653 62.1806 62.9655 62.1806 66.3541C62.1752 70.8964 60.3627 75.2511 57.1407 78.463C53.9188 81.6749 49.5504 83.4818 44.9939 83.4872ZM44.9939 51.0465C41.9568 51.0465 38.988 51.9443 36.4627 53.6263C33.9375 55.3083 31.9693 57.6991 30.8071 60.4962C29.6449 63.2933 29.3408 66.3711 29.9333 69.3405C30.5258 72.3099 31.9883 75.0374 34.1358 77.1783C36.2833 79.3191 39.0194 80.777 41.9981 81.3677C44.9768 81.9583 48.0643 81.6551 50.8702 80.4965C53.6761 79.3379 56.0743 77.3759 57.7616 74.8586C59.4489 72.3413 60.3495 69.3817 60.3495 66.3541C60.3448 62.2957 58.7255 58.4048 55.8468 55.5351C52.9681 52.6653 49.065 51.0511 44.9939 51.0465Z" fill="#353535"/>
<path d="M40.3477 58.7732C40.3477 57.434 41.0077 56.942 42.281 56.942H46.3696C50.283 56.942 52.2834 58.8198 52.2834 62.0397C52.2834 65.3498 50.0698 67.3236 46.4426 67.3236H42.4241V73.4083C42.4241 73.973 41.9743 74.2816 41.3873 74.2816C40.8003 74.2816 40.3477 73.976 40.3477 73.4083V58.7732ZM46.0396 65.5391C48.7731 65.5391 50.1282 64.2231 50.1282 62.1095C50.1282 59.9231 48.9279 58.7499 46.0396 58.7499H42.9644C42.5409 58.7499 42.4241 58.8896 42.4241 59.2681V65.5391H46.0396Z" fill="#353535"/>
<rect x="216" y="45.6281" width="57" height="11.6667" fill="white"/>
<path d="M233.5 32.2948L243.5 44.3781C224.5 46.4615 222.5 41.8781 221 40.6281C219.5 39.3781 221 37.2948 223.5 33.1281C225.5 29.7948 231 31.1837 233.5 32.2948Z" fill="white"/>
<path d="M255.402 32.2948L245.402 44.3781C264.402 46.4615 266.402 41.8781 267.902 40.6281C269.402 39.3781 267.902 37.2948 265.402 33.1281C263.402 29.7948 257.902 31.1837 255.402 32.2948Z" fill="white"/>
<rect x="222" y="53.9614" width="44" height="35.8333" fill="white"/>
<path d="M267.234 90.6H220.781V57.6918H222.891V88.8417H265.124V57.6918H267.234V90.6Z" fill="#333333"/>
<path d="M273.032 58.3951H251.03V56.6649H270.956V46.3121H217.076V56.6649H237.838V58.3951H215V44.5819H273.032V58.3951Z" fill="#333333"/>
<path d="M252.076 90.6281H236.732V44.6945H252.076V90.6281ZM238.851 88.8698H249.966V46.4528H238.851V88.8698Z" fill="#333333"/>
<path d="M246.32 45.7705L231.289 45.7143C226.562 45.5244 222.925 44.1599 220.984 41.8812C220.298 41.0751 219.845 40.1481 219.659 39.1723C219.473 38.1965 219.56 37.1981 219.912 36.2547L219.971 36.0859C220.515 34.5463 221.629 33.1894 223.154 32.2091C224.678 31.2289 226.536 30.6755 228.461 30.6281C230.984 30.7018 233.393 31.5222 235.255 32.942C236.388 33.7645 237.381 34.7109 238.209 35.7553L246.32 45.7705ZM228.461 32.52C227.029 32.5589 225.647 32.9734 224.514 33.7046C223.38 34.4357 222.553 35.4462 222.148 36.5922L222.089 36.761C221.826 37.4332 221.756 38.1475 221.885 38.8464C222.014 39.5452 222.338 40.209 222.832 40.784C224.36 42.5845 227.389 43.6606 231.348 43.8223L242.032 43.8646L236.327 36.8314C235.622 35.9249 234.77 35.1036 233.795 34.3909C232.347 33.2507 230.452 32.5861 228.461 32.52Z" fill="#333333"/>
<path d="M242.033 45.7705L250.143 35.7623C250.971 34.7179 251.965 33.7716 253.097 32.9491C254.949 31.5364 257.341 30.7165 259.849 30.6352C261.771 30.6792 263.628 31.2279 265.154 32.2028C266.68 33.1778 267.798 34.5293 268.348 36.0648L268.407 36.2336C268.759 37.177 268.846 38.1754 268.66 39.1512C268.474 40.127 268.021 41.054 267.335 41.8601C265.394 44.1389 261.757 45.5033 257.081 45.6932L242.033 45.7705ZM259.883 32.5201C257.899 32.5876 256.011 33.2494 254.566 34.3838C253.591 35.0966 252.739 35.9178 252.034 36.8243L246.329 43.8575L257.064 43.8153C260.972 43.6536 264.002 42.5775 265.504 40.777C265.998 40.2019 266.322 39.5382 266.451 38.8393C266.58 38.1405 266.51 37.4261 266.247 36.754L266.187 36.5852C265.782 35.4416 264.955 34.4334 263.823 33.7037C262.692 32.974 261.313 32.5599 259.883 32.5201Z" fill="#333333"/>
</svg>
