<svg width="290" height="105" viewBox="0 0 290 105" fill="none" xmlns="http://www.w3.org/2000/svg">
<path d="M145 104.368C225.081 104.368 290 95.414 290 84.3683C290 73.3226 225.081 64.3683 145 64.3683C64.9187 64.3683 0 73.3226 0 84.3683C0 95.414 64.9187 104.368 145 104.368Z" fill="#E6E6E6"/>
<path d="M207.957 61.3738H209.19L208.935 60.167L196.6 1.81947L196.432 1.02631H195.622H88.055H87.2444L87.0767 1.81942L74.7384 60.1669L74.4832 61.3738H75.7168H207.957Z" fill="#E9E9E9" stroke="#383838" stroke-width="2"/>
<path d="M80.1938 40.203L75.7168 61.3738H207.957L203.48 40.203H80.1938Z" fill="#CBCBCB"/>
<path d="M236.798 50.8251V49.8251H235.798H49.7983H48.7983V50.8251V81.444V82.444H49.7983H235.798H236.798V81.444V50.8251Z" fill="#BFBFBF" stroke="#383838" stroke-width="2"/>
</svg>
