<svg width="70" height="70" viewBox="0 0 70 70" fill="none" xmlns="http://www.w3.org/2000/svg">
<circle cx="35" cy="35" r="34.5" fill="white" stroke="#FF0097"/>
<circle cx="35" cy="35" r="24" fill="#FF0097"/>
<path d="M6.10563 31.8284L7.01874 33.6802L9.06277 33.9778L7.5842 35.4185L7.93288 37.4544L6.10563 36.4932L4.27735 37.4544L4.62603 35.4185L3.14746 33.9778L5.19149 33.6802L6.10563 31.8284Z" fill="#FF0097"/>
<path d="M8.80532 22.1431L9.03027 24.1953L10.8493 25.1738L8.96688 26.0225L8.59877 28.0553L7.20916 26.5266L5.16309 26.8048L6.18766 25.0112L5.2909 23.1503L7.31243 23.5705L8.80532 22.1431Z" fill="#FF0097"/>
<path d="M6.88094 41.8533L8.37383 43.2807L10.3954 42.8615L9.4986 44.7215L10.5232 46.515L8.47608 46.2368L7.08749 47.7655L6.71938 45.7327L4.83691 44.884L6.65599 43.9065L6.88094 41.8533Z" fill="#FF0097"/>
<path d="M61.0348 22.1431L60.8098 24.1953L58.9907 25.1738L60.8732 26.0225L61.2413 28.0553L62.6309 26.5266L64.677 26.8048L63.6524 25.0112L64.5492 23.1503L62.5276 23.5705L61.0348 22.1431Z" fill="#FF0097"/>
<path d="M62.9591 41.8533L61.4673 43.2807L59.4447 42.8615L60.3415 44.7215L59.3169 46.515L61.364 46.2368L62.7526 47.7655L63.1207 45.7327L65.0042 44.884L63.1851 43.9065L62.9591 41.8533Z" fill="#FF0097"/>
<path d="M63.9784 31.7098L64.9314 33.6403L67.0613 33.9491L65.5203 35.4522L65.8833 37.573L63.9784 36.5719L62.0734 37.573L62.4374 35.4522L60.8965 33.9491L63.0264 33.6403L63.9784 31.7098Z" fill="#FF0097"/>
<path d="M36.0146 36.0262V49.5589H44.2464C44.6715 49.5589 45.0791 49.39 45.3796 49.0895C45.6801 48.789 45.849 48.3813 45.849 47.9563V36.0262H36.0146Z" fill="#383838"/>
<path d="M36.0146 36.0262V49.5589H44.2464C44.6715 49.5589 45.0791 49.39 45.3796 49.0895C45.6801 48.789 45.849 48.3813 45.849 47.9563V36.0262H36.0146Z" fill="white"/>
<path d="M36.0146 34.9961H48V30.4662C48 30.0412 47.8311 29.6336 47.5306 29.333C47.2301 29.0325 46.8224 28.8636 46.3974 28.8636H36.0146V34.9961Z" fill="#383838"/>
<path d="M36.0146 34.9961H48V30.4662C48 30.0412 47.8311 29.6336 47.5306 29.333C47.2301 29.0325 46.8224 28.8636 46.3974 28.8636H36.0146V34.9961Z" fill="white"/>
<path d="M34.9853 34.9961V28.8636H24.6026C24.1775 28.8636 23.7699 29.0325 23.4694 29.333C23.1688 29.6336 23 30.0412 23 30.4662V34.9952L34.9853 34.9961Z" fill="#383838"/>
<path d="M34.9853 34.9961V28.8636H24.6026C24.1775 28.8636 23.7699 29.0325 23.4694 29.333C23.1688 29.6336 23 30.0412 23 30.4662V34.9952L34.9853 34.9961Z" fill="white"/>
<path d="M34.9852 36.0262H25.1509V47.9563C25.1509 48.3813 25.3197 48.789 25.6203 49.0895C25.9208 49.39 26.3284 49.5589 26.7534 49.5589H34.9852V36.0262Z" fill="#383838"/>
<path d="M34.9852 36.0262H25.1509V47.9563C25.1509 48.3813 25.3197 48.789 25.6203 49.0895C25.9208 49.39 26.3284 49.5589 26.7534 49.5589H34.9852V36.0262Z" fill="white"/>
<path d="M32.9837 22.1908C31.5254 20.7325 29.2969 20.5972 28.0069 21.8872C26.7159 23.1782 26.8495 25.4057 28.3096 26.864C30.5167 29.0702 34.9869 28.8654 34.9869 28.8654C34.9869 28.8654 35.1899 24.397 32.9837 22.1908ZM34.3503 28.2672C34.3503 28.2672 31.4328 28.4007 29.9923 26.9602C29.0405 26.0084 28.9524 24.5564 29.7946 23.7115C30.6369 22.8683 32.0916 22.9574 33.0434 23.9091C34.4839 25.3496 34.3503 28.2663 34.3503 28.2672Z" fill="#383838"/>
<path d="M32.9837 22.1908C31.5254 20.7325 29.2969 20.5972 28.0069 21.8872C26.7159 23.1782 26.8495 25.4057 28.3096 26.864C30.5167 29.0702 34.9869 28.8654 34.9869 28.8654C34.9869 28.8654 35.1899 24.397 32.9837 22.1908ZM34.3503 28.2672C34.3503 28.2672 31.4328 28.4007 29.9923 26.9602C29.0405 26.0084 28.9524 24.5564 29.7946 23.7115C30.6369 22.8683 32.0916 22.9574 33.0434 23.9091C34.4839 25.3496 34.3503 28.2663 34.3503 28.2672Z" fill="white"/>
<path d="M42.9941 21.8863C41.7031 20.5963 39.4747 20.7289 38.0172 22.1899C35.8102 24.397 36.0158 28.8672 36.0158 28.8672C36.0158 28.8672 40.4834 29.0729 42.6931 26.8658C44.1479 25.4057 44.2841 23.1773 42.9941 21.8863ZM41.0452 26.9611C39.6046 28.4016 36.688 28.2681 36.688 28.2681C36.688 28.2681 36.5536 25.3505 37.9941 23.91C38.9458 22.9583 40.3979 22.8692 41.2437 23.7123C42.0886 24.551 41.9996 26.0058 41.0452 26.9575V26.9611Z" fill="#383838"/>
<path d="M42.9941 21.8863C41.7031 20.5963 39.4747 20.7289 38.0172 22.1899C35.8102 24.397 36.0158 28.8672 36.0158 28.8672C36.0158 28.8672 40.4834 29.0729 42.6931 26.8658C44.1479 25.4057 44.2841 23.1773 42.9941 21.8863ZM41.0452 26.9611C39.6046 28.4016 36.688 28.2681 36.688 28.2681C36.688 28.2681 36.5536 25.3505 37.9941 23.91C38.9458 22.9583 40.3979 22.8692 41.2437 23.7123C42.0886 24.551 41.9996 26.0058 41.0452 26.9575V26.9611Z" fill="white"/>
<path d="M27.8894 60.1598C28.2197 60.2606 28.5323 60.4119 28.8164 60.6083C28.8957 60.6706 28.9828 60.7225 29.0754 60.7626C29.1941 60.7824 29.315 60.7866 29.4348 60.775C29.4948 60.7738 29.5546 60.7824 29.6118 60.8004C29.7595 60.8455 29.8681 60.9739 29.9529 61.191C30.0804 61.515 30.0939 61.8726 29.9911 62.2053C29.9388 62.4051 29.818 62.5802 29.6497 62.7C29.5747 62.7504 29.4891 62.7828 29.3996 62.7946C29.3101 62.8065 29.219 62.7974 29.1335 62.7682C28.9711 62.7128 28.8315 62.6054 28.7362 62.4627C28.6539 62.3109 28.5833 62.1531 28.5249 61.9906C28.3466 61.546 28.0695 61.2653 27.6935 61.1487C27.54 61.0944 27.3759 61.0771 27.2144 61.098C27.0529 61.1189 26.8986 61.1775 26.764 61.2691C26.4853 61.4569 26.2803 61.7618 26.1491 62.1839C25.9539 62.7507 25.9473 63.3654 26.1302 63.9363C26.1981 64.1286 26.3045 64.3049 26.4431 64.4546C26.5658 64.5932 26.7231 64.6969 26.8989 64.755C26.9608 64.7763 27.0264 64.7845 27.0917 64.779C27.157 64.7736 27.2204 64.7547 27.2779 64.7235C27.3364 64.6907 27.3877 64.6467 27.429 64.5938C27.4702 64.541 27.5005 64.4805 27.5181 64.4159C27.5385 64.3669 27.5467 64.3136 27.5417 64.2608C27.5368 64.2079 27.519 64.1571 27.4898 64.1127C27.4717 64.0869 27.4479 64.0657 27.4202 64.0506C27.3468 64.0211 27.2718 63.9955 27.1956 63.974C27.0914 63.9438 27.0032 63.8739 26.9499 63.7795C26.9242 63.7326 26.9085 63.6809 26.904 63.6277C26.8994 63.5745 26.9061 63.5209 26.9234 63.4704C26.9909 63.2526 27.1835 63.1426 27.5015 63.1405C27.8906 63.1464 28.2766 63.2113 28.6463 63.3331C29.0266 63.4423 29.389 63.6061 29.7223 63.8194C29.9768 63.9966 30.0735 64.2036 30.0001 64.4378C29.9867 64.4835 29.9643 64.5261 29.9343 64.5631C29.9042 64.6001 29.8672 64.6308 29.8253 64.6534C29.7358 64.703 29.6314 64.7187 29.5313 64.6976C29.4659 64.6805 29.3969 64.6821 29.3324 64.7024C29.2713 64.7503 29.2211 64.8105 29.1849 64.8791C28.9488 65.2543 28.6031 65.5478 28.1945 65.7198C27.8907 65.8444 27.566 65.9101 27.2377 65.9134C26.8795 65.921 26.5225 65.8699 26.1808 65.7623C25.626 65.5952 25.1236 65.2884 24.7215 64.8712C24.3553 64.4959 24.098 64.0282 23.9768 63.518C23.8557 63.0079 23.8753 62.4744 24.0336 61.9745C24.1833 61.4961 24.4628 61.0687 24.841 60.7398C25.2562 60.3661 25.7712 60.1215 26.3231 60.0357C26.8476 59.9504 27.3849 59.9929 27.8894 60.1598Z" fill="#FF0097"/>
<path d="M32.9179 61.2285C33.2139 61.2598 33.506 61.3201 33.7901 61.4086C34.1536 61.5244 34.322 61.7024 34.2951 61.9426C34.293 62.0077 34.2659 62.0695 34.2194 62.1151C34.1265 62.1762 34.0256 62.2243 33.9196 62.2581C33.7825 62.304 33.6884 62.4354 33.6247 62.6435C33.5288 63.052 33.4636 63.4671 33.4295 63.8853C33.3118 64.9296 33.2655 65.5787 33.2905 65.8327C33.2959 65.9016 33.3191 65.9679 33.3579 66.0251C33.4123 66.0891 33.4772 66.1435 33.5497 66.1859C33.7204 66.2881 33.7978 66.417 33.7797 66.5725C33.7562 66.7893 33.5728 66.9211 33.2296 66.9678C32.784 67.014 32.3345 67.008 31.8903 66.9501C30.9997 66.8495 30.5736 66.6302 30.6119 66.292C30.6248 66.1698 30.7252 66.0648 30.9128 65.9771C30.9788 65.9492 31.0378 65.9069 31.0854 65.8534C31.133 65.7999 31.1682 65.7364 31.1882 65.6676C31.2744 65.3617 31.3743 64.7031 31.4877 63.6917C31.5658 62.9926 31.5803 62.5404 31.5309 62.3353C31.4921 62.1995 31.407 62.0815 31.2905 62.0017C31.2127 61.9405 31.1445 61.868 31.0881 61.7866C31.0542 61.7278 31.0412 61.6593 31.0513 61.5923C31.0581 61.5342 31.0805 61.4792 31.1162 61.4329C31.1519 61.3867 31.1996 61.3511 31.254 61.33C31.4531 61.2574 31.6626 61.2172 31.8744 61.2109C32.222 61.1823 32.5715 61.1882 32.9179 61.2285Z" fill="#FF0097"/>
<path d="M37.612 62.237C37.4237 62.2482 37.3094 62.3032 37.2707 62.4016C37.2311 62.5395 37.2085 62.6817 37.2035 62.8251C37.1884 63.0137 37.1855 63.2032 37.195 63.3922C37.193 63.4332 37.2024 63.474 37.2221 63.5101C37.2418 63.5461 37.2711 63.576 37.3068 63.5965C37.4268 63.6378 37.5547 63.6504 37.6804 63.6331C37.7749 63.6348 37.8674 63.6059 37.9442 63.5509C38.0061 63.4899 38.0439 63.4085 38.0505 63.3217C38.0961 63.0192 38.2164 62.8621 38.4112 62.8503C38.7462 62.8307 38.937 63.2218 38.9836 64.0236C39.0141 64.5308 38.9633 64.9085 38.8313 65.1565C38.8007 65.2244 38.752 65.2827 38.6907 65.325C38.6293 65.3673 38.5576 65.392 38.4832 65.3965C38.3218 65.4063 38.2215 65.3026 38.181 65.0859C38.1684 64.9859 38.1455 64.8875 38.1125 64.7923C38.0837 64.7298 38.0396 64.6756 37.9843 64.6347C37.8687 64.5477 37.7234 64.5097 37.58 64.5291C37.4611 64.5383 37.3747 64.5627 37.3331 64.6094C37.2858 64.6853 37.2701 64.7768 37.2895 64.8641C37.2914 64.8856 37.297 65.0141 37.3087 65.2473C37.3355 65.7223 37.4017 66.0089 37.5073 66.1073C37.5351 66.1413 37.5716 66.167 37.613 66.1817C37.7029 66.2002 37.794 66.212 37.8856 66.2171C37.9588 66.2249 38.0261 66.2613 38.0727 66.3184C38.1259 66.3774 38.1568 66.453 38.1603 66.5323C38.1697 66.7427 38.0569 66.8864 37.8128 66.9612C37.3242 67.0884 36.8229 67.1607 36.3183 67.1769C35.7519 67.2098 35.3601 67.1996 35.143 67.1462C35.0474 67.1232 34.9618 67.0701 34.8987 66.9946C34.8354 66.9229 34.7978 66.8322 34.7918 66.7368C34.787 66.6813 34.7948 66.6254 34.8148 66.5734C34.8348 66.5214 34.8664 66.4746 34.9072 66.4367C34.9776 66.3914 35.0516 66.3519 35.1284 66.3185C35.278 66.2491 35.3618 66.1039 35.3798 65.8828C35.409 65.5416 35.3889 64.7699 35.3195 63.5676C35.3113 63.2295 35.2739 62.8928 35.2076 62.5611C35.1899 62.4912 35.1553 62.4268 35.1067 62.3735C35.0582 62.3202 34.9972 62.2797 34.9293 62.2555C34.8283 62.2254 34.7332 62.178 34.6483 62.1154C34.5997 62.0636 34.5729 61.995 34.5736 61.9239C34.5705 61.8624 34.5834 61.8011 34.6109 61.746C34.6383 61.6908 34.6796 61.6437 34.7305 61.6091C34.8551 61.5175 35.0047 61.4661 35.1593 61.4618C35.2695 61.4562 35.4304 61.4542 35.6431 61.4586C36.0945 61.4696 36.6309 61.4564 37.2521 61.4188C38.248 61.3601 38.9175 61.2937 39.2607 61.2195C39.2959 61.2125 39.3314 61.2078 39.3672 61.2052C39.4229 61.2064 39.4775 61.2204 39.5269 61.246C39.5763 61.2716 39.6192 61.3083 39.6523 61.3531C39.9037 61.628 40.0529 61.9812 40.0746 62.3532C40.0911 62.4967 40.0591 62.6417 39.9836 62.7649C39.9502 62.8156 39.9051 62.8575 39.8522 62.8871C39.7992 62.9168 39.7399 62.9333 39.6793 62.9353C39.6027 62.9456 39.5248 62.9297 39.4583 62.8903C39.3163 62.7716 39.1818 62.6442 39.0555 62.5089C38.9317 62.3777 38.7697 62.2889 38.5925 62.2551C38.2669 62.2189 37.9387 62.2129 37.612 62.237Z" fill="#FF0097"/>
<path d="M41.6649 60.7777L43.7603 60.2001C43.9662 60.1363 44.1637 60.0479 44.3485 59.937C44.4116 59.8984 44.4793 59.868 44.5501 59.8467C44.7649 59.787 45.0179 59.8891 45.3118 60.1522C45.5862 60.3896 45.7859 60.7016 45.8867 61.0502C45.9496 61.2815 45.926 61.4686 45.8151 61.6132C45.7272 61.7249 45.6045 61.8041 45.4665 61.8381C45.3355 61.8774 45.1951 61.8717 45.0677 61.8221C44.9113 61.7494 44.7708 61.6463 44.6544 61.5189C44.567 61.4194 44.4673 61.3313 44.3578 61.2567C44.3275 61.2388 44.2937 61.2273 44.2587 61.223C44.2237 61.2187 44.1881 61.2217 44.1543 61.2318C44.1102 61.2412 44.0699 61.2634 44.0383 61.2957C44.0068 61.328 43.9855 61.3688 43.9771 61.4131C43.9627 61.5559 43.9792 61.7002 44.0256 61.8361L44.6409 64.0625C44.6776 64.2341 44.7486 64.3966 44.8496 64.5401C44.9356 64.6368 45.0555 64.6966 45.1845 64.7071C45.3023 64.7163 45.4174 64.7474 45.5239 64.7987C45.5953 64.8455 45.6455 64.9185 45.6636 65.002C45.7169 65.1931 45.6261 65.3706 45.3972 65.5364C45.1683 65.7022 44.7807 65.8563 44.2491 66.006C43.5905 66.1872 43.0877 66.2675 42.7408 66.2468C42.4484 66.2313 42.2742 66.1223 42.2182 65.92C42.2028 65.869 42.2015 65.8147 42.2144 65.763C42.2273 65.7113 42.2539 65.6641 42.2915 65.6263C42.3732 65.5636 42.4585 65.5058 42.5469 65.4532C42.589 65.4301 42.6255 65.3979 42.6536 65.3589C42.6817 65.32 42.7008 65.2752 42.7094 65.228C42.7211 65.0609 42.7086 64.893 42.6723 64.7296C42.6364 64.5174 42.564 64.1766 42.4552 63.7073C42.3465 63.2379 42.2453 62.8343 42.1516 62.4966C42.1123 62.323 42.0461 62.1566 41.9553 62.0034C41.9346 61.964 41.9013 61.9326 41.8606 61.9144C41.8199 61.8962 41.7743 61.8922 41.7311 61.9031C41.6278 61.9315 41.5511 62.035 41.4896 62.2088C41.4271 62.4408 41.33 62.662 41.2014 62.8649C41.1169 62.9894 40.9935 63.0822 40.8505 63.1287C40.7836 63.1489 40.7131 63.1537 40.6441 63.1429C40.5752 63.132 40.5095 63.1058 40.4521 63.066C40.325 62.9766 40.2352 62.8436 40.1997 62.6922C40.1527 62.5049 40.1396 62.3107 40.1611 62.1188C40.1802 61.9032 40.23 61.6914 40.309 61.4899C40.4348 61.1641 40.5969 60.9742 40.793 60.92C40.8549 60.904 40.9184 60.8951 40.9823 60.8933C41.1336 60.883 41.2566 60.8701 41.3508 60.8553C41.4569 60.8354 41.5617 60.8095 41.6649 60.7777Z" fill="#FF0097"/>
<path d="M25.623 5.7903C25.443 5.85051 25.3469 5.93315 25.3355 6.03876C25.3333 6.18272 25.3487 6.32642 25.3813 6.46665C25.4149 6.65409 25.4617 6.83893 25.5213 7.01978C25.53 7.05983 25.5496 7.09672 25.5778 7.12638C25.6061 7.15605 25.642 7.17734 25.6816 7.18792C25.8082 7.19607 25.935 7.17467 26.0519 7.1254C26.1435 7.10193 26.2252 7.04987 26.2852 6.97678C26.3292 6.90208 26.3445 6.81389 26.3281 6.72875C26.2923 6.42393 26.3674 6.24061 26.5535 6.17879C26.8716 6.07358 27.1578 6.40138 27.412 7.16219C27.5742 7.64472 27.6238 8.02245 27.5607 8.29537C27.5488 8.3692 27.5168 8.43835 27.4683 8.49529C27.4199 8.55223 27.3567 8.59479 27.2857 8.61833C27.1315 8.66863 27.0083 8.59511 26.916 8.39776C26.8784 8.30413 26.8305 8.21504 26.773 8.13216C26.7283 8.07875 26.6712 8.03722 26.6066 8.0113C26.4717 7.96036 26.3224 7.96388 26.1901 8.0211C26.1022 8.03958 26.0245 8.09032 25.9722 8.16332C25.9483 8.24784 25.9583 8.33834 26.0001 8.41559L26.1175 8.7809C26.2676 9.23248 26.4074 9.49147 26.5343 9.56002C26.57 9.58518 26.6118 9.60034 26.6554 9.60394C26.7471 9.59775 26.8383 9.58532 26.9283 9.56673C27.0013 9.55493 27.0761 9.5726 27.1361 9.61586C27.2023 9.6592 27.2516 9.72394 27.2758 9.79926C27.3431 10.0003 27.2691 10.1689 27.0535 10.305C26.614 10.5557 26.1481 10.7571 25.6643 10.9055C25.1276 11.0853 24.7469 11.1775 24.5222 11.1824C24.4241 11.1855 24.3276 11.1567 24.2472 11.1003C24.1671 11.0492 24.1065 10.9727 24.0752 10.8829C24.0557 10.8307 24.0485 10.7746 24.0541 10.7191C24.0598 10.6636 24.0781 10.6101 24.1077 10.5628C24.1638 10.5014 24.225 10.4447 24.2905 10.3933C24.4172 10.287 24.4601 10.1248 24.4191 9.9067C24.3613 9.56787 24.1418 8.82595 23.7606 7.68095C23.591 7.18942 23.4664 6.87621 23.3868 6.74132C23.3517 6.67924 23.3019 6.62666 23.2419 6.58809C23.1819 6.54953 23.1134 6.52615 23.0423 6.51997C22.9373 6.51662 22.8336 6.49473 22.7361 6.45531C22.6752 6.41817 22.6312 6.35886 22.6132 6.28987C22.5944 6.2313 22.5911 6.16885 22.6037 6.10865C22.6163 6.04845 22.6444 5.99256 22.6851 5.94647C22.781 5.8245 22.9125 5.73538 23.0614 5.69144C23.1656 5.65601 23.3212 5.61358 23.5273 5.56136C23.9634 5.45347 24.4776 5.30049 25.0697 5.1024C26.0178 4.78398 26.6466 4.54488 26.9561 4.3851C26.9994 4.36525 27.0323 4.3512 27.0557 4.34344C27.1099 4.33013 27.1664 4.32945 27.2209 4.34146C27.2753 4.35347 27.3263 4.37785 27.3699 4.4127C27.6844 4.61303 27.92 4.91592 28.0367 5.27006C28.0902 5.40618 28.0959 5.5564 28.0529 5.69617C28.0337 5.75362 28.001 5.80566 27.9577 5.84799C27.9144 5.89032 27.8616 5.92172 27.8037 5.9396C27.7321 5.96921 27.6528 5.97443 27.5779 5.95444C27.4104 5.876 27.2476 5.7879 27.0903 5.69059C26.9365 5.59658 26.7571 5.55327 26.5773 5.56678C26.2531 5.61196 25.9336 5.68678 25.623 5.7903Z" fill="#FF0097"/>
<path d="M31.9833 6.89378C31.8794 6.90465 31.8162 6.94254 31.7937 7.00747C31.7678 7.15419 31.767 7.30426 31.7913 7.45125C31.8104 7.72425 31.8582 7.99448 31.934 8.25743C31.9476 8.30371 31.973 8.34565 32.0078 8.37914C32.0584 8.41895 32.1145 8.45132 32.1742 8.47527C32.2479 8.49813 32.3134 8.54166 32.3631 8.60068C32.4127 8.65969 32.4444 8.73172 32.4543 8.8082C32.4709 8.9894 32.3692 9.12744 32.1491 9.22235C31.929 9.31725 31.5459 9.39121 30.9998 9.44423C29.9869 9.53947 29.463 9.39439 29.428 9.00899C29.4201 8.95317 29.4309 8.89629 29.4588 8.84729C29.5123 8.77627 29.5759 8.71355 29.6477 8.66118C29.751 8.58531 29.8275 8.47856 29.8662 8.35635C29.9046 8.16908 29.9167 7.97738 29.9022 7.78677C29.8968 7.59158 29.838 6.89444 29.7258 5.69534C29.7117 5.43414 29.6677 5.17542 29.5948 4.92423C29.572 4.86083 29.5355 4.8032 29.4881 4.7554C29.4406 4.70759 29.3832 4.67076 29.32 4.64751C29.2266 4.61881 29.1394 4.57286 29.0629 4.51204C29.0152 4.46351 28.9872 4.39895 28.9844 4.33094C28.9794 4.28118 28.9849 4.23091 29.0007 4.18345C29.0165 4.13599 29.0422 4.09242 29.0761 4.05561C29.1608 3.96391 29.268 3.89596 29.387 3.85851C29.5429 3.80925 29.704 3.77864 29.8671 3.76731C29.9578 3.75947 30.1846 3.7511 30.5487 3.74411C30.6175 3.74365 30.7256 3.7364 30.8744 3.72197C31.1231 3.70026 31.4499 3.65285 31.855 3.57974C32.1159 3.53677 32.2949 3.50904 32.3985 3.49923C32.9822 3.44266 33.4786 3.53722 33.8877 3.78291C34.0662 3.8871 34.2161 4.03398 34.3238 4.21037C34.4316 4.38675 34.4938 4.58713 34.5051 4.79352C34.5302 5.0347 34.49 5.2782 34.3886 5.49846C34.2924 5.71086 34.1349 5.88965 33.9363 6.01189C33.8521 6.06365 33.814 6.11954 33.819 6.18031C33.8262 6.26 33.8992 6.31753 34.0385 6.3543C34.304 6.41217 34.5423 6.55767 34.7151 6.76739C34.8684 6.96535 34.9945 7.27941 35.0933 7.70958C35.1111 7.83322 35.1595 7.95045 35.2341 8.05063C35.335 8.11905 35.4513 8.16145 35.5725 8.17404C35.6288 8.18781 35.6788 8.22039 35.7141 8.26638C35.7544 8.31584 35.7787 8.37643 35.7838 8.44007C35.7894 8.53433 35.7633 8.62774 35.7097 8.70546C35.651 8.79943 35.5702 8.87762 35.4743 8.93322C35.1857 9.08075 34.8692 9.16556 34.5455 9.1821C34.0111 9.23247 33.6157 9.12732 33.3592 8.86667C33.2316 8.73463 33.1268 8.58235 33.0491 8.41602C32.9198 8.1322 32.8062 7.84152 32.7087 7.54529C32.6543 7.34849 32.5542 7.16731 32.4166 7.01647C32.3562 6.96805 32.2868 6.93224 32.2124 6.91116C32.1379 6.89009 32.06 6.88418 31.9833 6.89378ZM31.5478 4.82162L31.5927 5.78273L31.596 5.82003C31.6061 5.91913 31.6261 5.98264 31.6582 6.01297C31.6842 6.03025 31.7135 6.04212 31.7442 6.0479C31.775 6.05368 31.8065 6.05325 31.8371 6.04662C32.0785 6.02386 32.248 5.94501 32.3456 5.81007C32.4426 5.67479 32.4791 5.47037 32.4529 5.19667C32.4033 4.66898 32.1914 4.4226 31.817 4.45753C31.7758 4.45729 31.7351 4.46565 31.6973 4.48208C31.6596 4.49851 31.6257 4.52265 31.5978 4.55295C31.5524 4.63469 31.5348 4.729 31.5478 4.82162Z" fill="#FF0097"/>
<path d="M37.6314 3.51241L39.7308 3.81074C40.155 3.87074 40.4658 3.90574 40.6631 3.91576C40.8586 3.92609 41.0547 3.91669 41.2484 3.88769C41.2942 3.88012 41.3408 3.87846 41.387 3.88273C41.463 3.8977 41.534 3.93127 41.5938 3.98043C41.6536 4.02959 41.7003 4.09282 41.7297 4.16444C41.8767 4.4534 41.9267 4.78204 41.8723 5.10164C41.8592 5.2507 41.7989 5.39169 41.7002 5.50408C41.6586 5.54831 41.6067 5.58148 41.5491 5.60057C41.4914 5.61967 41.43 5.6241 41.3702 5.61346C41.2955 5.60717 41.2246 5.57742 41.1678 5.52846C41.0984 5.44565 41.0422 5.35265 41.0011 5.25273C40.92 5.06728 40.7775 4.9154 40.5977 4.8226C40.3125 4.70665 40.0121 4.63259 39.7057 4.60272C39.3928 4.55782 39.194 4.58711 39.1105 4.68884C39.0607 4.75767 39.0274 4.83702 39.0132 4.92077C38.992 5.02028 38.952 5.27703 38.8933 5.69101C38.8706 5.85504 38.8831 5.96024 38.9324 6.00765C38.9818 6.05505 39.1193 6.09308 39.3502 6.13077C39.4376 6.15042 39.5291 6.13734 39.6075 6.094C39.6799 6.03271 39.7286 5.94819 39.7456 5.8549C39.7708 5.7462 39.806 5.64004 39.8507 5.53778C39.8813 5.48037 39.9279 5.43305 39.9848 5.40152C40.0472 5.36118 40.1221 5.34484 40.1956 5.35553C40.2525 5.36495 40.3062 5.38814 40.3521 5.42307C40.398 5.45801 40.4346 5.50363 40.4589 5.55597C40.5159 5.69526 40.545 5.84443 40.5443 5.99495C40.555 6.20694 40.545 6.41947 40.5145 6.62951C40.4765 6.99457 40.3569 7.34642 40.1646 7.65899C40.1287 7.72236 40.0743 7.77331 40.0087 7.80505C39.9432 7.83679 39.8695 7.84783 39.7975 7.83669C39.762 7.83566 39.7272 7.82627 39.696 7.80927C39.6648 7.79227 39.638 7.76815 39.6179 7.73886C39.5821 7.64054 39.5685 7.53553 39.5781 7.43135C39.581 7.11817 39.4232 6.93888 39.1047 6.89348C39.0569 6.88092 39.0065 6.88189 38.9592 6.89628C38.9119 6.91067 38.8696 6.93792 38.8368 6.97498C38.7623 7.10419 38.7191 7.24909 38.7107 7.39804C38.6925 7.52569 38.6774 7.69291 38.6665 7.89796C38.6558 8.03455 38.6555 8.17176 38.6657 8.3084C38.6745 8.3546 38.6957 8.39752 38.7271 8.43252C38.7585 8.46752 38.7989 8.49325 38.8439 8.50693C39.0247 8.57126 39.2125 8.61391 39.4034 8.63399C39.8119 8.69121 40.1269 8.68218 40.3482 8.6069C40.5942 8.51202 40.801 8.33686 40.9351 8.10979C41.001 7.9992 41.086 7.90116 41.1861 7.82021C41.2285 7.79503 41.2755 7.77863 41.3244 7.77199C41.3733 7.76534 41.423 7.76859 41.4706 7.78153C41.5182 7.79447 41.5627 7.81685 41.6014 7.84733C41.6402 7.87782 41.6725 7.91578 41.6963 7.95897C41.7585 8.0785 41.7796 8.21516 41.7563 8.34787C41.7173 8.55619 41.6453 8.75694 41.5429 8.94253C41.4334 9.16132 41.2981 9.36621 41.1398 9.55284C41.0877 9.61588 41.0265 9.67087 40.9583 9.71602C40.9087 9.74243 40.8516 9.75113 40.7965 9.74066C40.7212 9.72837 40.647 9.70967 40.5749 9.68475C40.3498 9.61367 40.1197 9.55972 39.8865 9.52337L36.4234 9.03273C36.3074 9.02346 36.198 8.97487 36.1133 8.89499C36.0798 8.85841 36.0553 8.81448 36.0419 8.76673C36.0284 8.71898 36.0264 8.66873 36.0359 8.62004C36.0393 8.55777 36.0657 8.49897 36.1099 8.45498C36.1846 8.40711 36.267 8.37239 36.3534 8.35232C36.4279 8.33475 36.4968 8.29853 36.5535 8.24706C36.6097 8.18496 36.652 8.1116 36.6777 8.03186C36.8586 7.49638 36.9842 6.94375 37.0524 6.38265C37.2009 5.33176 37.2297 4.65957 37.1386 4.36609C37.1248 4.31823 37.0992 4.27462 37.0642 4.2393C37.0055 4.19432 36.9412 4.15719 36.8729 4.12885C36.8053 4.10368 36.749 4.05494 36.7144 3.99159C36.6798 3.92824 36.6693 3.85454 36.6847 3.78403C36.6956 3.69971 36.7348 3.6216 36.796 3.56257C36.8558 3.50189 36.9348 3.46402 37.0196 3.45551C37.2248 3.4556 37.4296 3.47465 37.6314 3.51241Z" fill="#FF0097"/>
<path d="M44.5279 4.85449L46.5097 5.60803C46.9104 5.76067 47.2054 5.86329 47.3946 5.91589C47.584 5.9679 47.7782 6.00089 47.9741 6.01438C48.0202 6.01678 48.0657 6.02522 48.1096 6.03946C48.1799 6.07115 48.2413 6.11961 48.2884 6.1806C48.3356 6.24159 48.367 6.31323 48.38 6.38922C48.4581 6.70315 48.4328 7.03394 48.3078 7.3323C48.2624 7.4745 48.173 7.59859 48.0525 7.68668C48.0022 7.72126 47.944 7.74264 47.8832 7.74884C47.8225 7.75504 47.7612 7.74586 47.7049 7.72216C47.633 7.70021 47.5702 7.65562 47.5257 7.59503C47.4764 7.49884 47.442 7.39576 47.4235 7.28927C47.386 7.09075 47.2811 6.91127 47.1265 6.78123C46.9748 6.65668 46.7002 6.51893 46.3024 6.36799C46.0073 6.25543 45.8071 6.2402 45.7029 6.32053C45.6391 6.37667 45.5889 6.44669 45.5564 6.52522C45.5132 6.61838 45.4186 6.86008 45.2701 7.2502C45.2113 7.40518 45.2005 7.5099 45.2374 7.56663C45.2743 7.62337 45.4007 7.69281 45.6215 7.77662C45.7028 7.81606 45.7959 7.82394 45.8826 7.79872C45.9658 7.75349 46.0307 7.6808 46.0663 7.59305C46.1151 7.49291 46.1729 7.39747 46.2392 7.30794C46.2815 7.25834 46.3373 7.22207 46.3998 7.20351C46.4691 7.17898 46.5449 7.18077 46.613 7.20853C46.6657 7.23012 46.7123 7.26426 46.7488 7.30797C46.7853 7.35168 46.8105 7.40363 46.8224 7.45933C46.8475 7.60814 46.843 7.76043 46.8092 7.90751C46.7732 8.11624 46.7167 8.32093 46.6407 8.51861C46.523 8.86587 46.329 9.18234 46.073 9.44476C46.0238 9.4986 45.9595 9.5362 45.8884 9.55256C45.8174 9.56891 45.7431 9.56325 45.6753 9.53633C45.6401 9.52789 45.6073 9.51104 45.58 9.48722C45.5526 9.4634 45.5314 9.43332 45.5182 9.39953C45.5053 9.29566 45.5154 9.19024 45.5477 9.09069C45.6192 8.78483 45.5048 8.57593 45.203 8.46067C45.1593 8.43787 45.1101 8.42766 45.061 8.43118C45.0118 8.4347 44.9646 8.45181 44.9246 8.48061C44.8224 8.58885 44.7469 8.71957 44.7043 8.86228C44.6586 8.98232 44.6078 9.14191 44.548 9.3376C44.5066 9.46823 44.4756 9.60194 44.4553 9.73748C44.4536 9.78444 44.4648 9.83097 44.4878 9.87196C44.5108 9.91294 44.5447 9.94679 44.5857 9.96979C44.7473 10.0731 44.9209 10.1563 45.1026 10.2175C45.4909 10.363 45.8003 10.4236 46.0308 10.3993C46.2908 10.3595 46.5299 10.2335 46.7096 10.0415C46.7986 9.9484 46.9032 9.87172 47.0187 9.81492C47.0659 9.79929 47.1158 9.79343 47.1654 9.79768C47.215 9.80194 47.2632 9.81624 47.3071 9.8397C47.3509 9.86316 47.3896 9.89529 47.4207 9.93415C47.4517 9.97301 47.4746 10.0178 47.4878 10.0657C47.5222 10.1965 47.5125 10.3349 47.4601 10.4594C47.3761 10.6539 47.2615 10.8337 47.1208 10.992C46.9658 11.181 46.7886 11.3507 46.593 11.4973C46.5281 11.5475 46.4563 11.588 46.3796 11.6173C46.3254 11.6318 46.268 11.6277 46.2163 11.6057C46.1461 11.5762 46.078 11.5416 46.0127 11.5023C45.8088 11.3832 45.596 11.2801 45.3762 11.1937L42.1072 9.94968C41.9963 9.91523 41.9004 9.84404 41.8353 9.74781C41.8106 9.70459 41.7963 9.65618 41.7937 9.60646C41.791 9.55674 41.8 9.50708 41.82 9.46147C41.8372 9.40182 41.8756 9.35053 41.928 9.31723C42.0124 9.28749 42.1011 9.27207 42.1905 9.27161C42.2672 9.27123 42.3425 9.25131 42.4093 9.21374C42.4776 9.16543 42.5349 9.10312 42.5774 9.03096C42.8767 8.55541 43.1267 8.05048 43.3233 7.52407C43.7001 6.53178 43.8764 5.8822 43.852 5.57532C43.8516 5.52633 43.8387 5.47826 43.8146 5.43563C43.7659 5.37977 43.7104 5.33026 43.6494 5.28827C43.5891 5.24897 43.5449 5.18928 43.525 5.12011C43.5051 5.05094 43.5108 4.97692 43.5409 4.91158C43.5708 4.83226 43.6259 4.76492 43.6977 4.71988C43.7696 4.67487 43.8548 4.65574 43.9391 4.66566C44.1407 4.71073 44.3377 4.77394 44.5279 4.85449Z" fill="#FF0097"/>
</svg>
