<svg width="70" height="71" viewBox="0 0 70 71" fill="none" xmlns="http://www.w3.org/2000/svg">
<circle cx="35" cy="36" r="34.5" fill="white" stroke="#383838"/>
<circle cx="35" cy="36" r="23.5" fill="white" stroke="#383838"/>
<path d="M17.0445 31.24H18.7845V36.604C18.7845 37.268 18.9045 37.792 19.1445 38.176C19.3925 38.552 19.8005 38.74 20.3685 38.74C20.7045 38.74 20.9885 38.7 21.2205 38.62C21.4525 38.532 21.6405 38.396 21.7845 38.212C21.9365 38.02 22.0445 37.776 22.1085 37.48C22.1725 37.176 22.2045 36.808 22.2045 36.376V31.24H23.9445V36.484C23.9445 37.116 23.8645 37.66 23.7045 38.116C23.5525 38.564 23.3245 38.936 23.0205 39.232C22.7165 39.52 22.3405 39.736 21.8925 39.88C21.4525 40.016 20.9485 40.084 20.3805 40.084C19.2605 40.084 18.4245 39.796 17.8725 39.22C17.3205 38.644 17.0445 37.7 17.0445 36.388V31.24Z" fill="#383838"/>
<path d="M17.0445 31.24H18.7845V36.604C18.7845 37.268 18.9045 37.792 19.1445 38.176C19.3925 38.552 19.8005 38.74 20.3685 38.74C20.7045 38.74 20.9885 38.7 21.2205 38.62C21.4525 38.532 21.6405 38.396 21.7845 38.212C21.9365 38.02 22.0445 37.776 22.1085 37.48C22.1725 37.176 22.2045 36.808 22.2045 36.376V31.24H23.9445V36.484C23.9445 37.116 23.8645 37.66 23.7045 38.116C23.5525 38.564 23.3245 38.936 23.0205 39.232C22.7165 39.52 22.3405 39.736 21.8925 39.88C21.4525 40.016 20.9485 40.084 20.3805 40.084C19.2605 40.084 18.4245 39.796 17.8725 39.22C17.3205 38.644 17.0445 37.7 17.0445 36.388V31.24Z" fill="#FF0097"/>
<path d="M27.2732 31.004H28.7252V33.164H30.8732V34.532H28.7252V36.668H27.2732V34.532H25.1252V33.164H27.2732V31.004Z" fill="#383838"/>
<path d="M27.2732 31.004H28.7252V33.164H30.8732V34.532H28.7252V36.668H27.2732V34.532H25.1252V33.164H27.2732V31.004Z" fill="#FF0097"/>
<path d="M41.12 30.892V32.956C41.12 33.284 41.1 33.596 41.06 33.892C41.02 34.18 40.944 34.416 40.832 34.6H35.78V35.464C35.78 35.552 35.788 35.608 35.804 35.632C35.828 35.656 35.88 35.668 35.96 35.668H41.48V37.024H38.516V38.38H42.62V39.76H32.72V38.38H36.812V37.024H35C34.416 37.024 34.124 36.712 34.124 36.088V33.304H39.464V32.248H34.124V30.892H41.12ZM44.4678 31.012H51.5598V32.344H46.1238V34.66C46.1238 34.74 46.1318 34.792 46.1478 34.816C46.1718 34.832 46.2238 34.84 46.3038 34.84H51.5598V36.172H45.3078C45.0278 36.172 44.8158 36.1 44.6718 35.956C44.5358 35.812 44.4678 35.628 44.4678 35.404V31.012ZM43.0638 38.356H52.9638V39.712H43.0638V38.356Z" fill="#383838"/>
<path d="M35.002 70.6323C32.6326 70.6329 30.2692 70.3949 27.9475 69.9218C23.4709 69.0048 19.2187 67.2153 15.4334 64.6554C9.80777 60.8571 5.40409 55.5091 2.75577 49.2592C1.859 47.1421 1.17407 44.9414 0.710989 42.6893C-0.236996 38.0341 -0.236996 33.2355 0.710989 28.5803C1.62796 24.1037 3.41745 19.8514 5.97733 16.0662C9.77563 10.4405 15.1236 6.03684 21.3735 3.38853C23.4906 2.49175 25.6913 1.80682 27.9434 1.34374C32.5987 0.395755 37.3972 0.395755 42.0525 1.34374C46.5291 2.26071 50.7813 4.0502 54.5666 6.61008C60.1922 10.4084 64.5959 15.7564 67.2442 22.0063C68.141 24.1234 68.8259 26.3241 69.289 28.5762C70.237 33.2314 70.237 38.03 69.289 42.6852C68.372 47.1618 66.5826 51.4141 64.0227 55.1993C60.2244 60.825 54.8764 65.2287 48.6264 67.877C46.5093 68.7737 44.3086 69.4587 42.0565 69.9218C39.7349 70.3949 37.3714 70.6329 35.002 70.6323ZM35.002 1.82529C16.3577 1.82529 1.18844 16.9945 1.18844 35.6389C1.18844 54.2832 16.3577 69.4504 35.002 69.4504C53.6464 69.4504 68.8156 54.2812 68.8156 35.6368C68.8156 16.9925 53.6464 1.82324 35.002 1.82324V1.82529Z" fill="#383838"/>
<path d="M6.10563 32.8242L7.01874 34.676L9.06277 34.9736L7.5842 36.4143L7.93288 38.4502L6.10563 37.489L4.27735 38.4502L4.62603 36.4143L3.14746 34.9736L5.19149 34.676L6.10563 32.8242Z" fill="#383838"/>
<path d="M8.80532 23.1401L9.03027 25.1923L10.8493 26.1709L8.96688 27.0196L8.59877 29.0524L7.20916 27.5237L5.16309 27.8018L6.18766 26.0083L5.2909 24.1473L7.31243 24.5676L8.80532 23.1401Z" fill="#383838"/>
<path d="M6.88045 42.8478L8.37334 44.2752L10.3949 43.856L9.49812 45.7159L10.5227 47.5095L8.47559 47.2313L7.087 48.76L6.71889 46.7272L4.83643 45.8785L6.6555 44.901L6.88045 42.8478Z" fill="#383838"/>
<path d="M61.0274 23.1401L60.8025 25.1923L58.9834 26.1709L60.8659 27.0196L61.234 29.0524L62.6236 27.5237L64.6697 27.8018L63.6451 26.0083L64.5418 24.1473L62.5203 24.5676L61.0274 23.1401Z" fill="#383838"/>
<path d="M62.9518 42.8478L61.4599 44.2752L59.4374 43.856L60.3341 45.7159L59.3096 47.5095L61.3567 47.2313L62.7453 48.76L63.1134 46.7272L64.9969 45.8785L63.1778 44.901L62.9518 42.8478Z" fill="#383838"/>
<path d="M63.9711 32.7056L64.924 34.6362L67.054 34.945L65.513 36.4481L65.876 38.5688L63.9711 37.5677L62.0661 38.5688L62.4301 36.4481L60.8892 34.945L63.0191 34.6362L63.9711 32.7056Z" fill="#383838"/>
</svg>
