<svg width="130" height="48" viewBox="0 0 130 48" fill="none" xmlns="http://www.w3.org/2000/svg">
<path d="M1.156 9.59H3.621V17.189C3.621 18.1297 3.791 18.872 4.131 19.416C4.48233 19.9487 5.06033 20.215 5.865 20.215C6.341 20.215 6.74333 20.1583 7.072 20.045C7.40067 19.9203 7.667 19.7277 7.871 19.467C8.08633 19.195 8.23933 18.8493 8.33 18.43C8.42067 17.9993 8.466 17.478 8.466 16.866V9.59H10.931V17.019C10.931 17.9143 10.8177 18.685 10.591 19.331C10.3757 19.9657 10.0527 20.4927 9.622 20.912C9.19133 21.32 8.65867 21.626 8.024 21.83C7.40067 22.0227 6.68667 22.119 5.882 22.119C4.29533 22.119 3.111 21.711 2.329 20.895C1.547 20.079 1.156 18.7417 1.156 16.883V9.59ZM23.7769 12.259C23.7769 11.7717 23.8619 11.307 24.0319 10.865C24.2019 10.423 24.4739 10.032 24.8479 9.692C25.2332 9.352 25.7262 9.08 26.3269 8.876C26.9276 8.672 27.6586 8.57 28.5199 8.57C29.3812 8.57 30.1179 8.672 30.7299 8.876C31.3419 9.08 31.8349 9.352 32.2089 9.692C32.5942 10.032 32.8719 10.423 33.0419 10.865C33.2232 11.307 33.3139 11.7717 33.3139 12.259C33.3139 12.7577 33.2232 13.2337 33.0419 13.687C32.8719 14.129 32.5942 14.52 32.2089 14.86C31.8349 15.1887 31.3419 15.455 30.7299 15.659C30.1179 15.8517 29.3812 15.948 28.5199 15.948C27.6586 15.948 26.9276 15.8517 26.3269 15.659C25.7262 15.455 25.2332 15.1887 24.8479 14.86C24.4739 14.52 24.2019 14.129 24.0319 13.687C23.8619 13.2337 23.7769 12.7577 23.7769 12.259ZM21.5159 16.917H35.5409V18.855H29.7099V20.878C29.7099 21.1387 29.6986 21.4107 29.6759 21.694C29.6646 21.9773 29.6419 22.2607 29.6079 22.544C29.5852 22.8273 29.5569 23.0993 29.5229 23.36C29.4889 23.6207 29.4492 23.8587 29.4039 24.074H27.3639V18.855H21.5159V16.917ZM26.2249 12.259C26.2249 12.8937 26.4119 13.3583 26.7859 13.653C27.1712 13.9477 27.7492 14.095 28.5199 14.095C29.3019 14.095 29.8856 13.9477 30.2709 13.653C30.6562 13.3583 30.8489 12.8937 30.8489 12.259C30.8489 11.0917 30.0726 10.508 28.5199 10.508C26.9899 10.508 26.2249 11.0917 26.2249 12.259ZM49.9232 8.655V21.065C49.9232 21.575 49.8949 22.119 49.8382 22.697C49.7815 23.275 49.7079 23.7737 49.6172 24.193H47.5602V18.77C47.2089 18.9627 46.7782 19.127 46.2682 19.263C45.7582 19.3877 45.2312 19.45 44.6872 19.45L39.1452 19.433C38.7825 19.433 38.4992 19.3367 38.2952 19.144C38.0912 18.9513 37.9892 18.6227 37.9892 18.158V13.381H42.7662V11.154H37.9722V9.352H45.1122V12.769C45.1122 13.313 45.0782 13.7833 45.0102 14.18C44.9535 14.5767 44.8459 14.894 44.6872 15.132H40.3862V17.291C40.3862 17.4157 40.4032 17.5007 40.4372 17.546C40.4825 17.58 40.5562 17.597 40.6582 17.597H44.6362C45.2255 17.597 45.7695 17.546 46.2682 17.444C46.7782 17.342 47.2089 17.2117 47.5602 17.053V8.655H49.9232ZM52.4565 15.948H58.2875V14.605H55.9075C55.1482 14.605 54.7685 14.2253 54.7685 13.466V8.672H64.3055V10.61H57.1145V12.412C57.1145 12.5253 57.1315 12.599 57.1655 12.633C57.1995 12.6557 57.2732 12.667 57.3865 12.667H64.3055V14.605H60.6505V15.948H66.4815V17.835H52.4565V15.948ZM54.9215 21.83C54.9215 21.3427 55.0065 20.9007 55.1765 20.504C55.3465 20.096 55.6129 19.7503 55.9755 19.467C56.3495 19.1723 56.8255 18.9513 57.4035 18.804C57.9815 18.6453 58.6785 18.566 59.4945 18.566C60.3105 18.566 61.0075 18.6453 61.5855 18.804C62.1749 18.9513 62.6509 19.1723 63.0135 19.467C63.3875 19.7503 63.6595 20.096 63.8295 20.504C63.9995 20.9007 64.0845 21.3427 64.0845 21.83C64.0845 22.3287 63.9995 22.7763 63.8295 23.173C63.6595 23.5697 63.3875 23.9097 63.0135 24.193C62.6509 24.4763 62.1749 24.6917 61.5855 24.839C61.0075 24.9977 60.3105 25.077 59.4945 25.077C58.6785 25.077 57.9815 24.9977 57.4035 24.839C56.8255 24.6917 56.3495 24.4763 55.9755 24.193C55.6129 23.9097 55.3465 23.5697 55.1765 23.173C55.0065 22.7763 54.9215 22.3287 54.9215 21.83ZM57.3695 21.813C57.3695 22.357 57.5452 22.7367 57.8965 22.952C58.2592 23.1673 58.7919 23.275 59.4945 23.275C60.2085 23.275 60.7412 23.1673 61.0925 22.952C61.4552 22.7367 61.6365 22.357 61.6365 21.813C61.6365 21.2803 61.4552 20.9063 61.0925 20.691C60.7412 20.4757 60.2085 20.368 59.4945 20.368C58.7919 20.368 58.2592 20.4757 57.8965 20.691C57.5452 20.9063 57.3695 21.2803 57.3695 21.813ZM75.7298 12.395V8.893H77.9398V20.385C77.9398 20.929 77.9115 21.5013 77.8548 22.102C77.8095 22.7027 77.7472 23.224 77.6678 23.666H75.7298V14.316H72.7038V12.395H75.7298ZM81.3228 8.655V20.589C81.3228 20.895 81.3172 21.2123 81.3058 21.541C81.2945 21.8697 81.2775 22.1927 81.2548 22.51C81.2322 22.8273 81.1982 23.1333 81.1528 23.428C81.1188 23.7227 81.0792 23.9777 81.0338 24.193H79.0618V8.655H81.3228ZM70.3748 9.471V16.747C70.3748 16.9057 70.3975 17.0077 70.4428 17.053C70.4882 17.087 70.5788 17.104 70.7148 17.104H72.5848C73.0042 17.104 73.3952 17.0757 73.7578 17.019C74.1318 16.951 74.4605 16.866 74.7438 16.764L74.9478 18.464C74.6872 18.6453 74.3245 18.7813 73.8598 18.872C73.4065 18.9627 72.9248 19.008 72.4148 19.008H69.2528C68.8562 19.008 68.5502 18.9117 68.3348 18.719C68.1308 18.515 68.0288 18.175 68.0288 17.699V9.471H70.3748ZM93.5802 8.825V17.614H91.3702V13.772H90.0442V16.764H84.7232C84.2472 16.764 83.9128 16.6733 83.7202 16.492C83.5275 16.3107 83.4312 15.965 83.4312 15.455V9.42H90.0442V11.885H91.3702V8.825H93.5802ZM96.7932 18.617V25.026H88.4462C88.0382 25.026 87.7152 24.9297 87.4772 24.737C87.2505 24.5443 87.1372 24.21 87.1372 23.734V18.617H96.7932ZM96.7932 8.655V17.648H94.5322V8.655H96.7932ZM89.4832 22.884C89.4832 23.054 89.5795 23.139 89.7722 23.139H94.4472V20.504H89.4832V22.884ZM85.7772 14.605C85.7772 14.673 85.7942 14.7353 85.8282 14.792C85.8735 14.8487 85.9528 14.877 86.0662 14.877H87.6812V11.324H85.7772V14.605ZM101.672 9.318V12.497H104.783V9.318H107.061V12.99H109.594V8.655H111.94V20.929C111.94 21.4617 111.912 22.0283 111.855 22.629C111.799 23.2297 111.731 23.751 111.651 24.193H109.594V14.945H107.061V19.212H100.601C100.205 19.212 99.9045 19.1157 99.7005 18.923C99.4965 18.719 99.3945 18.4017 99.3945 17.971V9.318H101.672ZM104.783 17.291V14.418H101.672V17.019C101.672 17.2003 101.757 17.291 101.927 17.291H104.783ZM120.305 18.175V19.824H124.912V18.175H127.275V24.975H119.081C118.333 24.975 117.959 24.567 117.959 23.751V18.175H120.305ZM117.721 8.876H120.101V10.78C120.101 11.392 120.197 11.936 120.39 12.412C120.582 12.888 120.843 13.3073 121.172 13.67C121.512 14.0327 121.908 14.3387 122.362 14.588C122.815 14.8373 123.302 15.0357 123.824 15.183L122.736 17.121C122.384 17.0077 122.033 16.8603 121.682 16.679C121.342 16.4863 121.013 16.271 120.696 16.033C120.378 15.7837 120.089 15.5117 119.829 15.217C119.579 14.911 119.375 14.588 119.217 14.248C118.854 14.894 118.321 15.489 117.619 16.033C116.916 16.5657 116.072 16.9907 115.086 17.308L114.27 15.761C114.972 15.4777 115.545 15.1717 115.987 14.843C116.44 14.5143 116.791 14.1517 117.041 13.755C117.301 13.3583 117.477 12.922 117.568 12.446C117.67 11.9587 117.721 11.426 117.721 10.848V8.876ZM127.275 8.655V17.274H124.912V8.655H127.275ZM124.912 23.139V21.643H120.305V22.884C120.305 23.054 120.401 23.139 120.594 23.139H124.912ZM1.02 37.084H4.658V35.231C4.26133 34.9363 3.96667 34.585 3.774 34.177C3.59267 33.769 3.502 33.31 3.502 32.8C3.502 32.3127 3.587 31.865 3.757 31.457C3.927 31.049 4.19333 30.7033 4.556 30.42C4.91867 30.1253 5.38333 29.8987 5.95 29.74C6.528 29.5813 7.21933 29.502 8.024 29.502C8.84 29.502 9.53133 29.5813 10.098 29.74C10.676 29.8987 11.1463 30.1253 11.509 30.42C11.8717 30.7033 12.1323 31.049 12.291 31.457C12.461 31.865 12.546 32.3127 12.546 32.8C12.546 33.2987 12.4553 33.7463 12.274 34.143C12.104 34.5397 11.8377 34.8853 11.475 35.18V37.084H15.045V38.971H1.02V37.084ZM5.899 32.783C5.899 33.3497 6.08033 33.7463 6.443 33.973C6.80567 34.1997 7.33267 34.313 8.024 34.313C8.72667 34.313 9.25933 34.1997 9.622 33.973C9.98467 33.7463 10.166 33.3497 10.166 32.783C10.166 32.2163 9.98467 31.8197 9.622 31.593C9.25933 31.3663 8.72667 31.253 8.024 31.253C7.33267 31.253 6.80567 31.3663 6.443 31.593C6.08033 31.8197 5.899 32.2163 5.899 32.783ZM8.024 36.064C7.63867 36.064 7.28733 36.047 6.97 36.013V37.084H9.18V36.013C8.81733 36.047 8.432 36.064 8.024 36.064ZM3.434 42.83C3.434 42.3427 3.519 41.9007 3.689 41.504C3.87033 41.096 4.14233 40.7503 4.505 40.467C4.879 40.1723 5.355 39.9513 5.933 39.804C6.52233 39.6453 7.225 39.566 8.041 39.566C8.857 39.566 9.554 39.6453 10.132 39.804C10.7213 39.9513 11.203 40.1723 11.577 40.467C11.951 40.7503 12.223 41.096 12.393 41.504C12.5743 41.9007 12.665 42.3427 12.665 42.83C12.665 43.3287 12.5743 43.7763 12.393 44.173C12.223 44.5697 11.951 44.9097 11.577 45.193C11.203 45.4763 10.7213 45.6917 10.132 45.839C9.554 45.9977 8.857 46.077 8.041 46.077C7.225 46.077 6.52233 45.9977 5.933 45.839C5.355 45.6917 4.879 45.4763 4.505 45.193C4.14233 44.9097 3.87033 44.5697 3.689 44.173C3.519 43.7763 3.434 43.3287 3.434 42.83ZM5.882 42.813C5.882 43.357 6.06333 43.7367 6.426 43.952C6.8 44.1673 7.33833 44.275 8.041 44.275C8.755 44.275 9.29333 44.1673 9.656 43.952C10.03 43.7367 10.217 43.357 10.217 42.813C10.217 42.2803 10.03 41.9063 9.656 41.691C9.29333 41.4757 8.755 41.368 8.041 41.368C7.33833 41.368 6.8 41.4757 6.426 41.691C6.06333 41.9063 5.882 42.2803 5.882 42.813ZM19.5163 30.165H21.9133V32.273C21.9133 32.8737 22.004 33.412 22.1853 33.888C22.378 34.364 22.633 34.7833 22.9503 35.146C23.279 35.4973 23.6643 35.7977 24.1063 36.047C24.5596 36.285 25.047 36.4777 25.5683 36.625L24.4803 38.546C23.7776 38.3193 23.1033 37.9623 22.4573 37.475C21.8113 36.9877 21.324 36.404 20.9953 35.724C20.6326 36.404 20.1 37.016 19.3973 37.56C18.706 38.0927 17.8673 38.5063 16.8813 38.801L16.0823 37.254C16.7736 36.9707 17.3403 36.6647 17.7823 36.336C18.2356 36.0073 18.587 35.6447 18.8363 35.248C19.097 34.8513 19.2726 34.415 19.3633 33.939C19.4653 33.4517 19.5163 32.9133 19.5163 32.324V30.165ZM26.2993 29.655H28.6453V33.412H30.9573V35.35H28.6453V38.019C28.6453 38.2117 28.634 38.4327 28.6113 38.682C28.6 38.92 28.583 39.1693 28.5603 39.43C28.5376 39.6907 28.5093 39.9457 28.4753 40.195C28.4413 40.433 28.4016 40.6483 28.3563 40.841H26.2993V29.655ZM19.4313 39.787H21.7943V43.374C21.7943 43.4873 21.8056 43.5553 21.8283 43.578C21.8623 43.612 21.9303 43.629 22.0323 43.629H29.2743V45.533H20.5533C20.1566 45.533 19.8676 45.4367 19.6863 45.244C19.5163 45.0513 19.4313 44.7737 19.4313 44.411V39.787ZM36.4573 32.647H45.5353V34.5H43.6993C44.3226 35.0327 44.6343 35.7297 44.6343 36.591C44.6343 37.033 44.5663 37.441 44.4303 37.815C44.2943 38.189 44.079 38.512 43.7843 38.784C43.4896 39.056 43.11 39.2713 42.6453 39.43C42.192 39.5773 41.6423 39.651 40.9963 39.651C40.3616 39.651 39.8176 39.5773 39.3643 39.43C38.911 39.2713 38.537 39.056 38.2423 38.784C37.959 38.512 37.7493 38.189 37.6133 37.815C37.4773 37.441 37.4093 37.033 37.4093 36.591C37.4093 35.741 37.7096 35.044 38.3103 34.5H36.4573V32.647ZM46.2663 29.655H48.6123V34.262H50.9243V36.2H48.6123V38.665C48.6123 38.8577 48.601 39.0787 48.5783 39.328C48.567 39.5773 48.5443 39.8323 48.5103 40.093C48.4876 40.3423 48.4593 40.5917 48.4253 40.841C48.3913 41.079 48.3516 41.2887 48.3063 41.47H46.2663V29.655ZM39.6703 40.671H42.0503V43.493C42.0503 43.5837 42.0616 43.6403 42.0843 43.663C42.1183 43.697 42.1863 43.714 42.2883 43.714H49.0883V45.601H40.7923C40.3956 45.601 40.1066 45.5047 39.9253 45.312C39.7553 45.1307 39.6703 44.8473 39.6703 44.462V40.671ZM38.8033 29.536C39.132 29.6947 39.5683 29.825 40.1123 29.927C40.6676 30.029 41.223 30.08 41.7783 30.08H43.2403V31.78H41.0643C40.6336 31.78 40.1803 31.746 39.7043 31.678C39.2396 31.61 38.8486 31.5193 38.5313 31.406L38.8033 29.536ZM39.5683 36.455C39.5683 36.9423 39.693 37.305 39.9423 37.543C40.1916 37.7697 40.5486 37.883 41.0133 37.883C41.9766 37.883 42.4583 37.407 42.4583 36.455C42.4583 36.0017 42.328 35.6673 42.0673 35.452C41.8066 35.2253 41.4553 35.112 41.0133 35.112C40.5826 35.112 40.2313 35.2253 39.9593 35.452C39.6986 35.6673 39.5683 36.0017 39.5683 36.455ZM55.3786 42.507C55.3786 42.031 55.4579 41.5833 55.6166 41.164C55.7753 40.7333 56.0246 40.3593 56.3646 40.042C56.7159 39.7133 57.1693 39.4527 57.7246 39.26C58.2913 39.0673 58.9826 38.971 59.7986 38.971C60.6259 38.971 61.3229 39.0673 61.8896 39.26C62.4563 39.4527 62.9153 39.7133 63.2666 40.042C63.6179 40.3593 63.8729 40.7333 64.0316 41.164C64.1903 41.5833 64.2696 42.031 64.2696 42.507C64.2696 42.983 64.1903 43.4363 64.0316 43.867C63.8729 44.2977 63.6179 44.6717 63.2666 44.989C62.9153 45.3177 62.4563 45.5783 61.8896 45.771C61.3229 45.9637 60.6259 46.06 59.7986 46.06C58.9826 46.06 58.2913 45.9637 57.7246 45.771C57.1693 45.5783 56.7159 45.3177 56.3646 44.989C56.0246 44.6717 55.7753 44.2977 55.6166 43.867C55.4579 43.4363 55.3786 42.983 55.3786 42.507ZM52.4546 30.165H59.4926V32.749C59.4926 33.4743 59.3679 34.1203 59.1186 34.687C58.8806 35.2423 58.4896 35.7693 57.9456 36.268C57.4016 36.7553 56.6989 37.2313 55.8376 37.696C54.9763 38.1607 53.9336 38.665 52.7096 39.209L51.8766 37.594C53.6899 36.8347 55.0103 36.081 55.8376 35.333C56.6649 34.585 57.0786 33.8087 57.0786 33.004V32.052H52.4546V30.165ZM61.7366 29.655H64.0826V33.004H66.3946V34.959H64.0826V36.268C64.0826 36.608 64.0656 36.999 64.0316 37.441C64.0089 37.883 63.9579 38.308 63.8786 38.716H61.7366V29.655ZM57.7756 42.507C57.7756 43.085 57.9456 43.5213 58.2856 43.816C58.6369 44.122 59.1469 44.275 59.8156 44.275C60.4956 44.275 61.0113 44.122 61.3626 43.816C61.7139 43.5213 61.8896 43.085 61.8896 42.507C61.8896 41.963 61.7139 41.538 61.3626 41.232C61.0113 40.926 60.4956 40.773 59.8156 40.773C59.1469 40.773 58.6369 40.926 58.2856 41.232C57.9456 41.538 57.7756 41.963 57.7756 42.507ZM80.7939 29.655V41.589C80.7939 41.895 80.7883 42.2123 80.7769 42.541C80.7656 42.8697 80.7486 43.1927 80.7259 43.51C80.7033 43.8273 80.6693 44.1333 80.6239 44.428C80.5899 44.7227 80.5503 44.9777 80.5049 45.193H78.5329V36.37H77.2239V41.385C77.2239 41.929 77.2013 42.5013 77.1559 43.102C77.1106 43.7027 77.0426 44.224 76.9519 44.666H75.0139V39.481C74.6853 39.6623 74.3056 39.8153 73.8749 39.94C73.4556 40.0533 73.0079 40.11 72.5319 40.11H68.7919C68.3613 40.11 68.0439 40.008 67.8399 39.804C67.6473 39.6 67.5509 39.2657 67.5509 38.801V30.505H73.5689V32.409H69.8119V37.832C69.8119 37.9907 69.8346 38.0927 69.8799 38.138C69.9253 38.172 70.0159 38.189 70.1519 38.189H72.4809C72.9683 38.189 73.4273 38.1493 73.8579 38.07C74.2999 37.9793 74.6853 37.8547 75.0139 37.696V29.893H77.2239V34.466H78.5329V29.655H80.7939ZM94.7682 30.097V33.021C94.7682 33.4857 94.7399 33.9277 94.6832 34.347C94.6266 34.755 94.5189 35.0893 94.3602 35.35H87.2032V36.574C87.2032 36.6987 87.2146 36.778 87.2372 36.812C87.2712 36.846 87.3449 36.863 87.4582 36.863H95.2782V38.784H91.0792V40.705H96.8932V42.66H82.8682V40.705H88.6652V38.784H86.0982C85.2709 38.784 84.8572 38.342 84.8572 37.458V33.514H92.4222V32.018H84.8572V30.097H94.7682ZM98.4746 36.608H99.8346V32.324H98.6276V30.437H106.754V32.324H105.564V34.483C105.564 34.8457 105.547 35.2083 105.513 35.571C105.49 35.9337 105.433 36.2623 105.343 36.557C105.943 36.523 106.448 36.4437 106.856 36.319L107.094 38.002C106.924 38.0927 106.714 38.172 106.465 38.24C106.215 38.308 105.938 38.3647 105.632 38.41C105.337 38.444 105.02 38.4723 104.68 38.495C104.34 38.5177 104 38.529 103.66 38.529H98.4746V36.608ZM109.066 34.942V33.599H107.383V31.78H109.066V29.655H111.412V38.036C111.412 38.2287 111.4 38.4497 111.378 38.699C111.366 38.937 111.344 39.1863 111.31 39.447C111.287 39.6963 111.259 39.9457 111.225 40.195C111.191 40.4443 111.151 40.6597 111.106 40.841H109.066V36.744H107.383V34.942H109.066ZM104.544 39.957V43.476C104.544 43.578 104.555 43.6403 104.578 43.663C104.612 43.6857 104.674 43.697 104.765 43.697H112.007V45.601H103.456C103.059 45.601 102.747 45.499 102.521 45.295C102.294 45.091 102.181 44.7737 102.181 44.343V39.957H104.544ZM102.079 36.608H103.32V32.324H102.079V36.608Z" fill="white"/>
<path d="M15.233 6.089H17.29V9.149H20.333V11.087H17.29V14.113H15.233V11.087H12.19V9.149H15.233V6.089Z" fill="white"/>
</svg>
