<svg width="128" height="32" viewBox="0 0 128 32" fill="none" xmlns="http://www.w3.org/2000/svg">
<path d="M21.1656 0.0949991H25.7196V13.196C25.7196 13.856 25.6866 14.626 25.6206 15.506C25.5766 16.364 25.4776 17.178 25.3236 17.948H21.1656V13.823H15.6216V10.127H21.1656V7.487H15.7536C15.6436 8.785 15.3026 9.94 14.7306 10.952C14.1806 11.964 13.3666 12.921 12.2886 13.823C11.2326 14.703 9.9016 15.583 8.2956 16.463C6.6896 17.321 4.7866 18.256 2.58659 19.268L0.969595 16.034C4.4236 14.56 6.9756 13.097 8.6256 11.645C10.2976 10.193 11.1336 8.642 11.1336 6.992V4.946H1.95959V1.283H15.8196V3.824H21.1656V0.0949991ZM8.2296 25.01C8.2296 24.108 8.3726 23.25 8.65859 22.436C8.96659 21.6 9.46159 20.874 10.1436 20.258C10.8256 19.62 11.7166 19.125 12.8166 18.773C13.9166 18.399 15.2696 18.212 16.8756 18.212C18.4816 18.212 19.8346 18.399 20.9346 18.773C22.0566 19.125 22.9586 19.62 23.6406 20.258C24.3446 20.874 24.8506 21.6 25.1586 22.436C25.4666 23.25 25.6206 24.108 25.6206 25.01C25.6206 25.934 25.4666 26.803 25.1586 27.617C24.8506 28.453 24.3446 29.179 23.6406 29.795C22.9586 30.433 22.0566 30.928 20.9346 31.28C19.8346 31.654 18.4816 31.841 16.8756 31.841C15.2696 31.841 13.9166 31.654 12.8166 31.28C11.7166 30.928 10.8256 30.433 10.1436 29.795C9.46159 29.179 8.96659 28.453 8.65859 27.617C8.3726 26.803 8.2296 25.934 8.2296 25.01ZM12.8826 25.01C12.8826 26.11 13.2126 26.946 13.8726 27.518C14.5546 28.112 15.5666 28.409 16.9086 28.409C18.2726 28.409 19.2846 28.112 19.9446 27.518C20.6266 26.946 20.9676 26.11 20.9676 25.01C20.9676 23.954 20.6266 23.14 19.9446 22.568C19.2846 21.974 18.2726 21.677 16.9086 21.677C15.5666 21.677 14.5546 21.974 13.8726 22.568C13.2126 23.14 12.8826 23.954 12.8826 25.01ZM58.1629 14.681V18.311H46.8439V20.753H53.7079V31.676H37.5709C36.8669 31.676 36.3279 31.522 35.9539 31.214C35.5799 30.906 35.3929 30.356 35.3929 29.564V20.753H42.2569V18.311H30.9379V14.681H58.1629ZM54.4009 0.391999V4.022H51.0679V6.299C51.0679 6.783 51.0349 7.267 50.9689 7.751C50.9029 8.235 50.8039 8.675 50.6719 9.071H54.3349V12.602H34.6009V9.071H38.0329V4.022H34.5019V0.391999H54.4009ZM39.9469 27.749C39.9469 27.925 39.9799 28.035 40.0459 28.079C40.1119 28.145 40.2329 28.178 40.4089 28.178H49.1539V24.251H39.9469V27.749ZM42.4549 9.071H46.6459V4.022H42.4549V9.071ZM70.5628 9.038C70.5628 8.026 70.7058 7.069 70.9918 6.167C71.2998 5.243 71.7728 4.44 72.4108 3.758C73.0708 3.076 73.9178 2.537 74.9518 2.141C76.0078 1.745 77.2948 1.547 78.8128 1.547C80.3308 1.547 81.6178 1.745 82.6738 2.141C83.7518 2.537 84.6208 3.076 85.2808 3.758C85.9408 4.44 86.4138 5.243 86.6998 6.167C87.0078 7.069 87.1618 8.026 87.1618 9.038C87.1618 10.072 87.0078 11.051 86.6998 11.975C86.4138 12.877 85.9408 13.669 85.2808 14.351C84.6208 15.033 83.7518 15.572 82.6738 15.968C81.6178 16.364 80.3308 16.562 78.8128 16.562C77.2948 16.562 76.0078 16.364 74.9518 15.968C73.9178 15.572 73.0708 15.033 72.4108 14.351C71.7728 13.669 71.2998 12.877 70.9918 11.975C70.7058 11.051 70.5628 10.072 70.5628 9.038ZM89.8678 0.0949991H94.4218V7.388H98.9098V11.15H94.4218V16.331C94.4218 16.705 94.3998 17.134 94.3558 17.618C94.3338 18.08 94.3008 18.564 94.2568 19.07C94.2128 19.576 94.1578 20.071 94.0918 20.555C94.0258 21.017 93.9488 21.435 93.8608 21.809H89.8678V0.0949991ZM76.3378 19.268H80.9248V26.726C80.9248 26.946 80.9468 27.078 80.9908 27.122C81.0568 27.188 81.1888 27.221 81.3868 27.221H95.4448V30.917H78.5158C77.7458 30.917 77.1848 30.73 76.8328 30.356C76.5028 29.982 76.3378 29.443 76.3378 28.739V19.268ZM78.8128 5.078C77.4488 5.078 76.4918 5.452 75.9418 6.2C75.3918 6.926 75.1168 7.883 75.1168 9.071C75.1168 10.325 75.3918 11.315 75.9418 12.041C76.4918 12.745 77.4488 13.097 78.8128 13.097C80.1768 13.097 81.1448 12.745 81.7168 12.041C82.3108 11.315 82.6078 10.325 82.6078 9.071C82.6078 7.883 82.3108 6.926 81.7168 6.2C81.1448 5.452 80.1768 5.078 78.8128 5.078ZM116.206 0.556999H120.496V9.434H123.037V0.0949991H127.426V23.261C127.426 23.855 127.415 24.471 127.393 25.109C127.371 25.747 127.338 26.374 127.294 26.99C127.25 27.606 127.184 28.2 127.096 28.772C127.03 29.344 126.953 29.839 126.865 30.257H123.037V13.13H120.496V22.865C120.496 23.921 120.452 25.032 120.364 26.198C120.276 27.364 120.144 28.376 119.968 29.234H116.206V19.004C115.568 19.4 114.798 19.73 113.896 19.994C112.994 20.258 112.048 20.39 111.058 20.39H104.194C103.358 20.39 102.742 20.192 102.346 19.796C101.972 19.4 101.785 18.751 101.785 17.849V1.514H106.174V16.001C106.174 16.309 106.218 16.507 106.306 16.595C106.394 16.661 106.57 16.694 106.834 16.694H110.959C111.993 16.694 112.961 16.595 113.863 16.397C114.765 16.177 115.546 15.902 116.206 15.572V0.556999Z" fill="#383838"/>
<path d="M21.1656 0.0949991H25.7196V13.196C25.7196 13.856 25.6866 14.626 25.6206 15.506C25.5766 16.364 25.4776 17.178 25.3236 17.948H21.1656V13.823H15.6216V10.127H21.1656V7.487H15.7536C15.6436 8.785 15.3026 9.94 14.7306 10.952C14.1806 11.964 13.3666 12.921 12.2886 13.823C11.2326 14.703 9.9016 15.583 8.2956 16.463C6.6896 17.321 4.7866 18.256 2.58659 19.268L0.969595 16.034C4.4236 14.56 6.9756 13.097 8.6256 11.645C10.2976 10.193 11.1336 8.642 11.1336 6.992V4.946H1.95959V1.283H15.8196V3.824H21.1656V0.0949991ZM8.2296 25.01C8.2296 24.108 8.3726 23.25 8.65859 22.436C8.96659 21.6 9.46159 20.874 10.1436 20.258C10.8256 19.62 11.7166 19.125 12.8166 18.773C13.9166 18.399 15.2696 18.212 16.8756 18.212C18.4816 18.212 19.8346 18.399 20.9346 18.773C22.0566 19.125 22.9586 19.62 23.6406 20.258C24.3446 20.874 24.8506 21.6 25.1586 22.436C25.4666 23.25 25.6206 24.108 25.6206 25.01C25.6206 25.934 25.4666 26.803 25.1586 27.617C24.8506 28.453 24.3446 29.179 23.6406 29.795C22.9586 30.433 22.0566 30.928 20.9346 31.28C19.8346 31.654 18.4816 31.841 16.8756 31.841C15.2696 31.841 13.9166 31.654 12.8166 31.28C11.7166 30.928 10.8256 30.433 10.1436 29.795C9.46159 29.179 8.96659 28.453 8.65859 27.617C8.3726 26.803 8.2296 25.934 8.2296 25.01ZM12.8826 25.01C12.8826 26.11 13.2126 26.946 13.8726 27.518C14.5546 28.112 15.5666 28.409 16.9086 28.409C18.2726 28.409 19.2846 28.112 19.9446 27.518C20.6266 26.946 20.9676 26.11 20.9676 25.01C20.9676 23.954 20.6266 23.14 19.9446 22.568C19.2846 21.974 18.2726 21.677 16.9086 21.677C15.5666 21.677 14.5546 21.974 13.8726 22.568C13.2126 23.14 12.8826 23.954 12.8826 25.01ZM58.1629 14.681V18.311H46.8439V20.753H53.7079V31.676H37.5709C36.8669 31.676 36.3279 31.522 35.9539 31.214C35.5799 30.906 35.3929 30.356 35.3929 29.564V20.753H42.2569V18.311H30.9379V14.681H58.1629ZM54.4009 0.391999V4.022H51.0679V6.299C51.0679 6.783 51.0349 7.267 50.9689 7.751C50.9029 8.235 50.8039 8.675 50.6719 9.071H54.3349V12.602H34.6009V9.071H38.0329V4.022H34.5019V0.391999H54.4009ZM39.9469 27.749C39.9469 27.925 39.9799 28.035 40.0459 28.079C40.1119 28.145 40.2329 28.178 40.4089 28.178H49.1539V24.251H39.9469V27.749ZM42.4549 9.071H46.6459V4.022H42.4549V9.071ZM70.5628 9.038C70.5628 8.026 70.7058 7.069 70.9918 6.167C71.2998 5.243 71.7728 4.44 72.4108 3.758C73.0708 3.076 73.9178 2.537 74.9518 2.141C76.0078 1.745 77.2948 1.547 78.8128 1.547C80.3308 1.547 81.6178 1.745 82.6738 2.141C83.7518 2.537 84.6208 3.076 85.2808 3.758C85.9408 4.44 86.4138 5.243 86.6998 6.167C87.0078 7.069 87.1618 8.026 87.1618 9.038C87.1618 10.072 87.0078 11.051 86.6998 11.975C86.4138 12.877 85.9408 13.669 85.2808 14.351C84.6208 15.033 83.7518 15.572 82.6738 15.968C81.6178 16.364 80.3308 16.562 78.8128 16.562C77.2948 16.562 76.0078 16.364 74.9518 15.968C73.9178 15.572 73.0708 15.033 72.4108 14.351C71.7728 13.669 71.2998 12.877 70.9918 11.975C70.7058 11.051 70.5628 10.072 70.5628 9.038ZM89.8678 0.0949991H94.4218V7.388H98.9098V11.15H94.4218V16.331C94.4218 16.705 94.3998 17.134 94.3558 17.618C94.3338 18.08 94.3008 18.564 94.2568 19.07C94.2128 19.576 94.1578 20.071 94.0918 20.555C94.0258 21.017 93.9488 21.435 93.8608 21.809H89.8678V0.0949991ZM76.3378 19.268H80.9248V26.726C80.9248 26.946 80.9468 27.078 80.9908 27.122C81.0568 27.188 81.1888 27.221 81.3868 27.221H95.4448V30.917H78.5158C77.7458 30.917 77.1848 30.73 76.8328 30.356C76.5028 29.982 76.3378 29.443 76.3378 28.739V19.268ZM78.8128 5.078C77.4488 5.078 76.4918 5.452 75.9418 6.2C75.3918 6.926 75.1168 7.883 75.1168 9.071C75.1168 10.325 75.3918 11.315 75.9418 12.041C76.4918 12.745 77.4488 13.097 78.8128 13.097C80.1768 13.097 81.1448 12.745 81.7168 12.041C82.3108 11.315 82.6078 10.325 82.6078 9.071C82.6078 7.883 82.3108 6.926 81.7168 6.2C81.1448 5.452 80.1768 5.078 78.8128 5.078ZM116.206 0.556999H120.496V9.434H123.037V0.0949991H127.426V23.261C127.426 23.855 127.415 24.471 127.393 25.109C127.371 25.747 127.338 26.374 127.294 26.99C127.25 27.606 127.184 28.2 127.096 28.772C127.03 29.344 126.953 29.839 126.865 30.257H123.037V13.13H120.496V22.865C120.496 23.921 120.452 25.032 120.364 26.198C120.276 27.364 120.144 28.376 119.968 29.234H116.206V19.004C115.568 19.4 114.798 19.73 113.896 19.994C112.994 20.258 112.048 20.39 111.058 20.39H104.194C103.358 20.39 102.742 20.192 102.346 19.796C101.972 19.4 101.785 18.751 101.785 17.849V1.514H106.174V16.001C106.174 16.309 106.218 16.507 106.306 16.595C106.394 16.661 106.57 16.694 106.834 16.694H110.959C111.993 16.694 112.961 16.595 113.863 16.397C114.765 16.177 115.546 15.902 116.206 15.572V0.556999Z" fill="#FF0097"/>
</svg>
