<svg width="123" height="31" viewBox="0 0 123 31" fill="none" xmlns="http://www.w3.org/2000/svg">
<path d="M15.4621 5.197V8.695H22.6231V5.197H15.4621ZM15.2311 11.533V15.031H22.3921V11.533H15.2311ZM21.9301 0.379V17.968H26.3191V0.379H21.9301ZM11.9641 2.458V4.57C11.9641 9.355 8.73012 13.183 0.975122 15.196L2.69112 18.661C11.9641 16.12 16.6501 10.774 16.6501 2.458H11.9641ZM2.65812 2.458V5.956H15.0331V2.458H2.65812ZM16.1881 18.364C9.98412 18.364 5.85912 20.74 5.85912 24.568C5.85912 28.396 9.98412 30.805 16.1881 30.805C22.3921 30.805 26.5171 28.396 26.5171 24.568C26.5171 20.74 22.3921 18.364 16.1881 18.364ZM16.1881 21.73C19.9501 21.73 22.1941 22.687 22.1941 24.568C22.1941 26.449 19.9501 27.373 16.1881 27.373C12.4591 27.373 10.2151 26.449 10.2151 24.568C10.2151 22.687 12.4591 21.73 16.1881 21.73ZM42.1175 17.176V21.829H46.5065V17.176H42.1175ZM30.5015 14.668V18.133H58.1225V14.668H30.5015ZM32.9105 1.204V4.702H55.6805V1.204H32.9105ZM33.1415 9.289V12.787H55.4495V9.289H33.1415ZM36.8045 2.491V11.566H41.1935V2.491H36.8045ZM47.3975 2.491V11.566H51.7865V2.491H47.3975ZM33.7025 20.674V30.607H54.8225V20.674H33.7025ZM50.5325 24.073V27.142H38.0255V24.073H50.5325ZM86.449 0.379V22.588H90.838V0.379H86.449ZM89.584 9.124V12.721H94.897V9.124H89.584ZM71.137 26.911V30.409H91.927V26.911H71.137ZM71.137 20.278V28.462H75.526V20.278H71.137ZM75.295 2.326C70.609 2.326 66.979 5.593 66.979 10.114C66.979 14.602 70.609 17.869 75.295 17.869C79.981 17.869 83.611 14.602 83.611 10.114C83.611 5.593 79.981 2.326 75.295 2.326ZM75.295 6.154C77.572 6.154 79.321 7.606 79.321 10.114C79.321 12.589 77.572 14.041 75.295 14.041C73.051 14.041 71.269 12.589 71.269 10.114C71.269 7.606 73.051 6.154 75.295 6.154ZM118.516 0.379V30.937H122.707V0.379H118.516ZM114.523 12.16V15.658H119.605V12.16H114.523ZM111.685 0.906999V29.485H115.777V0.906999H111.685ZM97.7265 3.745V21.4H102.115V3.745H97.7265ZM97.7265 19.75V23.512H99.8385C102.94 23.512 106.438 23.347 110.431 22.621L110.002 18.859C106.207 19.585 102.775 19.75 99.8385 19.75H97.7265Z" fill="#383838"/>
</svg>
