<svg width="153" height="32" viewBox="0 0 153 32" fill="none" xmlns="http://www.w3.org/2000/svg">
<path d="M20.3204 0.345998V31.003H24.7424V0.345998H20.3204ZM8.27541 2.491C3.65541 2.491 0.25641 6.715 0.25641 13.381C0.25641 20.113 3.65541 24.337 8.27541 24.337C12.8954 24.337 16.2944 20.113 16.2944 13.381C16.2944 6.715 12.8954 2.491 8.27541 2.491ZM8.27541 6.484C10.5524 6.484 12.0704 8.893 12.0704 13.381C12.0704 17.935 10.5524 20.377 8.27541 20.377C5.99841 20.377 4.44741 17.935 4.44741 13.381C4.44741 8.893 5.99841 6.484 8.27541 6.484ZM51.0018 0.379V23.446H55.1598V0.379H51.0018ZM41.1348 8.827V12.325H45.9858V8.827H41.1348ZM44.8638 0.873999V22.522H48.9888V0.873999H44.8638ZM30.1788 2.722V18.166H42.2898V2.722H38.1978V7.342H34.3038V2.722H30.1788ZM34.3038 10.708H38.1978V14.701H34.3038V10.708ZM34.6008 26.911V30.409H55.9518V26.911H34.6008ZM34.6008 20.443V28.99H38.9898V20.443H34.6008ZM62.1473 16.12V19.552H83.6303V16.12H62.1473ZM58.9133 23.875V27.439H86.5673V23.875H58.9133ZM62.1473 2.59V17.077H66.6023V6.121H83.3663V2.59H62.1473ZM65.2493 9.322V12.721H82.6733V9.322H65.2493ZM111.726 7.771V11.335H117.534V7.771H111.726ZM116.346 0.379V18.529H120.735V0.379H116.346ZM110.373 19.189C103.905 19.189 99.9117 21.4 99.9117 25.096C99.9117 28.825 103.905 30.97 110.373 30.97C116.841 30.97 120.834 28.825 120.834 25.096C120.834 21.4 116.841 19.189 110.373 19.189ZM110.373 22.522C114.366 22.522 116.478 23.347 116.478 25.096C116.478 26.812 114.366 27.637 110.373 27.637C106.413 27.637 104.301 26.812 104.301 25.096C104.301 23.347 106.413 22.522 110.373 22.522ZM102.222 3.448V5.362C102.222 9.289 100.044 13.348 94.9947 15.064L97.2387 18.529C103.08 16.549 105.786 11.203 105.786 5.362V3.448H102.222ZM103.146 3.448V5.362C103.146 10.807 105.753 15.889 111.429 17.77L113.574 14.305C108.756 12.688 106.677 8.959 106.677 5.362V3.448H103.146ZM96.1827 2.227V5.725H112.617V2.227H96.1827ZM124.95 23.842V27.406H152.604V23.842H124.95ZM136.533 17.308V24.7H140.922V17.308H136.533ZM127.854 2.326V18.232H149.601V2.326H145.245V7.012H132.21V2.326H127.854ZM132.21 10.444H145.245V14.734H132.21V10.444Z" fill="#383838"/>
</svg>
