<svg width="158" height="31" viewBox="0 0 158 31" fill="none" xmlns="http://www.w3.org/2000/svg">
<path d="M0.374941 10.325C0.374941 9.247 0.539941 8.213 0.869941 7.223C1.22194 6.233 1.74994 5.364 2.45394 4.616C3.15794 3.846 4.03794 3.241 5.09394 2.801C6.14994 2.339 7.39294 2.108 8.82294 2.108C10.2529 2.108 11.4959 2.339 12.5519 2.801C13.6299 3.241 14.5209 3.846 15.2249 4.616C15.9289 5.364 16.4569 6.233 16.8089 7.223C17.1609 8.213 17.3369 9.247 17.3369 10.325C17.3369 11.447 17.1609 12.514 16.8089 13.526C16.4569 14.538 15.9289 15.429 15.2249 16.199C14.5209 16.947 13.6299 17.541 12.5519 17.981C11.4959 18.421 10.2529 18.641 8.82294 18.641C7.39294 18.641 6.14994 18.421 5.09394 17.981C4.03794 17.541 3.15794 16.947 2.45394 16.199C1.74994 15.429 1.22194 14.538 0.869941 13.526C0.539941 12.514 0.374941 11.447 0.374941 10.325ZM8.88894 6.068C7.59094 6.068 6.60094 6.442 5.91894 7.19C5.23694 7.916 4.89594 8.972 4.89594 10.358C4.89594 11.832 5.23694 12.943 5.91894 13.691C6.60094 14.439 7.59094 14.813 8.88894 14.813C10.1649 14.813 11.1329 14.439 11.7929 13.691C12.4749 12.943 12.8159 11.832 12.8159 10.358C12.8159 8.972 12.4749 7.916 11.7929 7.19C11.1329 6.442 10.1649 6.068 8.88894 6.068ZM20.5709 0.0949991H25.1249V23.921C25.1249 24.955 25.0699 26.055 24.9599 27.221C24.8499 28.387 24.7179 29.399 24.5639 30.257H20.5709V0.0949991ZM50.4073 0.424999V16.628C50.4073 17.464 50.3633 18.333 50.2753 19.235C50.1873 20.137 50.0663 20.94 49.9123 21.644H46.1173V11.051H43.6093V17.288H32.9503C32.2243 17.288 31.6963 17.079 31.3663 16.661C31.0583 16.243 30.9043 15.671 30.9043 14.945V1.316H35.2273V5.804H39.2863V1.316H43.6093V7.058H46.1173V0.424999H50.4073ZM42.2893 19.928V26.726C42.2893 26.924 42.3113 27.045 42.3553 27.089C42.4213 27.133 42.5533 27.155 42.7513 27.155H57.7003V30.917H40.0123C39.1983 30.917 38.5933 30.719 38.1973 30.323C37.8013 29.927 37.6033 29.3 37.6033 28.442V19.928H42.2893ZM56.6443 0.0949991V16.661C56.6443 17.101 56.6333 17.574 56.6113 18.08C56.5893 18.586 56.5563 19.081 56.5123 19.565C56.4683 20.049 56.4023 20.511 56.3143 20.951C56.2483 21.391 56.1713 21.776 56.0833 22.106H52.2553V0.0949991H56.6443ZM39.2863 13.559V9.533H35.2273V13.097C35.2273 13.405 35.3813 13.559 35.6893 13.559H39.2863ZM65.0966 1.151H84.6986V4.781H69.6176V7.52H84.0056V11.15H69.6176V13.394C69.6176 13.658 69.6506 13.834 69.7166 13.922C69.8046 14.01 69.9806 14.054 70.2446 14.054H84.7316V17.618H67.8026C66.9446 17.618 66.2736 17.442 65.7896 17.09C65.3276 16.738 65.0966 16.034 65.0966 14.978V1.151ZM61.2356 21.446H88.4606V25.175H61.2356V21.446ZM100.86 9.038C100.86 8.026 101.003 7.069 101.289 6.167C101.597 5.243 102.07 4.44 102.708 3.758C103.368 3.076 104.215 2.537 105.249 2.141C106.305 1.745 107.592 1.547 109.11 1.547C110.628 1.547 111.915 1.745 112.971 2.141C114.049 2.537 114.918 3.076 115.578 3.758C116.238 4.44 116.711 5.243 116.997 6.167C117.305 7.069 117.459 8.026 117.459 9.038C117.459 10.072 117.305 11.051 116.997 11.975C116.711 12.877 116.238 13.669 115.578 14.351C114.918 15.033 114.049 15.572 112.971 15.968C111.915 16.364 110.628 16.562 109.11 16.562C107.592 16.562 106.305 16.364 105.249 15.968C104.215 15.572 103.368 15.033 102.708 14.351C102.07 13.669 101.597 12.877 101.289 11.975C101.003 11.051 100.86 10.072 100.86 9.038ZM120.165 0.0949991H124.719V7.388H129.207V11.15H124.719V16.331C124.719 16.705 124.697 17.134 124.653 17.618C124.631 18.08 124.598 18.564 124.554 19.07C124.51 19.576 124.455 20.071 124.389 20.555C124.323 21.017 124.246 21.435 124.158 21.809H120.165V0.0949991ZM106.635 19.268H111.222V26.726C111.222 26.946 111.244 27.078 111.288 27.122C111.354 27.188 111.486 27.221 111.684 27.221H125.742V30.917H108.813C108.043 30.917 107.482 30.73 107.13 30.356C106.8 29.982 106.635 29.443 106.635 28.739V19.268ZM109.11 5.078C107.746 5.078 106.789 5.452 106.239 6.2C105.689 6.926 105.414 7.883 105.414 9.071C105.414 10.325 105.689 11.315 106.239 12.041C106.789 12.745 107.746 13.097 109.11 13.097C110.474 13.097 111.442 12.745 112.014 12.041C112.608 11.315 112.905 10.325 112.905 9.071C112.905 7.883 112.608 6.926 112.014 6.2C111.442 5.452 110.474 5.078 109.11 5.078ZM146.504 0.556999H150.794V9.434H153.335V0.0949991H157.724V23.261C157.724 23.855 157.713 24.471 157.691 25.109C157.669 25.747 157.636 26.374 157.592 26.99C157.548 27.606 157.482 28.2 157.394 28.772C157.328 29.344 157.251 29.839 157.163 30.257H153.335V13.13H150.794V22.865C150.794 23.921 150.75 25.032 150.662 26.198C150.574 27.364 150.442 28.376 150.266 29.234H146.504V19.004C145.866 19.4 145.096 19.73 144.194 19.994C143.292 20.258 142.346 20.39 141.356 20.39H134.492C133.656 20.39 133.04 20.192 132.644 19.796C132.27 19.4 132.083 18.751 132.083 17.849V1.514H136.472V16.001C136.472 16.309 136.516 16.507 136.604 16.595C136.692 16.661 136.868 16.694 137.132 16.694H141.257C142.291 16.694 143.259 16.595 144.161 16.397C145.063 16.177 145.844 15.902 146.504 15.572V0.556999Z" fill="#383838"/>
<path d="M0.374941 10.325C0.374941 9.247 0.539941 8.213 0.869941 7.223C1.22194 6.233 1.74994 5.364 2.45394 4.616C3.15794 3.846 4.03794 3.241 5.09394 2.801C6.14994 2.339 7.39294 2.108 8.82294 2.108C10.2529 2.108 11.4959 2.339 12.5519 2.801C13.6299 3.241 14.5209 3.846 15.2249 4.616C15.9289 5.364 16.4569 6.233 16.8089 7.223C17.1609 8.213 17.3369 9.247 17.3369 10.325C17.3369 11.447 17.1609 12.514 16.8089 13.526C16.4569 14.538 15.9289 15.429 15.2249 16.199C14.5209 16.947 13.6299 17.541 12.5519 17.981C11.4959 18.421 10.2529 18.641 8.82294 18.641C7.39294 18.641 6.14994 18.421 5.09394 17.981C4.03794 17.541 3.15794 16.947 2.45394 16.199C1.74994 15.429 1.22194 14.538 0.869941 13.526C0.539941 12.514 0.374941 11.447 0.374941 10.325ZM8.88894 6.068C7.59094 6.068 6.60094 6.442 5.91894 7.19C5.23694 7.916 4.89594 8.972 4.89594 10.358C4.89594 11.832 5.23694 12.943 5.91894 13.691C6.60094 14.439 7.59094 14.813 8.88894 14.813C10.1649 14.813 11.1329 14.439 11.7929 13.691C12.4749 12.943 12.8159 11.832 12.8159 10.358C12.8159 8.972 12.4749 7.916 11.7929 7.19C11.1329 6.442 10.1649 6.068 8.88894 6.068ZM20.5709 0.0949991H25.1249V23.921C25.1249 24.955 25.0699 26.055 24.9599 27.221C24.8499 28.387 24.7179 29.399 24.5639 30.257H20.5709V0.0949991ZM50.4073 0.424999V16.628C50.4073 17.464 50.3633 18.333 50.2753 19.235C50.1873 20.137 50.0663 20.94 49.9123 21.644H46.1173V11.051H43.6093V17.288H32.9503C32.2243 17.288 31.6963 17.079 31.3663 16.661C31.0583 16.243 30.9043 15.671 30.9043 14.945V1.316H35.2273V5.804H39.2863V1.316H43.6093V7.058H46.1173V0.424999H50.4073ZM42.2893 19.928V26.726C42.2893 26.924 42.3113 27.045 42.3553 27.089C42.4213 27.133 42.5533 27.155 42.7513 27.155H57.7003V30.917H40.0123C39.1983 30.917 38.5933 30.719 38.1973 30.323C37.8013 29.927 37.6033 29.3 37.6033 28.442V19.928H42.2893ZM56.6443 0.0949991V16.661C56.6443 17.101 56.6333 17.574 56.6113 18.08C56.5893 18.586 56.5563 19.081 56.5123 19.565C56.4683 20.049 56.4023 20.511 56.3143 20.951C56.2483 21.391 56.1713 21.776 56.0833 22.106H52.2553V0.0949991H56.6443ZM39.2863 13.559V9.533H35.2273V13.097C35.2273 13.405 35.3813 13.559 35.6893 13.559H39.2863ZM65.0966 1.151H84.6986V4.781H69.6176V7.52H84.0056V11.15H69.6176V13.394C69.6176 13.658 69.6506 13.834 69.7166 13.922C69.8046 14.01 69.9806 14.054 70.2446 14.054H84.7316V17.618H67.8026C66.9446 17.618 66.2736 17.442 65.7896 17.09C65.3276 16.738 65.0966 16.034 65.0966 14.978V1.151ZM61.2356 21.446H88.4606V25.175H61.2356V21.446ZM100.86 9.038C100.86 8.026 101.003 7.069 101.289 6.167C101.597 5.243 102.07 4.44 102.708 3.758C103.368 3.076 104.215 2.537 105.249 2.141C106.305 1.745 107.592 1.547 109.11 1.547C110.628 1.547 111.915 1.745 112.971 2.141C114.049 2.537 114.918 3.076 115.578 3.758C116.238 4.44 116.711 5.243 116.997 6.167C117.305 7.069 117.459 8.026 117.459 9.038C117.459 10.072 117.305 11.051 116.997 11.975C116.711 12.877 116.238 13.669 115.578 14.351C114.918 15.033 114.049 15.572 112.971 15.968C111.915 16.364 110.628 16.562 109.11 16.562C107.592 16.562 106.305 16.364 105.249 15.968C104.215 15.572 103.368 15.033 102.708 14.351C102.07 13.669 101.597 12.877 101.289 11.975C101.003 11.051 100.86 10.072 100.86 9.038ZM120.165 0.0949991H124.719V7.388H129.207V11.15H124.719V16.331C124.719 16.705 124.697 17.134 124.653 17.618C124.631 18.08 124.598 18.564 124.554 19.07C124.51 19.576 124.455 20.071 124.389 20.555C124.323 21.017 124.246 21.435 124.158 21.809H120.165V0.0949991ZM106.635 19.268H111.222V26.726C111.222 26.946 111.244 27.078 111.288 27.122C111.354 27.188 111.486 27.221 111.684 27.221H125.742V30.917H108.813C108.043 30.917 107.482 30.73 107.13 30.356C106.8 29.982 106.635 29.443 106.635 28.739V19.268ZM109.11 5.078C107.746 5.078 106.789 5.452 106.239 6.2C105.689 6.926 105.414 7.883 105.414 9.071C105.414 10.325 105.689 11.315 106.239 12.041C106.789 12.745 107.746 13.097 109.11 13.097C110.474 13.097 111.442 12.745 112.014 12.041C112.608 11.315 112.905 10.325 112.905 9.071C112.905 7.883 112.608 6.926 112.014 6.2C111.442 5.452 110.474 5.078 109.11 5.078ZM146.504 0.556999H150.794V9.434H153.335V0.0949991H157.724V23.261C157.724 23.855 157.713 24.471 157.691 25.109C157.669 25.747 157.636 26.374 157.592 26.99C157.548 27.606 157.482 28.2 157.394 28.772C157.328 29.344 157.251 29.839 157.163 30.257H153.335V13.13H150.794V22.865C150.794 23.921 150.75 25.032 150.662 26.198C150.574 27.364 150.442 28.376 150.266 29.234H146.504V19.004C145.866 19.4 145.096 19.73 144.194 19.994C143.292 20.258 142.346 20.39 141.356 20.39H134.492C133.656 20.39 133.04 20.192 132.644 19.796C132.27 19.4 132.083 18.751 132.083 17.849V1.514H136.472V16.001C136.472 16.309 136.516 16.507 136.604 16.595C136.692 16.661 136.868 16.694 137.132 16.694H141.257C142.291 16.694 143.259 16.595 144.161 16.397C145.063 16.177 145.844 15.902 146.504 15.572V0.556999Z" fill="#FF0097"/>
</svg>
