<svg width="310" height="110" viewBox="0 0 310 110" fill="none" xmlns="http://www.w3.org/2000/svg">
<rect x="100" y="24.5" width="111" height="25" rx="10" fill="#FFF069"/>
<path d="M116.797 34.94C116.797 34.244 116.995 33.662 117.391 33.194C117.799 32.714 118.423 32.474 119.263 32.474H123.979C124.819 32.474 125.437 32.714 125.833 33.194C126.229 33.662 126.427 34.244 126.427 34.94V36.65C126.427 37.346 126.229 37.934 125.833 38.414C125.437 38.894 124.819 39.134 123.979 39.134H119.263C118.423 39.134 117.799 38.894 117.391 38.414C116.995 37.934 116.797 37.346 116.797 36.65V34.94ZM119.821 29.324V27.848H123.457V29.324H126.553V31.052C126.553 31.4 126.463 31.652 126.283 31.808C126.115 31.964 125.857 32.042 125.509 32.042H117.499C117.151 32.042 116.887 31.964 116.707 31.808C116.539 31.652 116.455 31.4 116.455 31.052V29.324H119.821ZM122.773 35.876C122.773 35.672 122.719 35.546 122.611 35.498C122.503 35.45 122.353 35.426 122.161 35.426H121.189C120.997 35.426 120.823 35.45 120.667 35.498C120.523 35.546 120.451 35.672 120.451 35.876C120.451 36.092 120.523 36.23 120.667 36.29C120.823 36.35 120.997 36.38 121.189 36.38H122.161C122.353 36.38 122.503 36.35 122.611 36.29C122.719 36.23 122.773 36.092 122.773 35.876ZM130.549 32.348H132.925V34.4C132.925 34.772 132.811 35.042 132.583 35.21C132.367 35.378 132.061 35.462 131.665 35.462H130.549V39.44C130.549 39.812 130.423 40.112 130.171 40.34C129.919 40.556 129.583 40.664 129.163 40.664H126.895V28.946H130.549V32.348ZM118.885 45.488C118.513 45.488 118.219 45.386 118.003 45.182C117.799 44.99 117.697 44.714 117.697 44.354V39.584H121.369V42.68H130.621V44.354C130.621 44.714 130.513 44.99 130.297 45.182C130.081 45.386 129.787 45.488 129.415 45.488H118.885ZM132.923 28.982H142.067V30.818C142.067 32.846 141.341 34.538 139.889 35.894C138.449 37.238 136.133 37.91 132.941 37.91V35.084C134.693 35.084 136.013 34.796 136.901 34.22C137.801 33.632 138.251 32.9 138.251 32.024V31.772H134.021C133.733 31.772 133.475 31.676 133.247 31.484C133.031 31.28 132.923 31.004 132.923 30.656V28.982ZM146.261 31.916H148.637V33.968C148.637 34.34 148.523 34.61 148.295 34.778C148.079 34.946 147.773 35.03 147.377 35.03H146.261V36.794C146.261 37.166 146.135 37.466 145.883 37.694C145.631 37.91 145.295 38.018 144.875 38.018H142.607V28.946H146.261V31.916ZM142.895 41.906C142.895 41.714 142.841 41.558 142.733 41.438C142.625 41.318 142.379 41.258 141.995 41.258H137.495C137.123 41.258 136.877 41.318 136.757 41.438C136.649 41.558 136.595 41.714 136.595 41.906V42.032C136.595 42.224 136.649 42.38 136.757 42.5C136.877 42.62 137.123 42.68 137.495 42.68H141.995C142.379 42.68 142.625 42.62 142.733 42.5C142.841 42.38 142.895 42.224 142.895 42.032V41.906ZM146.567 42.95C146.567 43.79 146.279 44.432 145.703 44.876C145.139 45.332 144.431 45.56 143.579 45.56H135.911C135.071 45.56 134.363 45.332 133.787 44.876C133.211 44.432 132.923 43.79 132.923 42.95V41.042C132.923 40.202 133.211 39.56 133.787 39.116C134.363 38.66 135.071 38.432 135.911 38.432H143.579C144.431 38.432 145.139 38.66 145.703 39.116C146.279 39.56 146.567 40.202 146.567 41.042V42.95ZM163.36 43.364C163.36 43.916 163.162 44.402 162.766 44.822C162.37 45.254 161.86 45.47 161.236 45.47H159.85V37.622H159.094V43.67C159.094 44.198 158.92 44.63 158.572 44.966C158.236 45.302 157.786 45.47 157.222 45.47H155.566V44.858C155.206 45.002 154.798 45.116 154.342 45.2C153.814 45.308 153.304 45.362 152.812 45.362H149.86C149.452 45.362 149.14 45.254 148.924 45.038C148.708 44.834 148.6 44.528 148.6 44.12V29H154.918L154.936 30.8C154.936 31.148 154.846 31.406 154.666 31.574C154.486 31.73 154.222 31.808 153.874 31.808H152.182V42.572H152.902C153.262 42.572 153.688 42.53 154.18 42.446C154.636 42.362 155.098 42.224 155.566 42.032V28.946H159.094V34.616H159.85V28.946H163.36V43.364ZM178.406 34.886C178.406 35.234 178.322 35.48 178.154 35.624C177.998 35.768 177.746 35.84 177.398 35.84H168.542V37.1H178.766V38.864C178.766 39.212 178.676 39.47 178.496 39.638C178.316 39.794 178.052 39.872 177.704 39.872H165.95C165.602 39.872 165.338 39.794 165.158 39.638C164.978 39.47 164.888 39.212 164.888 38.864V33.05H174.734V31.808H165.86C165.512 31.808 165.254 31.736 165.086 31.592C164.93 31.448 164.852 31.202 164.852 30.854V29H178.406V34.886ZM170.108 42.644V40.43H173.78V42.644H179.378V44.102C179.378 44.51 179.246 44.834 178.982 45.074C178.718 45.314 178.376 45.434 177.956 45.434H165.464C165.056 45.434 164.714 45.314 164.438 45.074C164.174 44.834 164.042 44.51 164.042 44.102V42.644H170.108ZM179.881 35.93H180.925L180.763 31.79C180.523 31.766 180.337 31.694 180.205 31.574C180.049 31.43 179.971 31.184 179.971 30.836V28.982H189.619V30.836V30.926H190.519V28.946H194.173V39.206C194.173 39.578 194.047 39.878 193.795 40.106C193.543 40.322 193.207 40.43 192.787 40.43H190.519V36.164H190.213C190.153 36.164 190.093 36.164 190.033 36.164V38.468C189.781 38.552 189.439 38.618 189.007 38.666C188.575 38.702 188.239 38.72 187.999 38.72H180.925C180.577 38.72 180.313 38.642 180.133 38.486C179.965 38.33 179.881 38.078 179.881 37.73V35.93ZM182.491 45.488C182.119 45.488 181.825 45.386 181.609 45.182C181.405 44.99 181.303 44.714 181.303 44.354V39.26H184.975V42.68H194.227V44.354C194.227 44.714 194.119 44.99 193.903 45.182C193.687 45.386 193.393 45.488 193.021 45.488H182.491ZM190.519 33.824V33.23H190.213C189.913 33.23 189.667 33.14 189.475 32.96C189.283 32.768 189.187 32.522 189.187 32.222V31.7C189.055 31.76 188.893 31.79 188.701 31.79L188.557 35.93C188.833 35.93 189.109 35.924 189.385 35.912H189.493L189.475 35.894C189.283 35.702 189.187 35.456 189.187 35.156V33.824H190.519ZM185.065 35.93L185.173 31.79H184.309L184.435 35.93H185.065Z" fill="#383838"/>
<path d="M116.797 34.94C116.797 34.244 116.995 33.662 117.391 33.194C117.799 32.714 118.423 32.474 119.263 32.474H123.979C124.819 32.474 125.437 32.714 125.833 33.194C126.229 33.662 126.427 34.244 126.427 34.94V36.65C126.427 37.346 126.229 37.934 125.833 38.414C125.437 38.894 124.819 39.134 123.979 39.134H119.263C118.423 39.134 117.799 38.894 117.391 38.414C116.995 37.934 116.797 37.346 116.797 36.65V34.94ZM119.821 29.324V27.848H123.457V29.324H126.553V31.052C126.553 31.4 126.463 31.652 126.283 31.808C126.115 31.964 125.857 32.042 125.509 32.042H117.499C117.151 32.042 116.887 31.964 116.707 31.808C116.539 31.652 116.455 31.4 116.455 31.052V29.324H119.821ZM122.773 35.876C122.773 35.672 122.719 35.546 122.611 35.498C122.503 35.45 122.353 35.426 122.161 35.426H121.189C120.997 35.426 120.823 35.45 120.667 35.498C120.523 35.546 120.451 35.672 120.451 35.876C120.451 36.092 120.523 36.23 120.667 36.29C120.823 36.35 120.997 36.38 121.189 36.38H122.161C122.353 36.38 122.503 36.35 122.611 36.29C122.719 36.23 122.773 36.092 122.773 35.876ZM130.549 32.348H132.925V34.4C132.925 34.772 132.811 35.042 132.583 35.21C132.367 35.378 132.061 35.462 131.665 35.462H130.549V39.44C130.549 39.812 130.423 40.112 130.171 40.34C129.919 40.556 129.583 40.664 129.163 40.664H126.895V28.946H130.549V32.348ZM118.885 45.488C118.513 45.488 118.219 45.386 118.003 45.182C117.799 44.99 117.697 44.714 117.697 44.354V39.584H121.369V42.68H130.621V44.354C130.621 44.714 130.513 44.99 130.297 45.182C130.081 45.386 129.787 45.488 129.415 45.488H118.885ZM132.923 28.982H142.067V30.818C142.067 32.846 141.341 34.538 139.889 35.894C138.449 37.238 136.133 37.91 132.941 37.91V35.084C134.693 35.084 136.013 34.796 136.901 34.22C137.801 33.632 138.251 32.9 138.251 32.024V31.772H134.021C133.733 31.772 133.475 31.676 133.247 31.484C133.031 31.28 132.923 31.004 132.923 30.656V28.982ZM146.261 31.916H148.637V33.968C148.637 34.34 148.523 34.61 148.295 34.778C148.079 34.946 147.773 35.03 147.377 35.03H146.261V36.794C146.261 37.166 146.135 37.466 145.883 37.694C145.631 37.91 145.295 38.018 144.875 38.018H142.607V28.946H146.261V31.916ZM142.895 41.906C142.895 41.714 142.841 41.558 142.733 41.438C142.625 41.318 142.379 41.258 141.995 41.258H137.495C137.123 41.258 136.877 41.318 136.757 41.438C136.649 41.558 136.595 41.714 136.595 41.906V42.032C136.595 42.224 136.649 42.38 136.757 42.5C136.877 42.62 137.123 42.68 137.495 42.68H141.995C142.379 42.68 142.625 42.62 142.733 42.5C142.841 42.38 142.895 42.224 142.895 42.032V41.906ZM146.567 42.95C146.567 43.79 146.279 44.432 145.703 44.876C145.139 45.332 144.431 45.56 143.579 45.56H135.911C135.071 45.56 134.363 45.332 133.787 44.876C133.211 44.432 132.923 43.79 132.923 42.95V41.042C132.923 40.202 133.211 39.56 133.787 39.116C134.363 38.66 135.071 38.432 135.911 38.432H143.579C144.431 38.432 145.139 38.66 145.703 39.116C146.279 39.56 146.567 40.202 146.567 41.042V42.95ZM163.36 43.364C163.36 43.916 163.162 44.402 162.766 44.822C162.37 45.254 161.86 45.47 161.236 45.47H159.85V37.622H159.094V43.67C159.094 44.198 158.92 44.63 158.572 44.966C158.236 45.302 157.786 45.47 157.222 45.47H155.566V44.858C155.206 45.002 154.798 45.116 154.342 45.2C153.814 45.308 153.304 45.362 152.812 45.362H149.86C149.452 45.362 149.14 45.254 148.924 45.038C148.708 44.834 148.6 44.528 148.6 44.12V29H154.918L154.936 30.8C154.936 31.148 154.846 31.406 154.666 31.574C154.486 31.73 154.222 31.808 153.874 31.808H152.182V42.572H152.902C153.262 42.572 153.688 42.53 154.18 42.446C154.636 42.362 155.098 42.224 155.566 42.032V28.946H159.094V34.616H159.85V28.946H163.36V43.364ZM178.406 34.886C178.406 35.234 178.322 35.48 178.154 35.624C177.998 35.768 177.746 35.84 177.398 35.84H168.542V37.1H178.766V38.864C178.766 39.212 178.676 39.47 178.496 39.638C178.316 39.794 178.052 39.872 177.704 39.872H165.95C165.602 39.872 165.338 39.794 165.158 39.638C164.978 39.47 164.888 39.212 164.888 38.864V33.05H174.734V31.808H165.86C165.512 31.808 165.254 31.736 165.086 31.592C164.93 31.448 164.852 31.202 164.852 30.854V29H178.406V34.886ZM170.108 42.644V40.43H173.78V42.644H179.378V44.102C179.378 44.51 179.246 44.834 178.982 45.074C178.718 45.314 178.376 45.434 177.956 45.434H165.464C165.056 45.434 164.714 45.314 164.438 45.074C164.174 44.834 164.042 44.51 164.042 44.102V42.644H170.108ZM179.881 35.93H180.925L180.763 31.79C180.523 31.766 180.337 31.694 180.205 31.574C180.049 31.43 179.971 31.184 179.971 30.836V28.982H189.619V30.836V30.926H190.519V28.946H194.173V39.206C194.173 39.578 194.047 39.878 193.795 40.106C193.543 40.322 193.207 40.43 192.787 40.43H190.519V36.164H190.213C190.153 36.164 190.093 36.164 190.033 36.164V38.468C189.781 38.552 189.439 38.618 189.007 38.666C188.575 38.702 188.239 38.72 187.999 38.72H180.925C180.577 38.72 180.313 38.642 180.133 38.486C179.965 38.33 179.881 38.078 179.881 37.73V35.93ZM182.491 45.488C182.119 45.488 181.825 45.386 181.609 45.182C181.405 44.99 181.303 44.714 181.303 44.354V39.26H184.975V42.68H194.227V44.354C194.227 44.714 194.119 44.99 193.903 45.182C193.687 45.386 193.393 45.488 193.021 45.488H182.491ZM190.519 33.824V33.23H190.213C189.913 33.23 189.667 33.14 189.475 32.96C189.283 32.768 189.187 32.522 189.187 32.222V31.7C189.055 31.76 188.893 31.79 188.701 31.79L188.557 35.93C188.833 35.93 189.109 35.924 189.385 35.912H189.493L189.475 35.894C189.283 35.702 189.187 35.456 189.187 35.156V33.824H190.519ZM185.065 35.93L185.173 31.79H184.309L184.435 35.93H185.065Z" fill="#685DFF"/>
<path d="M113.36 7.472C113.36 8.348 113.048 9.086 112.424 9.686C111.812 10.274 111.062 10.568 110.174 10.568H102.542C101.654 10.568 100.898 10.274 100.274 9.686C99.6615 9.086 99.3555 8.348 99.3555 7.472V5.024C99.3555 4.136 99.6615 3.398 100.274 2.81C100.898 2.222 101.654 1.928 102.542 1.928H110.174C111.062 1.928 111.812 2.222 112.424 2.81C113.048 3.398 113.36 4.136 113.36 5.024V7.472ZM103.064 6.77C103.064 7.07 103.136 7.31 103.28 7.49C103.436 7.658 103.718 7.742 104.126 7.742H108.59C108.998 7.742 109.274 7.658 109.418 7.49C109.574 7.31 109.652 7.07 109.652 6.77V5.726C109.652 5.414 109.574 5.174 109.418 5.006C109.274 4.838 108.998 4.754 108.59 4.754H104.126C103.718 4.754 103.436 4.838 103.28 5.006C103.136 5.174 103.064 5.414 103.064 5.726V6.77ZM108.302 14.006V17.156C108.302 17.516 108.152 17.822 107.852 18.074C107.552 18.338 107.21 18.47 106.826 18.47H104.648V14.006H99.7875C99.4035 14.006 99.1155 13.922 98.9235 13.754C98.7315 13.574 98.6355 13.292 98.6355 12.908V11.234H114.08V12.908C114.08 13.292 113.984 13.574 113.792 13.754C113.6 13.922 113.312 14.006 112.928 14.006H108.302ZM128.748 16.148C128.748 16.808 128.52 17.36 128.064 17.804C127.62 18.26 127.068 18.488 126.408 18.488H125.094V17.876C124.242 18.128 123.618 18.278 123.222 18.326C122.814 18.386 122.292 18.416 121.656 18.416H116.49C116.082 18.416 115.77 18.308 115.554 18.092C115.338 17.888 115.23 17.582 115.23 17.174V8.444H120.108V4.79H116.184C115.836 4.79 115.578 4.718 115.41 4.574C115.254 4.43 115.176 4.184 115.176 3.836V1.982H123.78V10.244C123.78 10.592 123.696 10.838 123.528 10.982C123.372 11.126 123.12 11.198 122.772 11.198H118.884V15.626H121.89C122.286 15.626 122.79 15.578 123.402 15.482C123.99 15.386 124.554 15.248 125.094 15.068V1.946H128.748V16.148ZM131.213 11.702C130.829 11.702 130.541 11.618 130.349 11.45C130.157 11.27 130.061 10.988 130.061 10.604V8.93H136.055V8.228H132.023C131.675 8.228 131.411 8.15 131.231 7.994C131.051 7.826 130.961 7.568 130.961 7.22V1.928H144.605V3.674C144.605 4.022 144.515 4.28 144.335 4.448C144.155 4.616 143.891 4.7 143.543 4.7H134.579V5.456H144.677V7.22C144.677 7.568 144.587 7.826 144.407 7.994C144.227 8.15 143.963 8.228 143.615 8.228H139.709V8.93H145.505V10.604C145.505 10.988 145.409 11.27 145.217 11.45C145.025 11.618 144.737 11.702 144.353 11.702H131.213ZM144.983 15.986C144.983 16.694 144.671 17.288 144.047 17.768C143.435 18.26 142.685 18.506 141.797 18.506H133.805C132.917 18.506 132.161 18.26 131.537 17.768C130.925 17.288 130.619 16.694 130.619 15.986V14.708C130.619 14 130.925 13.406 131.537 12.926C132.161 12.434 132.917 12.188 133.805 12.188H141.797C142.685 12.188 143.435 12.434 144.047 12.926C144.671 13.406 144.983 14 144.983 14.708V15.986ZM141.437 15.356C141.437 15.224 141.377 15.134 141.257 15.086C141.137 15.026 140.873 14.996 140.465 14.996H135.173C134.765 14.996 134.501 15.026 134.381 15.086C134.261 15.134 134.201 15.224 134.201 15.356C134.201 15.476 134.261 15.566 134.381 15.626C134.501 15.686 134.765 15.716 135.173 15.716H140.465C140.873 15.716 141.137 15.686 141.257 15.626C141.377 15.566 141.437 15.476 141.437 15.356ZM147.357 18.38C146.949 18.38 146.637 18.272 146.421 18.056C146.205 17.852 146.097 17.546 146.097 17.138V1.982H149.679V15.59H150.165C150.525 15.59 150.939 15.56 151.407 15.5C151.887 15.428 152.379 15.29 152.883 15.086V17.93C152.559 18.086 152.127 18.2 151.587 18.272C151.047 18.344 150.543 18.38 150.075 18.38H147.357ZM156.843 16.67C156.843 17.198 156.669 17.63 156.321 17.966C155.985 18.302 155.535 18.47 154.971 18.47H153.297V10.712H151.749C151.449 10.712 151.203 10.622 151.011 10.442C150.819 10.25 150.723 10.004 150.723 9.704V7.724H153.297V1.946H156.843V16.67ZM157.365 1.946H160.857V16.364C160.857 16.916 160.659 17.402 160.263 17.822C159.867 18.254 159.357 18.47 158.733 18.47H157.365V1.946ZM176.795 9.974C176.795 10.298 176.681 10.562 176.453 10.766C176.225 10.97 175.907 11.072 175.499 11.072H173.519V7.814H173.033H172.907V9.992C172.907 10.34 172.817 10.592 172.637 10.748C172.469 10.904 172.211 10.982 171.863 10.982H166.859C166.511 10.982 166.247 10.904 166.067 10.748C165.899 10.592 165.815 10.34 165.815 9.992V1.982H172.907V5.042H173.519V1.946H176.795V9.974ZM167.309 11.468H180.521V17.354C180.521 17.714 180.419 17.99 180.215 18.182C180.011 18.386 179.723 18.488 179.351 18.488H168.479C168.107 18.488 167.819 18.386 167.615 18.182C167.411 17.99 167.309 17.714 167.309 17.354V11.468ZM177.245 1.946H180.539V9.884C180.539 10.22 180.395 10.502 180.107 10.73C179.831 10.958 179.519 11.072 179.171 11.072H177.245V1.946ZM176.867 15.68V14.276H170.945V15.68H176.867ZM169.091 8.174H169.577V4.79H169.091V8.174ZM195.729 16.148C195.729 16.808 195.501 17.36 195.045 17.804C194.601 18.26 194.049 18.488 193.389 18.488H192.075V10.964H191.175C191.067 10.964 190.965 10.952 190.869 10.928V17.174C190.869 17.582 190.761 17.888 190.545 18.092C190.329 18.308 190.017 18.416 189.609 18.416H183.399C182.991 18.416 182.679 18.308 182.463 18.092C182.247 17.888 182.139 17.582 182.139 17.174V2H185.793V7.67H187.197V2H190.869V8.066H192.075V1.946H195.729V16.148ZM187.197 15.608V10.532H185.793V15.608H187.197ZM202.298 5.906C201.926 6.326 201.212 6.686 200.156 6.986C199.112 7.274 198.152 7.418 197.276 7.418V4.79C198.032 4.742 198.74 4.568 199.4 4.268C200.072 3.956 200.408 3.29 200.408 2.27V1.91H204.134V2.27C204.134 3.302 204.446 3.962 205.07 4.25C205.706 4.526 206.408 4.688 207.176 4.736V7.364C206.3 7.364 205.352 7.226 204.332 6.95C203.324 6.674 202.646 6.326 202.298 5.906ZM211.514 10.1C211.514 10.472 211.388 10.772 211.136 11C210.884 11.216 210.548 11.324 210.128 11.324H207.914V10.298C207.734 10.346 207.482 10.388 207.158 10.424C206.786 10.472 206.39 10.496 205.97 10.496H204.098C204.062 10.736 203.972 10.922 203.828 11.054C203.648 11.21 203.372 11.288 203 11.288H200.444V10.496H198.23C197.834 10.496 197.516 10.394 197.276 10.19C197.048 9.986 196.934 9.692 196.934 9.308V7.796H206.078C206.462 7.796 206.834 7.772 207.194 7.724C207.506 7.688 207.746 7.646 207.914 7.598V1.928H211.514V10.1ZM198.464 11.738H202.118V12.476H207.86V11.738H211.514V17.354C211.514 17.714 211.412 17.99 211.208 18.182C211.004 18.386 210.716 18.488 210.344 18.488H199.616C199.244 18.488 198.956 18.386 198.752 18.182C198.56 17.99 198.464 17.714 198.464 17.354V11.738ZM207.86 15.878V15.068H202.118V15.878H207.86Z" fill="#383838"/>
<path d="M113.36 7.472C113.36 8.348 113.048 9.086 112.424 9.686C111.812 10.274 111.062 10.568 110.174 10.568H102.542C101.654 10.568 100.898 10.274 100.274 9.686C99.6615 9.086 99.3555 8.348 99.3555 7.472V5.024C99.3555 4.136 99.6615 3.398 100.274 2.81C100.898 2.222 101.654 1.928 102.542 1.928H110.174C111.062 1.928 111.812 2.222 112.424 2.81C113.048 3.398 113.36 4.136 113.36 5.024V7.472ZM103.064 6.77C103.064 7.07 103.136 7.31 103.28 7.49C103.436 7.658 103.718 7.742 104.126 7.742H108.59C108.998 7.742 109.274 7.658 109.418 7.49C109.574 7.31 109.652 7.07 109.652 6.77V5.726C109.652 5.414 109.574 5.174 109.418 5.006C109.274 4.838 108.998 4.754 108.59 4.754H104.126C103.718 4.754 103.436 4.838 103.28 5.006C103.136 5.174 103.064 5.414 103.064 5.726V6.77ZM108.302 14.006V17.156C108.302 17.516 108.152 17.822 107.852 18.074C107.552 18.338 107.21 18.47 106.826 18.47H104.648V14.006H99.7875C99.4035 14.006 99.1155 13.922 98.9235 13.754C98.7315 13.574 98.6355 13.292 98.6355 12.908V11.234H114.08V12.908C114.08 13.292 113.984 13.574 113.792 13.754C113.6 13.922 113.312 14.006 112.928 14.006H108.302ZM128.748 16.148C128.748 16.808 128.52 17.36 128.064 17.804C127.62 18.26 127.068 18.488 126.408 18.488H125.094V17.876C124.242 18.128 123.618 18.278 123.222 18.326C122.814 18.386 122.292 18.416 121.656 18.416H116.49C116.082 18.416 115.77 18.308 115.554 18.092C115.338 17.888 115.23 17.582 115.23 17.174V8.444H120.108V4.79H116.184C115.836 4.79 115.578 4.718 115.41 4.574C115.254 4.43 115.176 4.184 115.176 3.836V1.982H123.78V10.244C123.78 10.592 123.696 10.838 123.528 10.982C123.372 11.126 123.12 11.198 122.772 11.198H118.884V15.626H121.89C122.286 15.626 122.79 15.578 123.402 15.482C123.99 15.386 124.554 15.248 125.094 15.068V1.946H128.748V16.148ZM131.213 11.702C130.829 11.702 130.541 11.618 130.349 11.45C130.157 11.27 130.061 10.988 130.061 10.604V8.93H136.055V8.228H132.023C131.675 8.228 131.411 8.15 131.231 7.994C131.051 7.826 130.961 7.568 130.961 7.22V1.928H144.605V3.674C144.605 4.022 144.515 4.28 144.335 4.448C144.155 4.616 143.891 4.7 143.543 4.7H134.579V5.456H144.677V7.22C144.677 7.568 144.587 7.826 144.407 7.994C144.227 8.15 143.963 8.228 143.615 8.228H139.709V8.93H145.505V10.604C145.505 10.988 145.409 11.27 145.217 11.45C145.025 11.618 144.737 11.702 144.353 11.702H131.213ZM144.983 15.986C144.983 16.694 144.671 17.288 144.047 17.768C143.435 18.26 142.685 18.506 141.797 18.506H133.805C132.917 18.506 132.161 18.26 131.537 17.768C130.925 17.288 130.619 16.694 130.619 15.986V14.708C130.619 14 130.925 13.406 131.537 12.926C132.161 12.434 132.917 12.188 133.805 12.188H141.797C142.685 12.188 143.435 12.434 144.047 12.926C144.671 13.406 144.983 14 144.983 14.708V15.986ZM141.437 15.356C141.437 15.224 141.377 15.134 141.257 15.086C141.137 15.026 140.873 14.996 140.465 14.996H135.173C134.765 14.996 134.501 15.026 134.381 15.086C134.261 15.134 134.201 15.224 134.201 15.356C134.201 15.476 134.261 15.566 134.381 15.626C134.501 15.686 134.765 15.716 135.173 15.716H140.465C140.873 15.716 141.137 15.686 141.257 15.626C141.377 15.566 141.437 15.476 141.437 15.356ZM147.357 18.38C146.949 18.38 146.637 18.272 146.421 18.056C146.205 17.852 146.097 17.546 146.097 17.138V1.982H149.679V15.59H150.165C150.525 15.59 150.939 15.56 151.407 15.5C151.887 15.428 152.379 15.29 152.883 15.086V17.93C152.559 18.086 152.127 18.2 151.587 18.272C151.047 18.344 150.543 18.38 150.075 18.38H147.357ZM156.843 16.67C156.843 17.198 156.669 17.63 156.321 17.966C155.985 18.302 155.535 18.47 154.971 18.47H153.297V10.712H151.749C151.449 10.712 151.203 10.622 151.011 10.442C150.819 10.25 150.723 10.004 150.723 9.704V7.724H153.297V1.946H156.843V16.67ZM157.365 1.946H160.857V16.364C160.857 16.916 160.659 17.402 160.263 17.822C159.867 18.254 159.357 18.47 158.733 18.47H157.365V1.946ZM176.795 9.974C176.795 10.298 176.681 10.562 176.453 10.766C176.225 10.97 175.907 11.072 175.499 11.072H173.519V7.814H173.033H172.907V9.992C172.907 10.34 172.817 10.592 172.637 10.748C172.469 10.904 172.211 10.982 171.863 10.982H166.859C166.511 10.982 166.247 10.904 166.067 10.748C165.899 10.592 165.815 10.34 165.815 9.992V1.982H172.907V5.042H173.519V1.946H176.795V9.974ZM167.309 11.468H180.521V17.354C180.521 17.714 180.419 17.99 180.215 18.182C180.011 18.386 179.723 18.488 179.351 18.488H168.479C168.107 18.488 167.819 18.386 167.615 18.182C167.411 17.99 167.309 17.714 167.309 17.354V11.468ZM177.245 1.946H180.539V9.884C180.539 10.22 180.395 10.502 180.107 10.73C179.831 10.958 179.519 11.072 179.171 11.072H177.245V1.946ZM176.867 15.68V14.276H170.945V15.68H176.867ZM169.091 8.174H169.577V4.79H169.091V8.174ZM195.729 16.148C195.729 16.808 195.501 17.36 195.045 17.804C194.601 18.26 194.049 18.488 193.389 18.488H192.075V10.964H191.175C191.067 10.964 190.965 10.952 190.869 10.928V17.174C190.869 17.582 190.761 17.888 190.545 18.092C190.329 18.308 190.017 18.416 189.609 18.416H183.399C182.991 18.416 182.679 18.308 182.463 18.092C182.247 17.888 182.139 17.582 182.139 17.174V2H185.793V7.67H187.197V2H190.869V8.066H192.075V1.946H195.729V16.148ZM187.197 15.608V10.532H185.793V15.608H187.197ZM202.298 5.906C201.926 6.326 201.212 6.686 200.156 6.986C199.112 7.274 198.152 7.418 197.276 7.418V4.79C198.032 4.742 198.74 4.568 199.4 4.268C200.072 3.956 200.408 3.29 200.408 2.27V1.91H204.134V2.27C204.134 3.302 204.446 3.962 205.07 4.25C205.706 4.526 206.408 4.688 207.176 4.736V7.364C206.3 7.364 205.352 7.226 204.332 6.95C203.324 6.674 202.646 6.326 202.298 5.906ZM211.514 10.1C211.514 10.472 211.388 10.772 211.136 11C210.884 11.216 210.548 11.324 210.128 11.324H207.914V10.298C207.734 10.346 207.482 10.388 207.158 10.424C206.786 10.472 206.39 10.496 205.97 10.496H204.098C204.062 10.736 203.972 10.922 203.828 11.054C203.648 11.21 203.372 11.288 203 11.288H200.444V10.496H198.23C197.834 10.496 197.516 10.394 197.276 10.19C197.048 9.986 196.934 9.692 196.934 9.308V7.796H206.078C206.462 7.796 206.834 7.772 207.194 7.724C207.506 7.688 207.746 7.646 207.914 7.598V1.928H211.514V10.1ZM198.464 11.738H202.118V12.476H207.86V11.738H211.514V17.354C211.514 17.714 211.412 17.99 211.208 18.182C211.004 18.386 210.716 18.488 210.344 18.488H199.616C199.244 18.488 198.956 18.386 198.752 18.182C198.56 17.99 198.464 17.714 198.464 17.354V11.738ZM207.86 15.878V15.068H202.118V15.878H207.86Z" fill="white"/>
<path d="M21.4214 84.796C21.4214 86.652 20.8454 88.124 19.6934 89.212C18.5414 90.3 17.0214 90.844 15.1334 90.844H7.35738C5.46938 90.844 3.94938 90.3 2.79738 89.212C1.64538 88.124 1.06938 86.652 1.06938 84.796V80.092C1.06938 78.236 1.64538 76.764 2.79738 75.676C3.94938 74.588 5.46938 74.044 7.35738 74.044H15.1334C17.0214 74.044 18.5414 74.588 19.6934 75.676C20.8454 76.764 21.4214 78.236 21.4214 80.092V84.796ZM6.58938 65.932V62.764H15.3734V65.932H21.5654V70.54C21.5654 71.468 21.3254 72.14 20.8454 72.556C20.3974 72.972 19.7094 73.18 18.7814 73.18H3.32538C2.39738 73.18 1.69338 72.972 1.21338 72.556C0.765375 72.14 0.541375 71.468 0.541375 70.54V65.932H6.58938ZM12.7334 82.444C12.7334 82.092 12.6374 81.852 12.4454 81.724C12.2854 81.564 11.9014 81.484 11.2934 81.484H11.1014C10.4934 81.484 10.0934 81.564 9.90138 81.724C9.74138 81.852 9.66138 82.092 9.66138 82.444C9.66138 82.764 9.74138 83.004 9.90138 83.164C10.0934 83.324 10.4934 83.404 11.1014 83.404H11.2934C11.9014 83.404 12.2854 83.324 12.4454 83.164C12.6374 83.004 12.7334 82.764 12.7334 82.444ZM41.3894 87.724C41.3894 88.62 41.0054 89.372 40.2374 89.98C39.5014 90.588 38.6694 90.892 37.7414 90.892H32.5094V81.436H31.2134V87.964C31.2134 88.828 30.9094 89.532 30.3014 90.076C29.6934 90.62 28.8454 90.892 27.7574 90.892H22.3334V65.356H31.2134V73.42H32.5094V65.356H41.3894V87.724ZM32.1254 100.492C32.1254 100.012 31.9814 99.628 31.6934 99.34C31.4054 99.052 30.7494 98.908 29.7254 98.908H17.1494C16.1574 98.908 15.4854 99.052 15.1334 99.34C14.8134 99.628 14.6534 100.012 14.6534 100.492V100.636C14.6534 101.116 14.8134 101.484 15.1334 101.74C15.4854 102.028 16.1574 102.172 17.1494 102.172H29.7254C30.7494 102.172 31.4054 102.028 31.6934 101.74C31.9814 101.484 32.1254 101.116 32.1254 100.636V100.492ZM41.9174 102.844C41.9174 104.988 41.1494 106.636 39.6134 107.788C38.1094 108.972 36.2214 109.564 33.9494 109.564H12.8294C10.5894 109.564 8.70138 108.972 7.16537 107.788C5.62938 106.636 4.86138 104.988 4.86138 102.844V98.38C4.86138 96.236 5.62938 94.604 7.16537 93.484C8.70138 92.332 10.5894 91.756 12.8294 91.756H33.9494C36.2214 91.756 38.1094 92.332 39.6134 93.484C41.1494 94.604 41.9174 96.236 41.9174 98.38V102.844ZM83.4094 77.164C83.4094 79.052 82.5774 80.636 80.9134 81.916C79.2814 83.196 77.2814 83.836 74.9134 83.836H53.8894C51.5214 83.836 49.5054 83.196 47.8414 81.916C46.2094 80.636 45.3934 79.052 45.3934 77.164V71.932C45.3934 70.044 46.2094 68.46 47.8414 67.18C49.5054 65.868 51.5214 65.212 53.8894 65.212H74.9134C77.2814 65.212 79.2814 65.868 80.9134 67.18C82.5774 68.46 83.4094 70.044 83.4094 71.932V77.164ZM72.1774 76.252C72.8814 76.252 73.3774 76.124 73.6654 75.868C73.9534 75.58 74.0974 75.132 74.0974 74.524C74.0974 73.884 73.9214 73.436 73.5694 73.18C73.2174 72.924 72.6894 72.796 71.9854 72.796H56.9134C56.2094 72.796 55.6814 72.924 55.3294 73.18C54.9774 73.436 54.8014 73.884 54.8014 74.524C54.8014 75.132 54.9774 75.58 55.3294 75.868C55.6814 76.124 56.2094 76.252 56.9134 76.252H72.1774ZM70.7374 92.86V97.756C70.7374 98.588 70.4974 99.212 70.0174 99.628C69.5374 100.044 68.8014 100.252 67.8094 100.252H60.9934V92.86H46.8814C45.8574 92.86 45.0894 92.636 44.5774 92.188C44.0654 91.708 43.8094 90.956 43.8094 89.932V85.564H84.9934V89.932C84.9934 90.956 84.7374 91.708 84.2254 92.188C83.7134 92.636 82.9454 92.86 81.9214 92.86H70.7374ZM49.2814 109.468C48.2894 109.468 47.5054 109.196 46.9294 108.652C46.3854 108.14 46.1134 107.404 46.1134 106.444V95.068H55.9054V102.028H82.5934V106.444C82.5934 107.404 82.3054 108.14 81.7294 108.652C81.1534 109.196 80.3694 109.468 79.3774 109.468H49.2814ZM125.045 100.492C125.045 101.42 124.821 102.076 124.373 102.46C123.957 102.844 123.285 103.036 122.357 103.036H98.3094V104.14H125.381V106.78C125.381 107.708 125.141 108.38 124.661 108.796C124.181 109.244 123.477 109.468 122.549 109.468H91.3974C90.4694 109.468 89.7654 109.244 89.2854 108.796C88.8054 108.38 88.5654 107.708 88.5654 106.78V98.14H115.253V97.084H91.1574C90.2294 97.084 89.5414 96.892 89.0934 96.508C88.6774 96.124 88.4694 95.468 88.4694 94.54V91.804H102.197V90.364H89.3814C88.3574 90.364 87.5894 90.14 87.0774 89.692C86.5654 89.212 86.3094 88.46 86.3094 87.436V84.028H127.493V87.436C127.493 88.46 127.237 89.212 126.725 89.692C126.213 90.14 125.445 90.364 124.421 90.364H111.893C111.765 90.876 111.541 91.276 111.221 91.564C111.125 91.66 111.013 91.74 110.885 91.804H125.045V100.492ZM125.093 73.948C125.093 74.876 124.869 75.532 124.421 75.916C124.005 76.3 123.333 76.492 122.405 76.492H98.3574V77.596H125.429V80.236C125.429 81.164 125.189 81.852 124.709 82.3C124.229 82.716 123.525 82.924 122.597 82.924H91.4934C90.5654 82.924 89.8614 82.716 89.3814 82.3C88.9014 81.852 88.6614 81.164 88.6614 80.236V71.596H115.301V70.54H91.1094C90.1814 70.54 89.4934 70.348 89.0454 69.964C88.6294 69.58 88.4214 68.924 88.4214 67.996V65.404H125.093V73.948ZM158.953 88.012C158.953 88.876 158.649 89.58 158.041 90.124C157.433 90.668 156.585 90.94 155.497 90.94H150.265V81.004H149.881C149.177 81.004 148.585 80.828 148.105 80.476C147.977 80.7 147.833 80.892 147.673 81.052C147.225 81.436 146.537 81.628 145.609 81.628H139.129V83.116H142.297C143.129 83.116 144.185 83.084 145.465 83.02C146.777 82.924 147.977 82.812 149.065 82.684V90.22C148.009 90.316 146.857 90.396 145.609 90.46C144.361 90.492 143.049 90.508 141.673 90.508H132.457C131.529 90.508 130.825 90.3 130.345 89.884C129.865 89.468 129.625 88.796 129.625 87.868V74.332H138.841V72.796H132.313C131.385 72.796 130.697 72.604 130.249 72.22C129.833 71.836 129.625 71.18 129.625 70.252V65.452H148.345V73.612H150.265V65.356H158.953V88.012ZM151.129 103.372C149.721 104.972 147.337 106.428 143.977 107.74C140.649 109.052 136.985 109.708 132.985 109.708V102.22C136.313 102.22 139.353 101.516 142.105 100.108C144.857 98.668 146.233 96.732 146.233 94.3V91.852H156.073V94.3C156.073 96.732 157.417 98.668 160.105 100.108C162.825 101.516 165.849 102.22 169.177 102.22V109.708C165.177 109.708 161.513 109.052 158.185 107.74C154.889 106.428 152.537 104.972 151.129 103.372ZM160.153 65.356H168.889V90.172C168.889 91.068 168.505 91.82 167.737 92.428C167.001 93.036 166.169 93.34 165.241 93.34H160.153V65.356ZM184.847 72.748C184.847 70.476 185.503 68.652 186.815 67.276C188.127 65.9 189.903 65.212 192.143 65.212H201.215C203.455 65.212 205.231 65.9 206.543 67.276C207.855 68.652 208.511 70.476 208.511 72.748V101.74C208.511 103.98 207.855 105.788 206.543 107.164C205.231 108.572 203.455 109.276 201.215 109.276H192.143C189.903 109.276 188.127 108.572 186.815 107.164C185.503 105.788 184.847 103.98 184.847 101.74V72.748ZM194.591 99.388C194.591 100.38 194.751 101.036 195.071 101.356C195.391 101.644 195.807 101.788 196.319 101.788H197.039C197.551 101.788 197.967 101.644 198.287 101.356C198.607 101.036 198.767 100.38 198.767 99.388V75.1C198.767 74.076 198.607 73.42 198.287 73.132C197.967 72.844 197.551 72.7 197.039 72.7H196.319C195.807 72.7 195.391 72.844 195.071 73.132C194.751 73.42 194.591 74.076 194.591 75.1V99.388ZM220.943 103.228C220.943 104.988 220.335 106.46 219.119 107.644C217.935 108.86 216.463 109.468 214.703 109.468H211.199V65.356H220.943V103.228ZM255.187 92.14C255.187 93.004 254.883 93.708 254.275 94.252C253.667 94.796 252.819 95.068 251.731 95.068H246.451V82.06H244.819V88.876C244.819 89.804 244.579 90.476 244.099 90.892C243.651 91.308 242.963 91.516 242.035 91.516H228.691C227.763 91.516 227.059 91.308 226.579 90.892C226.131 90.476 225.907 89.804 225.907 88.876V65.452H234.643V71.068H235.987V65.452H244.819V74.668H246.451V65.356H255.187V92.14ZM233.443 109.468C232.451 109.468 231.667 109.196 231.091 108.652C230.547 108.14 230.275 107.404 230.275 106.444V92.86H240.067V101.98H265.267V106.444C265.267 107.404 264.979 108.14 264.403 108.652C263.827 109.196 263.043 109.468 262.051 109.468H233.443ZM256.387 65.356H265.171V92.38C265.171 93.276 264.787 94.028 264.019 94.636C263.283 95.244 262.451 95.548 261.523 95.548H256.387V65.356ZM234.643 84.076H235.987V78.652H234.643V84.076ZM306.663 70.3C306.663 71.228 306.423 71.916 305.943 72.364C305.463 72.78 304.759 72.988 303.831 72.988H279.591V77.26H306.375V82.012C306.375 82.94 306.135 83.628 305.655 84.076C305.175 84.492 304.471 84.7 303.543 84.7H279.591V89.356H307.239V94.06C307.239 94.988 306.999 95.676 306.519 96.124C306.039 96.54 305.335 96.748 304.407 96.748H272.727C271.799 96.748 271.095 96.54 270.615 96.124C270.135 95.676 269.895 94.988 269.895 94.06V65.5H306.663V70.3ZM308.583 101.884V105.772C308.583 106.86 308.231 107.724 307.527 108.364C306.823 109.004 305.911 109.324 304.791 109.324H271.479C270.391 109.324 269.479 109.004 268.743 108.364C268.039 107.724 267.687 106.86 267.687 105.772V101.884H308.583Z" fill="#F8ED16"/>
</svg>
